Arya-Bold.ufo
<glyph name="numbersign" format="1">
  <advance width="600"/>
  <unicode hex="0023"/>
  <outline>
	<contour>
	  <point x="60" y="-53" type="line"/>
	  <point x="190" y="-53" type="line"/>
	  <point x="302" y="564" type="line"/>
	  <point x="172" y="564" type="line"/>
	</contour>
	<contour>
	  <point x="297" y="-53" type="line"/>
	  <point x="427" y="-53" type="line"/>
	  <point x="539" y="564" type="line"/>
	  <point x="409" y="564" type="line"/>
	</contour>
	<contour>
	  <point x="22" y="96" type="line"/>
	  <point x="520" y="96" type="line"/>
	  <point x="538" y="194" type="line"/>
	  <point x="40" y="194" type="line"/>
	</contour>
	<contour>
	  <point x="63" y="316" type="line"/>
	  <point x="561" y="316" type="line"/>
	  <point x="578" y="414" type="line"/>
	  <point x="81" y="414" type="line"/>
	</contour>
  </outline>
</glyph>
<glyph name="ampersand" format="1">
  <advance width="459"/>
  <unicode hex="0026"/>
  <outline>
	<contour>
	  <point x="365" y="408" type="line"/>
	  <point x="353" y="490"/>
	  <point x="310" y="521"/>
	  <point x="206" y="521" type="curve" smooth="yes"/>
	  <point x="77" y="521"/>
	  <point x="33" y="453"/>
	  <point x="33" y="375" type="curve" smooth="yes"/>
	  <point x="33" y="319"/>
	  <point x="69" y="276"/>
	  <point x="117" y="265" type="curve"/>
	  <point x="58" y="252"/>
	  <point x="19" y="202"/>
	  <point x="19" y="133" type="curve" smooth="yes"/>
	  <point x="19" y="73"/>
	  <point x="63" y="-11"/>
	  <point x="202" y="-11" type="curve" smooth="yes"/>
	  <point x="360" y="-11"/>
	  <point x="395" y="51"/>
	  <point x="395" y="131" type="curve" smooth="yes"/>
	  <point x="395" y="223" type="line"/>
	  <point x="469" y="223" type="line"/>
	  <point x="469" y="289" type="line"/>
	  <point x="230" y="289" type="line"/>
	  <point x="230" y="223" type="line"/>
	  <point x="280" y="223" type="line"/>
	  <point x="280" y="141" type="line" smooth="yes"/>
	  <point x="280" y="72"/>
	  <point x="262" y="40"/>
	  <point x="215" y="40" type="curve" smooth="yes"/>
	  <point x="168" y="40"/>
	  <point x="148" y="81"/>
	  <point x="148" y="133" type="curve" smooth="yes"/>
	  <point x="148" y="204"/>
	  <point x="185" y="223"/>
	  <point x="230" y="223" type="curve"/>
	  <point x="230" y="289" type="line"/>
	  <point x="224" y="289" type="line" smooth="yes"/>
	  <point x="183" y="289"/>
	  <point x="162" y="322"/>
	  <point x="162" y="375" type="curve" smooth="yes"/>
	  <point x="162" y="436"/>
	  <point x="173" y="470"/>
	  <point x="206" y="470" type="curve" smooth="yes"/>
	  <point x="235" y="470"/>
	  <point x="251" y="440"/>
	  <point x="255" y="374" type="curve"/>
	</contour>
  </outline>
</glyph>
<glyph name="parenleft" format="1">
  <advance width="236"/>
  <unicode hex="0028"/>
  <outline>
	<contour>
	  <point x="229" y="26" type="line"/>
	  <point x="167" y="26"/>
	  <point x="146" y="155"/>
	  <point x="146" y="255" type="curve" smooth="yes"/>
	  <point x="146" y="356"/>
	  <point x="167" y="484"/>
	  <point x="229" y="484" type="curve"/>
	  <point x="229" y="536" type="line"/>
	  <point x="51" y="536"/>
	  <point x="12" y="382"/>
	  <point x="12" y="255" type="curve" smooth="yes"/>
	  <point x="12" y="127"/>
	  <point x="51" y="-25"/>
	  <point x="229" y="-25" type="curve"/>
	</contour>
  </outline>
</glyph>
<glyph name="three" format="1">
  <advance width="461"/>
  <unicode hex="0033"/>
  <outline>
	<contour>
	  <point x="154" y="354" type="line"/>
	  <point x="156" y="436"/>
	  <point x="179" y="469"/>
	  <point x="220" y="469" type="curve" smooth="yes"/>
	  <point x="255" y="469"/>
	  <point x="279" y="447"/>
	  <point x="279" y="391" type="curve" smooth="yes"/>
	  <point x="279" y="319"/>
	  <point x="266" y="282"/>
	  <point x="191" y="282" type="curve" smooth="yes"/>
	  <point x="145" y="282" type="line"/>
	  <point x="145" y="247" type="line"/>
	  <point x="210" y="247" type="line" smooth="yes"/>
	  <point x="309" y="247"/>
	  <point x="408" y="287"/>
	  <point x="408" y="391" type="curve" smooth="yes"/>
	  <point x="408" y="465"/>
	  <point x="344" y="521"/>
	  <point x="220" y="521" type="curve" smooth="yes"/>
	  <point x="102" y="521"/>
	  <point x="49" y="479"/>
	  <point x="42" y="368" type="curve"/>
	</contour>
	<contour>
	  <point x="33" y="133" type="line"/>
	  <point x="41" y="28"/>
	  <point x="100" y="-10"/>
	  <point x="215" y="-10" type="curve" smooth="yes"/>
	  <point x="346" y="-10"/>
	  <point x="414" y="53"/>
	  <point x="414" y="127" type="curve" smooth="yes"/>
	  <point x="414" y="222"/>
	  <point x="326" y="258"/>
	  <point x="217" y="258" type="curve" smooth="yes"/>
	  <point x="145" y="258" type="line"/>
	  <point x="145" y="222" type="line"/>
	  <point x="190" y="222" type="line" smooth="yes"/>
	  <point x="233" y="222"/>
	  <point x="286" y="219"/>
	  <point x="286" y="128" type="curve" smooth="yes"/>
	  <point x="286" y="68"/>
	  <point x="262" y="42"/>
	  <point x="215" y="42" type="curve" smooth="yes"/>
	  <point x="175" y="42"/>
	  <point x="149" y="74"/>
	  <point x="145" y="148" type="curve"/>
	</contour>
  </outline>
</glyph>
<glyph name="four" format="1">
  <advance width="461"/>
  <unicode hex="0034"/>
  <outline>
	<contour>
	  <point x="187" y="511" type="line"/>
	  <point x="11" y="172" type="line"/>
	  <point x="11" y="91" type="line"/>
	  <point x="426" y="91" type="line"/>
	  <point x="426" y="191" type="line"/>
	  <point x="114" y="191" type="line"/>
	  <point x="278" y="511" type="line"/>
	</contour>
	<contour>
	  <point x="380" y="0" type="line"/>
	  <point x="380" y="511" type="line"/>
	  <point x="251" y="511" type="line"/>
	  <point x="251" y="0" type="line"/>
	</contour>
  </outline>
</glyph>
<glyph name="five" format="1">
  <advance width="461"/>
  <unicode hex="0035"/>
  <outline>
	<contour>
	  <point x="51" y="157" type="line"/>
	  <point x="57" y="52"/>
	  <point x="109" y="-10"/>
	  <point x="229" y="-10" type="curve" smooth="yes"/>
	  <point x="362" y="-10"/>
	  <point x="426" y="68"/>
	  <point x="426" y="145" type="curve" smooth="yes"/>
	  <point x="426" y="237"/>
	  <point x="356" y="309"/>
	  <point x="209" y="309" type="curve" smooth="yes"/>
	  <point x="130" y="309" type="line"/>
	  <point x="137" y="412" type="line"/>
	  <point x="389" y="412" type="line"/>
	  <point x="389" y="511" type="line"/>
	  <point x="92" y="511" type="line"/>
	  <point x="76" y="258" type="line"/>
	  <point x="148" y="258" type="line" smooth="yes"/>
	  <point x="266" y="258"/>
	  <point x="294" y="206"/>
	  <point x="294" y="145" type="curve" smooth="yes"/>
	  <point x="294" y="90"/>
	  <point x="276" y="41"/>
	  <point x="229" y="41" type="curve" smooth="yes"/>
	  <point x="184" y="41"/>
	  <point x="167" y="88"/>
	  <point x="164" y="167" type="curve"/>
	</contour>
  </outline>
</glyph>
<glyph name="seven" format="1">
  <advance width="461"/>
  <unicode hex="0037"/>
  <outline>
	<contour>
	  <point x="199" y="0" type="line"/>
	  <point x="408" y="430" type="line"/>
	  <point x="408" y="511" type="line"/>
	  <point x="39" y="511" type="line"/>
	  <point x="39" y="411" type="line"/>
	  <point x="307" y="411" type="line"/>
	  <point x="85" y="0" type="line"/>
	</contour>
  </outline>
</glyph>
<glyph name="nine" format="1">
  <advance width="461"/>
  <unicode hex="0039"/>
  <outline>
	<contour>
	  <point x="41" y="143" type="line"/>
	  <point x="46" y="38"/>
	  <point x="112" y="-10"/>
	  <point x="224" y="-10" type="curve" smooth="yes"/>
	  <point x="381" y="-10"/>
	  <point x="430" y="83"/>
	  <point x="430" y="286" type="curve" smooth="yes"/>
	  <point x="430" y="422"/>
	  <point x="375" y="521"/>
	  <point x="236" y="521" type="curve" smooth="yes"/>
	  <point x="105" y="521"/>
	  <point x="31" y="448"/>
	  <point x="31" y="348" type="curve" smooth="yes"/>
	  <point x="31" y="263"/>
	  <point x="77" y="199"/>
	  <point x="204" y="199" type="curve" smooth="yes"/>
	  <point x="245" y="199"/>
	  <point x="285" y="203"/>
	  <point x="339" y="238" type="curve"/>
	  <point x="341" y="288" type="line"/>
	  <point x="308" y="260"/>
	  <point x="275" y="250"/>
	  <point x="244" y="250" type="curve" smooth="yes"/>
	  <point x="180" y="250"/>
	  <point x="163" y="306"/>
	  <point x="163" y="354" type="curve" smooth="yes"/>
	  <point x="163" y="421"/>
	  <point x="186" y="470"/>
	  <point x="236" y="470" type="curve" smooth="yes"/>
	  <point x="293" y="470"/>
	  <point x="300" y="386"/>
	  <point x="300" y="256" type="curve" smooth="yes"/>
	  <point x="300" y="112"/>
	  <point x="296" y="41"/>
	  <point x="224" y="41" type="curve" smooth="yes"/>
	  <point x="174" y="41"/>
	  <point x="155" y="85"/>
	  <point x="153" y="155" type="curve"/>
	</contour>
  </outline>
</glyph>
<glyph name="less" format="1">
  <advance width="406"/>
  <unicode hex="003C"/>
  <outline>
	<contour>
	  <point x="62" y="171" type="line"/>
	  <point x="344" y="48" type="line"/>
	  <point x="344" y="138" type="line"/>
	  <point x="62" y="252" type="line"/>
	</contour>
	<contour>
	  <point x="62" y="192" type="line"/>
	  <point x="344" y="304" type="line"/>
	  <point x="344" y="396" type="line"/>
	  <point x="62" y="274" type="line"/>
	</contour>
  </outline>
</glyph>
<glyph name="greater" format="1">
  <advance width="406"/>
  <unicode hex="003E"/>
  <outline>
	<contour>
	  <point x="344" y="252" type="line"/>
	  <point x="62" y="138" type="line"/>
	  <point x="62" y="48" type="line"/>
	  <point x="344" y="171" type="line"/>
	</contour>
	<contour>
	  <point x="344" y="274" type="line"/>
	  <point x="62" y="396" type="line"/>
	  <point x="62" y="304" type="line"/>
	  <point x="344" y="192" type="line"/>
	</contour>
  </outline>
</glyph>
<glyph name="at" format="1">
  <advance width="757"/>
  <unicode hex="0040"/>
  <outline>
	<contour>
	  <point x="714" y="431"/>
	  <point x="583" y="519"/>
	  <point x="386" y="519" type="curve" smooth="yes"/>
	  <point x="139" y="519"/>
	  <point x="43" y="388"/>
	  <point x="43" y="220" type="curve" smooth="yes"/>
	  <point x="43" y="10"/>
	  <point x="181" y="-72"/>
	  <point x="389" y="-72" type="curve"/>
	  <point x="389" y="-31" type="line"/>
	  <point x="226" y="-31"/>
	  <point x="162" y="68"/>
	  <point x="162" y="220" type="curve" smooth="yes"/>
	  <point x="162" y="395"/>
	  <point x="251" y="479"/>
	  <point x="386" y="479" type="curve" smooth="yes"/>
	  <point x="543" y="479"/>
	  <point x="604" y="377"/>
	  <point x="604" y="267" type="curve" smooth="yes"/>
	  <point x="604" y="195"/>
	  <point x="580" y="139"/>
	  <point x="538" y="139" type="curve" smooth="yes"/>
	  <point x="526" y="139" type="line"/>
	  <point x="526" y="396" type="line"/>
	  <point x="475" y="396" type="line"/>
	  <point x="456" y="378" type="line"/>
	  <point x="426" y="391"/>
	  <point x="393" y="396"/>
	  <point x="366" y="396" type="curve" smooth="yes"/>
	  <point x="257" y="396"/>
	  <point x="216" y="336"/>
	  <point x="216" y="238" type="curve" smooth="yes"/>
	  <point x="216" y="122"/>
	  <point x="268" y="81"/>
	  <point x="343" y="81" type="curve" smooth="yes"/>
	  <point x="374" y="81"/>
	  <point x="399" y="88"/>
	  <point x="419" y="107" type="curve"/>
	  <point x="441" y="88" type="line"/>
	  <point x="552" y="88" type="line" smooth="yes"/>
	  <point x="670" y="88"/>
	  <point x="714" y="180"/>
	  <point x="714" y="267" type="curve" smooth="yes"/>
	</contour>
	<contour>
	  <point x="349" y="131"/>
	  <point x="332" y="172"/>
	  <point x="332" y="238" type="curve" smooth="yes"/>
	  <point x="332" y="318"/>
	  <point x="356" y="345"/>
	  <point x="393" y="345" type="curve" smooth="yes"/>
	  <point x="405" y="345"/>
	  <point x="407" y="346"/>
	  <point x="409" y="348" type="curve"/>
	  <point x="409" y="132" type="line"/>
	  <point x="403" y="130"/>
	  <point x="397" y="131"/>
	  <point x="387" y="131" type="curve" smooth="yes"/>
	</contour>
	<contour>
	  <point x="389" y="-72" type="line"/>
	  <point x="515" y="-72" type="line"/>
	  <point x="515" y="-31" type="line"/>
	  <point x="389" y="-31" type="line"/>
	</contour>
  </outline>
</glyph>
<glyph name="B" format="1">
  <advance width="446"/>
  <unicode hex="0042"/>
  <outline>
	<contour>
	  <point x="57" y="511" type="line"/>
	  <point x="57" y="0" type="line"/>
	  <point x="187" y="0" type="line"/>
	  <point x="187" y="511" type="line"/>
	</contour>
	<contour>
	  <point x="259" y="0" type="line" smooth="yes"/>
	  <point x="398" y="0"/>
	  <point x="431" y="75"/>
	  <point x="431" y="137" type="curve" smooth="yes"/>
	  <point x="431" y="198"/>
	  <point x="391" y="274"/>
	  <point x="259" y="274" type="curve" smooth="yes"/>
	  <point x="57" y="274" type="line"/>
	  <point x="57" y="0" type="line"/>
	</contour>
	<contour>
	  <point x="187" y="47" type="line"/>
	  <point x="187" y="238" type="line"/>
	  <point x="241" y="238" type="line" smooth="yes"/>
	  <point x="280" y="238"/>
	  <point x="301" y="188"/>
	  <point x="301" y="137" type="curve" smooth="yes"/>
	  <point x="301" y="74"/>
	  <point x="281" y="47"/>
	  <point x="241" y="47" type="curve" smooth="yes"/>
	</contour>
	<contour>
	  <point x="240" y="247" type="line" smooth="yes"/>
	  <point x="393" y="247"/>
	  <point x="413" y="322"/>
	  <point x="413" y="380" type="curve" smooth="yes"/>
	  <point x="413" y="429"/>
	  <point x="386" y="511"/>
	  <point x="240" y="511" type="curve" smooth="yes"/>
	  <point x="57" y="511" type="line"/>
	  <point x="57" y="247" type="line"/>
	</contour>
	<contour>
	  <point x="187" y="283" type="line"/>
	  <point x="187" y="464" type="line"/>
	  <point x="227" y="464" type="line" smooth="yes"/>
	  <point x="256" y="464"/>
	  <point x="283" y="444"/>
	  <point x="283" y="379" type="curve" smooth="yes"/>
	  <point x="283" y="331"/>
	  <point x="276" y="283"/>
	  <point x="227" y="283" type="curve" smooth="yes"/>
	</contour>
  </outline>
</glyph>
<glyph name="C" format="1">
  <advance width="429"/>
  <unicode hex="0043"/>
  <outline>
	<contour>
	  <point x="425" y="370" type="line"/>
	  <point x="415" y="461"/>
	  <point x="381" y="521"/>
	  <point x="245" y="521" type="curve" smooth="yes"/>
	  <point x="76" y="521"/>
	  <point x="26" y="430"/>
	  <point x="26" y="255" type="curve" smooth="yes"/>
	  <point x="26" y="81"/>
	  <point x="76" y="-10"/>
	  <point x="245" y="-10" type="curve" smooth="yes"/>
	  <point x="391" y="-10"/>
	  <point x="420" y="63"/>
	  <point x="427" y="173" type="curve"/>
	  <point x="322" y="178" type="line"/>
	  <point x="321" y="93"/>
	  <point x="306" y="44"/>
	  <point x="245" y="44" type="curve" smooth="yes"/>
	  <point x="177" y="44"/>
	  <point x="156" y="101"/>
	  <point x="156" y="255" type="curve" smooth="yes"/>
	  <point x="156" y="411"/>
	  <point x="177" y="467"/>
	  <point x="245" y="467" type="curve" smooth="yes"/>
	  <point x="299" y="467"/>
	  <point x="316" y="426"/>
	  <point x="322" y="355" type="curve"/>
	</contour>
	<contour>
	  <point x="215" y="511" type="move" name="top"/>
	</contour>
	<contour>
	  <point x="229" y="0" type="move" name="bottom"/>
	</contour>
  </outline>
</glyph>
<glyph name="D" format="1">
  <advance width="515"/>
  <unicode hex="0044"/>
  <outline>
	<contour>
	  <point x="57" y="511" type="line"/>
	  <point x="57" y="0" type="line"/>
	  <point x="187" y="0" type="line"/>
	  <point x="187" y="511" type="line"/>
	</contour>
	<contour>
	  <point x="187" y="511" type="line"/>
	  <point x="187" y="464" type="line"/>
	  <point x="230" y="464" type="line" smooth="yes"/>
	  <point x="325" y="464"/>
	  <point x="345" y="368"/>
	  <point x="345" y="255" type="curve" smooth="yes"/>
	  <point x="345" y="143"/>
	  <point x="325" y="47"/>
	  <point x="230" y="47" type="curve" smooth="yes"/>
	  <point x="187" y="47" type="line"/>
	  <point x="187" y="0" type="line"/>
	  <point x="251" y="0" type="line" smooth="yes"/>
	  <point x="438" y="0"/>
	  <point x="476" y="112"/>
	  <point x="476" y="255" type="curve" smooth="yes"/>
	  <point x="476" y="398"/>
	  <point x="438" y="511"/>
	  <point x="251" y="511" type="curve" smooth="yes"/>
	</contour>
	<contour>
	  <point x="254" y="255" type="move" name="center"/>
	</contour>
	<contour>
	  <point x="254" y="511" type="move" name="top"/>
	</contour>
  </outline>
</glyph>
<glyph name="G" format="1">
  <advance width="488"/>
  <unicode hex="0047"/>
  <outline>
	<contour>
	  <point x="376" y="0" type="line"/>
	  <point x="438" y="0" type="line"/>
	  <point x="438" y="266" type="line"/>
	  <point x="327" y="266" type="line"/>
	  <point x="327" y="98" type="line"/>
	</contour>
	<contour>
	  <point x="252" y="204" type="line"/>
	  <point x="438" y="204" type="line"/>
	  <point x="438" y="266" type="line"/>
	  <point x="252" y="266" type="line"/>
	</contour>
	<contour>
	  <point x="26" y="91"/>
	  <point x="76" y="-10"/>
	  <point x="234" y="-10" type="curve" smooth="yes"/>
	  <point x="375" y="-10"/>
	  <point x="398" y="148"/>
	  <point x="405" y="194" type="curve"/>
	  <point x="327" y="192" type="line"/>
	  <point x="327" y="75"/>
	  <point x="294" y="44"/>
	  <point x="234" y="44" type="curve" smooth="yes"/>
	  <point x="175" y="44"/>
	  <point x="156" y="118"/>
	  <point x="156" y="255" type="curve" smooth="yes"/>
	  <point x="156" y="412"/>
	  <point x="177" y="467"/>
	  <point x="245" y="467" type="curve" smooth="yes"/>
	  <point x="299" y="467"/>
	  <point x="316" y="426"/>
	  <point x="322" y="355" type="curve"/>
	  <point x="425" y="370" type="line"/>
	  <point x="415" y="461"/>
	  <point x="381" y="521"/>
	  <point x="245" y="521" type="curve" smooth="yes"/>
	  <point x="76" y="521"/>
	  <point x="26" y="430"/>
	  <point x="26" y="255" type="curve" smooth="yes"/>
	</contour>
	<contour>
	  <point x="245" y="511" type="move" name="top"/>
	</contour>
	<contour>
	  <point x="245" y="0" type="move" name="bottom"/>
	</contour>
  </outline>
</glyph>
<glyph name="H" format="1">
  <advance width="514"/>
  <unicode hex="0048"/>
  <outline>
	<contour>
	  <point x="57" y="511" type="line"/>
	  <point x="57" y="0" type="line"/>
	  <point x="187" y="0" type="line"/>
	  <point x="187" y="511" type="line"/>
	</contour>
	<contour>
	  <point x="153" y="224" type="line"/>
	  <point x="419" y="224" type="line"/>
	  <point x="419" y="287" type="line"/>
	  <point x="153" y="287" type="line"/>
	</contour>
	<contour>
	  <point x="326" y="511" type="line"/>
	  <point x="326" y="0" type="line"/>
	  <point x="457" y="0" type="line"/>
	  <point x="457" y="511" type="line"/>
	</contour>
	<contour>
	  <point x="257" y="255" type="move" name="center"/>
	</contour>
	<contour>
	  <point x="257" y="511" type="move" name="top"/>
	</contour>
  </outline>
</glyph>
<glyph name="I" format="1">
  <advance width="244"/>
  <unicode hex="0049"/>
  <outline>
	<contour>
	  <point x="57" y="511" type="line"/>
	  <point x="57" y="0" type="line"/>
	  <point x="187" y="0" type="line"/>
	  <point x="187" y="511" type="line"/>
	</contour>
	<contour>
	  <point x="212" y="7" type="move" name="ogonek"/>
	</contour>
	<contour>
	  <point x="122" y="511" type="move" name="top"/>
	</contour>
  </outline>
</glyph>
<glyph name="L" format="1">
  <advance width="338"/>
  <unicode hex="004C"/>
  <outline>
	<contour>
	  <point x="57" y="511" type="line"/>
	  <point x="57" y="0" type="line"/>
	  <point x="187" y="0" type="line"/>
	  <point x="187" y="511" type="line"/>
	</contour>
	<contour>
	  <point x="57" y="0" type="line"/>
	  <point x="344" y="0" type="line"/>
	  <point x="344" y="63" type="line"/>
	  <point x="57" y="63" type="line"/>
	</contour>
	<contour>
	  <point x="122" y="511" type="move" name="top"/>
	</contour>
	<contour>
	  <point x="190" y="0" type="move" name="bottom"/>
	</contour>
	<contour>
	  <point x="324" y="511" type="move" name="topright"/>
	</contour>
  </outline>
</glyph>
<glyph name="N" format="1">
  <advance width="533"/>
  <unicode hex="004E"/>
  <outline>
	<contour>
	  <point x="54" y="511" type="line"/>
	  <point x="54" y="0" type="line"/>
	  <point x="132" y="0" type="line"/>
	  <point x="132" y="511" type="line"/>
	</contour>
	<contour>
	  <point x="399" y="511" type="line"/>
	  <point x="399" y="0" type="line"/>
	  <point x="477" y="0" type="line"/>
	  <point x="477" y="511" type="line"/>
	</contour>
	<contour>
	  <point x="54" y="511" type="line"/>
	  <point x="340" y="0" type="line"/>
	  <point x="476" y="0" type="line"/>
	  <point x="190" y="511" type="line"/>
	</contour>
	<contour>
	  <point x="266" y="511" type="move" name="top"/>
	</contour>
	<contour>
	  <point x="266" y="0" type="move" name="bottom"/>
	</contour>
  </outline>
</glyph>
<glyph name="P" format="1">
  <advance width="424"/>
  <unicode hex="0050"/>
  <outline>
	<contour>
	  <point x="57" y="455" type="line"/>
	  <point x="57" y="0" type="line"/>
	  <point x="187" y="0" type="line"/>
	  <point x="187" y="455" type="line"/>
	</contour>
	<contour>
	  <point x="260" y="173" type="line" smooth="yes"/>
	  <point x="390" y="173"/>
	  <point x="429" y="254"/>
	  <point x="429" y="341" type="curve" smooth="yes"/>
	  <point x="429" y="430"/>
	  <point x="390" y="511"/>
	  <point x="260" y="511" type="curve" smooth="yes"/>
	  <point x="57" y="511" type="line"/>
	  <point x="57" y="173" type="line"/>
	</contour>
	<contour>
	  <point x="187" y="220" type="line"/>
	  <point x="187" y="464" type="line"/>
	  <point x="235" y="464" type="line" smooth="yes"/>
	  <point x="276" y="464"/>
	  <point x="299" y="424"/>
	  <point x="299" y="341" type="curve" smooth="yes"/>
	  <point x="299" y="261"/>
	  <point x="276" y="220"/>
	  <point x="235" y="220" type="curve" smooth="yes"/>
	</contour>
  </outline>
</glyph>
<glyph name="R" format="1">
  <advance width="475"/>
  <unicode hex="0052"/>
  <outline>
	<contour>
	  <point x="57" y="455" type="line"/>
	  <point x="57" y="0" type="line"/>
	  <point x="187" y="0" type="line"/>
	  <point x="187" y="455" type="line"/>
	</contour>
	<contour>
	  <point x="260" y="211" type="line" smooth="yes"/>
	  <point x="406" y="211"/>
	  <point x="438" y="287"/>
	  <point x="438" y="352" type="curve" smooth="yes"/>
	  <point x="438" y="425"/>
	  <point x="406" y="511"/>
	  <point x="260" y="511" type="curve" smooth="yes"/>
	  <point x="57" y="511" type="line"/>
	  <point x="57" y="211" type="line"/>
	</contour>
	<contour>
	  <point x="187" y="258" type="line"/>
	  <point x="187" y="464" type="line"/>
	  <point x="240" y="464" type="line" smooth="yes"/>
	  <point x="286" y="464"/>
	  <point x="308" y="409"/>
	  <point x="308" y="352" type="curve" smooth="yes"/>
	  <point x="308" y="306"/>
	  <point x="286" y="258"/>
	  <point x="240" y="258" type="curve" smooth="yes"/>
	</contour>
	<contour>
	  <point x="206" y="211" type="line"/>
	  <point x="235" y="211"/>
	  <point x="238" y="207"/>
	  <point x="247" y="183" type="curve" smooth="yes"/>
	  <point x="321" y="0" type="line"/>
	  <point x="461" y="0" type="line"/>
	  <point x="382" y="191" type="line" smooth="yes"/>
	  <point x="364" y="231"/>
	  <point x="315" y="240"/>
	  <point x="206" y="240" type="curve"/>
	</contour>
	<contour>
	  <point x="238" y="511" type="move" name="top"/>
	</contour>
	<contour>
	  <point x="238" y="0" type="move" name="bottom"/>
	</contour>
  </outline>
</glyph>
<glyph name="S" format="1">
  <advance width="435"/>
  <unicode hex="0053"/>
  <outline>
	<contour>
	  <point x="96" y="521"/>
	  <point x="33" y="468"/>
	  <point x="33" y="362" type="curve" smooth="yes"/>
	  <point x="33" y="267"/>
	  <point x="73" y="223"/>
	  <point x="167" y="204" type="curve" smooth="yes"/>
	  <point x="202" y="196" type="line" smooth="yes"/>
	  <point x="287" y="178"/>
	  <point x="309" y="164"/>
	  <point x="309" y="120" type="curve" smooth="yes"/>
	  <point x="309" y="72"/>
	  <point x="275" y="42"/>
	  <point x="221" y="42" type="curve" smooth="yes"/>
	  <point x="163" y="42"/>
	  <point x="132" y="87"/>
	  <point x="126" y="166" type="curve"/>
	  <point x="22" y="151" type="line"/>
	  <point x="35" y="40"/>
	  <point x="98" y="-10"/>
	  <point x="220" y="-10" type="curve" smooth="yes"/>
	  <point x="346" y="-10"/>
	  <point x="413" y="45"/>
	  <point x="413" y="147" type="curve" smooth="yes"/>
	  <point x="413" y="240"/>
	  <point x="374" y="283"/>
	  <point x="279" y="304" type="curve" smooth="yes"/>
	  <point x="237" y="315" type="line" smooth="yes"/>
	  <point x="160" y="334"/>
	  <point x="136" y="347"/>
	  <point x="136" y="391" type="curve" smooth="yes"/>
	  <point x="136" y="438"/>
	  <point x="168" y="469"/>
	  <point x="218" y="469" type="curve" smooth="yes"/>
	  <point x="271" y="469"/>
	  <point x="302" y="424"/>
	  <point x="307" y="347" type="curve"/>
	  <point x="411" y="360" type="line"/>
	  <point x="396" y="470"/>
	  <point x="336" y="521"/>
	  <point x="220" y="521" type="curve" smooth="yes"/>
	</contour>
	<contour>
	  <point x="223" y="511" type="move" name="top"/>
	</contour>
	<contour>
	  <point x="218" y="0" type="move" name="bottom"/>
	</contour>
  </outline>
</glyph>
<glyph name="U" format="1">
  <advance width="496"/>
  <unicode hex="0055"/>
  <outline>
	<contour>
	  <point x="372" y="511" type="line"/>
	  <point x="372" y="169" type="line" smooth="yes"/>
	  <point x="372" y="84"/>
	  <point x="323" y="54"/>
	  <point x="264" y="54" type="curve" smooth="yes"/>
	  <point x="215" y="54"/>
	  <point x="177" y="84"/>
	  <point x="177" y="169" type="curve" smooth="yes"/>
	  <point x="177" y="511" type="line"/>
	  <point x="47" y="511" type="line"/>
	  <point x="47" y="169" type="line" smooth="yes"/>
	  <point x="47" y="28"/>
	  <point x="150" y="-10"/>
	  <point x="256" y="-10" type="curve" smooth="yes"/>
	  <point x="340" y="-10"/>
	  <point x="450" y="25"/>
	  <point x="450" y="169" type="curve" smooth="yes"/>
	  <point x="450" y="511" type="line"/>
	</contour>
	<contour>
	  <point x="370" y="7" type="move" name="ogonek"/>
	</contour>
	<contour>
	  <point x="255" y="511" type="move" name="top"/>
	</contour>
  </outline>
</glyph>
<glyph name="V" format="1">
  <advance width="452"/>
  <unicode hex="0056"/>
  <outline>
	<contour>
	  <point x="270" y="0" type="line"/>
	  <point x="126" y="511" type="line"/>
	  <point x="-4" y="511" type="line"/>
	  <point x="150" y="0" type="line"/>
	</contour>
	<contour>
	  <point x="302" y="0" type="line"/>
	  <point x="456" y="511" type="line"/>
	  <point x="379" y="511" type="line"/>
	  <point x="235" y="0" type="line"/>
	</contour>
  </outline>
</glyph>
<glyph name="W" format="1">
  <advance width="661"/>
  <unicode hex="0057"/>
  <outline>
	<contour>
	  <point x="239" y="0" type="line"/>
	  <point x="140" y="511" type="line"/>
	  <point x="11" y="511" type="line"/>
	  <point x="116" y="0" type="line"/>
	</contour>
	<contour>
	  <point x="239" y="0" type="line"/>
	  <point x="375" y="511" type="line"/>
	  <point x="300" y="511" type="line"/>
	  <point x="169" y="0" type="line"/>
	</contour>
	<contour>
	  <point x="545" y="0" type="line"/>
	  <point x="650" y="511" type="line"/>
	  <point x="573" y="511" type="line"/>
	  <point x="476" y="0" type="line"/>
	</contour>
	<contour>
	  <point x="545" y="0" type="line"/>
	  <point x="419" y="511" type="line"/>
	  <point x="300" y="511" type="line"/>
	  <point x="429" y="0" type="line"/>
	</contour>
	<contour>
	  <point x="360" y="511" type="move" name="top"/>
	</contour>
  </outline>
</glyph>
<glyph name="X" format="1">
  <advance width="431"/>
  <unicode hex="0058"/>
  <outline>
	<contour>
	  <point x="378" y="511" type="line"/>
	  <point x="210" y="276" type="line"/>
	  <point x="257" y="230" type="line"/>
	  <point x="455" y="511" type="line"/>
	</contour>
	<contour>
	  <point x="-21" y="511" type="line"/>
	  <point x="315" y="0" type="line"/>
	  <point x="463" y="0" type="line"/>
	  <point x="127" y="511" type="line"/>
	</contour>
	<contour>
	  <point x="66" y="0" type="line"/>
	  <point x="233" y="239" type="line"/>
	  <point x="184" y="281" type="line"/>
	  <point x="-11" y="0" type="line"/>
	</contour>
  </outline>
</glyph>
<glyph name="Y" format="1">
  <advance width="419"/>
  <unicode hex="0059"/>
  <outline>
	<contour>
	  <point x="145" y="214" type="line"/>
	  <point x="145" y="0" type="line"/>
	  <point x="275" y="0" type="line"/>
	  <point x="275" y="214" type="line"/>
	</contour>
	<contour>
	  <point x="264" y="176" type="line"/>
	  <point x="116" y="511" type="line"/>
	  <point x="-13" y="511" type="line"/>
	  <point x="145" y="175" type="line"/>
	</contour>
	<contour>
	  <point x="274" y="175" type="line"/>
	  <point x="432" y="511" type="line"/>
	  <point x="356" y="511" type="line"/>
	  <point x="199" y="176" type="line"/>
	</contour>
	<contour>
	  <point x="210" y="511" type="move" name="top"/>
	</contour>
  </outline>
</glyph>
<glyph name="Z" format="1">
  <advance width="402"/>
  <unicode hex="005A"/>
  <outline>
	<contour>
	  <point x="25" y="448" type="line"/>
	  <point x="287" y="448" type="line"/>
	  <point x="261" y="462" type="line"/>
	  <point x="11" y="82" type="line"/>
	  <point x="11" y="0" type="line"/>
	  <point x="391" y="0" type="line"/>
	  <point x="391" y="63" type="line"/>
	  <point x="109" y="63" type="line"/>
	  <point x="134" y="49" type="line"/>
	  <point x="384" y="429" type="line"/>
	  <point x="384" y="511" type="line"/>
	  <point x="25" y="511" type="line"/>
	</contour>
	<contour>
	  <point x="201" y="511" type="move" name="top"/>
	</contour>
  </outline>
</glyph>
<glyph name="bracketright" format="1">
  <advance width="253"/>
  <unicode hex="005D"/>
  <outline>
	<contour>
	  <point x="207" y="536" type="line"/>
	  <point x="76" y="536" type="line"/>
	  <point x="76" y="-25" type="line"/>
	  <point x="207" y="-25" type="line"/>
	</contour>
	<contour>
	  <point x="88" y="26" type="line"/>
	  <point x="8" y="26" type="line"/>
	  <point x="8" y="-25" type="line"/>
	  <point x="88" y="-25" type="line"/>
	</contour>
	<contour>
	  <point x="88" y="536" type="line"/>
	  <point x="8" y="536" type="line"/>
	  <point x="8" y="484" type="line"/>
	  <point x="88" y="484" type="line"/>
	</contour>
  </outline>
</glyph>
<glyph name="asciicircum" format="1">
  <advance width="406"/>
  <unicode hex="005E"/>
  <outline>
	<contour>
	  <point x="152" y="433" type="line"/>
	  <point x="43" y="221" type="line"/>
	  <point x="135" y="221" type="line"/>
	  <point x="233" y="433" type="line"/>
	</contour>
	<contour>
	  <point x="173" y="433" type="line"/>
	  <point x="273" y="221" type="line"/>
	  <point x="363" y="221" type="line"/>
	  <point x="254" y="433" type="line"/>
	</contour>
  </outline>
</glyph>
<glyph name="b" format="1">
  <advance width="461"/>
  <unicode hex="0062"/>
  <outline>
	<contour>
	  <point x="186" y="59" type="line"/>
	  <point x="186" y="539" type="line"/>
	  <point x="57" y="522" type="line"/>
	  <point x="57" y="0" type="line"/>
	  <point x="117" y="0" type="line"/>
	</contour>
	<contour>
	  <point x="118" y="304" type="line"/>
	  <point x="151" y="330"/>
	  <point x="185" y="346"/>
	  <point x="221" y="346" type="curve" smooth="yes"/>
	  <point x="281" y="346"/>
	  <point x="300" y="294"/>
	  <point x="300" y="200" type="curve" smooth="yes"/>
	  <point x="300" y="118"/>
	  <point x="280" y="63"/>
	  <point x="219" y="63" type="curve" smooth="yes"/>
	  <point x="182" y="63"/>
	  <point x="148" y="88"/>
	  <point x="116" y="141" type="curve"/>
	  <point x="104" y="76" type="line"/>
	  <point x="132" y="37"/>
	  <point x="182" y="-10"/>
	  <point x="259" y="-10" type="curve" smooth="yes"/>
	  <point x="398" y="-10"/>
	  <point x="429" y="92"/>
	  <point x="429" y="200" type="curve" smooth="yes"/>
	  <point x="429" y="309"/>
	  <point x="398" y="410"/>
	  <point x="259" y="410" type="curve" smooth="yes"/>
	  <point x="201" y="410"/>
	  <point x="143" y="380"/>
	  <point x="104" y="355" type="curve"/>
	</contour>
  </outline>
</glyph>
<glyph name="c" format="1">
  <advance width="412"/>
  <unicode hex="0063"/>
  <outline>
	<contour>
	  <point x="161" y="317"/>
	  <point x="178" y="346"/>
	  <point x="219" y="346" type="curve" smooth="yes"/>
	  <point x="251" y="346"/>
	  <point x="270" y="319"/>
	  <point x="272" y="248" type="curve"/>
	  <point x="379" y="260" type="line"/>
	  <point x="373" y="357"/>
	  <point x="333" y="410"/>
	  <point x="211" y="410" type="curve" smooth="yes"/>
	  <point x="59" y="410"/>
	  <point x="32" y="313"/>
	  <point x="32" y="200" type="curve" smooth="yes"/>
	  <point x="32" y="92"/>
	  <point x="59" y="-10"/>
	  <point x="211" y="-10" type="curve" smooth="yes"/>
	  <point x="335" y="-10"/>
	  <point x="374" y="47"/>
	  <point x="380" y="149" type="curve"/>
	  <point x="272" y="153" type="line"/>
	  <point x="270" y="83"/>
	  <point x="251" y="54"/>
	  <point x="219" y="54" type="curve" smooth="yes"/>
	  <point x="178" y="54"/>
	  <point x="161" y="84"/>
	  <point x="161" y="200" type="curve" smooth="yes"/>
	</contour>
	<contour>
	  <point x="201" y="400" type="move" name="top"/>
	</contour>
	<contour>
	  <point x="203" y="0" type="move" name="bottom"/>
	</contour>
  </outline>
</glyph>
<glyph name="e" format="1">
  <advance width="426"/>
  <unicode hex="0065"/>
  <outline>
	<contour>
	  <point x="78" y="181" type="line"/>
	  <point x="394" y="181" type="line"/>
	  <point x="394" y="196" type="line"/>
	  <point x="391" y="245" type="line"/>
	  <point x="78" y="245" type="line"/>
	</contour>
	<contour>
	  <point x="345" y="-10"/>
	  <point x="383" y="44"/>
	  <point x="390" y="114" type="curve"/>
	  <point x="283" y="117" type="line"/>
	  <point x="282" y="84"/>
	  <point x="270" y="54"/>
	  <point x="227" y="54" type="curve" smooth="yes"/>
	  <point x="185" y="54"/>
	  <point x="161" y="78"/>
	  <point x="161" y="184" type="curve" smooth="yes"/>
	  <point x="161" y="323"/>
	  <point x="180" y="346"/>
	  <point x="217" y="346" type="curve" smooth="yes"/>
	  <point x="259" y="346"/>
	  <point x="271" y="298"/>
	  <point x="271" y="196" type="curve"/>
	  <point x="394" y="196" type="line"/>
	  <point x="394" y="302"/>
	  <point x="366" y="410"/>
	  <point x="217" y="410" type="curve" smooth="yes"/>
	  <point x="67" y="410"/>
	  <point x="32" y="309"/>
	  <point x="32" y="200" type="curve" smooth="yes"/>
	  <point x="32" y="64"/>
	  <point x="81" y="-10"/>
	  <point x="220" y="-10" type="curve" smooth="yes"/>
	</contour>
	<contour>
	  <point x="322" y="7" type="move" name="ogonek"/>
	</contour>
	<contour>
	  <point x="211" y="0" type="move" name="bottom"/>
	</contour>
	<contour>
	  <point x="211" y="400" type="move" name="top"/>
	</contour>
  </outline>
</glyph>
<glyph name="h" format="1">
  <advance width="470"/>
  <unicode hex="0068"/>
  <outline>
	<contour>
	  <point x="186" y="539" type="line"/>
	  <point x="57" y="522" type="line" smooth="yes"/>
	  <point x="57" y="0" type="line"/>
	  <point x="186" y="0" type="line"/>
	</contour>
	<contour>
	  <point x="135" y="275" type="line"/>
	  <point x="156" y="295"/>
	  <point x="192" y="337"/>
	  <point x="248" y="337" type="curve" smooth="yes"/>
	  <point x="285" y="337"/>
	  <point x="292" y="313"/>
	  <point x="292" y="263" type="curve" smooth="yes"/>
	  <point x="292" y="0" type="line"/>
	  <point x="421" y="0" type="line"/>
	  <point x="421" y="281" type="line" smooth="yes"/>
	  <point x="421" y="349"/>
	  <point x="385" y="410"/>
	  <point x="289" y="410" type="curve" smooth="yes"/>
	  <point x="219" y="410"/>
	  <point x="145" y="362"/>
	  <point x="119" y="330" type="curve"/>
	</contour>
	<contour>
	  <point x="235" y="200" type="move" name="center"/>
	</contour>
	<contour>
	  <point x="122" y="511" type="move" name="top"/>
	</contour>
  </outline>
</glyph>
<glyph name="i" format="1">
  <advance width="242"/>
  <unicode hex="0069"/>
  <outline>
	<contour>
	  <point x="56" y="400" type="line"/>
	  <point x="56" y="0" type="line"/>
	  <point x="185" y="0" type="line"/>
	  <point x="185" y="400" type="line"/>
	</contour>
	<contour>
	  <point x="162" y="435"/>
	  <point x="196" y="467"/>
	  <point x="196" y="510" type="curve" smooth="yes"/>
	  <point x="196" y="553"/>
	  <point x="162" y="587"/>
	  <point x="120" y="587" type="curve" smooth="yes"/>
	  <point x="78" y="587"/>
	  <point x="44" y="553"/>
	  <point x="44" y="510" type="curve" smooth="yes"/>
	  <point x="44" y="469"/>
	  <point x="78" y="435"/>
	  <point x="120" y="435" type="curve" smooth="yes"/>
	</contour>
  </outline>
</glyph>
<glyph name="j" format="1">
  <advance width="243"/>
  <unicode hex="006A"/>
  <outline>
	<contour>
	  <point x="-79" y="-145" type="line"/>
	  <point x="-40" y="-161"/>
	  <point x="-3" y="-169"/>
	  <point x="29" y="-169" type="curve" smooth="yes"/>
	  <point x="138" y="-169"/>
	  <point x="186" y="-118"/>
	  <point x="186" y="-22" type="curve" smooth="yes"/>
	  <point x="186" y="400" type="line"/>
	  <point x="57" y="400" type="line"/>
	  <point x="57" y="-38" type="line" smooth="yes"/>
	  <point x="57" y="-67"/>
	  <point x="45" y="-93"/>
	  <point x="20" y="-93" type="curve" smooth="yes"/>
	  <point x="-11" y="-93"/>
	  <point x="-26" y="-78"/>
	  <point x="-42" y="-52" type="curve"/>
	</contour>
	<contour>
	  <point x="162" y="435"/>
	  <point x="196" y="467"/>
	  <point x="196" y="510" type="curve" smooth="yes"/>
	  <point x="196" y="553"/>
	  <point x="162" y="587"/>
	  <point x="120" y="587" type="curve" smooth="yes"/>
	  <point x="78" y="587"/>
	  <point x="44" y="553"/>
	  <point x="44" y="510" type="curve" smooth="yes"/>
	  <point x="44" y="469"/>
	  <point x="78" y="435"/>
	  <point x="120" y="435" type="curve" smooth="yes"/>
	</contour>
  </outline>
</glyph>
<glyph name="k" format="1">
  <advance width="426"/>
  <unicode hex="006B"/>
  <outline>
	<contour>
	  <point x="186" y="0" type="line"/>
	  <point x="186" y="539" type="line"/>
	  <point x="57" y="522" type="line"/>
	  <point x="57" y="0" type="line"/>
	</contour>
	<contour>
	  <point x="341" y="400" type="line"/>
	  <point x="116" y="154" type="line"/>
	  <point x="186" y="154" type="line"/>
	  <point x="414" y="400" type="line"/>
	</contour>
	<contour>
	  <point x="426" y="0" type="line"/>
	  <point x="256" y="254" type="line"/>
	  <point x="180" y="171" type="line"/>
	  <point x="288" y="0" type="line"/>
	</contour>
	<contour>
	  <point x="230" y="0" type="move" name="bottom"/>
	</contour>
  </outline>
</glyph>
<glyph name="m" format="1">
  <advance width="707"/>
  <unicode hex="006D"/>
  <outline>
	<contour>
	  <point x="115" y="400" type="line"/>
	  <point x="57" y="400" type="line"/>
	  <point x="57" y="0" type="line"/>
	  <point x="186" y="0" type="line"/>
	  <point x="186" y="341" type="line"/>
	</contour>
	<contour>
	  <point x="135" y="278" type="line"/>
	  <point x="155" y="298"/>
	  <point x="184" y="337"/>
	  <point x="241" y="337" type="curve" smooth="yes"/>
	  <point x="275" y="337"/>
	  <point x="293" y="320"/>
	  <point x="293" y="283" type="curve" smooth="yes"/>
	  <point x="293" y="0" type="line"/>
	  <point x="422" y="0" type="line"/>
	  <point x="422" y="281" type="line" smooth="yes"/>
	  <point x="422" y="349"/>
	  <point x="386" y="410"/>
	  <point x="289" y="410" type="curve" smooth="yes"/>
	  <point x="219" y="410"/>
	  <point x="145" y="362"/>
	  <point x="119" y="330" type="curve"/>
	</contour>
	<contour>
	  <point x="371" y="278" type="line"/>
	  <point x="390" y="298"/>
	  <point x="420" y="337"/>
	  <point x="476" y="337" type="curve" smooth="yes"/>
	  <point x="512" y="337"/>
	  <point x="528" y="320"/>
	  <point x="528" y="283" type="curve" smooth="yes"/>
	  <point x="528" y="0" type="line"/>
	  <point x="657" y="0" type="line"/>
	  <point x="657" y="281" type="line" smooth="yes"/>
	  <point x="657" y="349"/>
	  <point x="621" y="410"/>
	  <point x="525" y="410" type="curve" smooth="yes"/>
	  <point x="455" y="410"/>
	  <point x="381" y="362"/>
	  <point x="355" y="330" type="curve"/>
	</contour>
  </outline>
</glyph>
<glyph name="n" format="1">
  <advance width="470"/>
  <unicode hex="006E"/>
  <outline>
	<contour>
	  <point x="115" y="400" type="line"/>
	  <point x="57" y="400" type="line"/>
	  <point x="57" y="0" type="line"/>
	  <point x="186" y="0" type="line"/>
	  <point x="186" y="341" type="line"/>
	</contour>
	<contour>
	  <point x="135" y="275" type="line"/>
	  <point x="179" y="320"/>
	  <point x="212" y="337"/>
	  <point x="248" y="337" type="curve" smooth="yes"/>
	  <point x="281" y="337"/>
	  <point x="292" y="319"/>
	  <point x="292" y="263" type="curve" smooth="yes"/>
	  <point x="292" y="0" type="line"/>
	  <point x="421" y="0" type="line"/>
	  <point x="421" y="281" type="line" smooth="yes"/>
	  <point x="421" y="361"/>
	  <point x="372" y="410"/>
	  <point x="289" y="410" type="curve" smooth="yes"/>
	  <point x="232" y="410"/>
	  <point x="152" y="373"/>
	  <point x="119" y="330" type="curve"/>
	</contour>
	<contour>
	  <point x="235" y="400" type="move" name="top"/>
	</contour>
	<contour>
	  <point x="235" y="0" type="move" name="bottom"/>
	</contour>
  </outline>
</glyph>
<glyph name="o" format="1">
  <advance width="446"/>
  <unicode hex="006F"/>
  <outline>
	<contour>
	  <point x="378" y="-10"/>
	  <point x="414" y="92"/>
	  <point x="414" y="200" type="curve" smooth="yes"/>
	  <point x="414" y="309"/>
	  <point x="378" y="410"/>
	  <point x="223" y="410" type="curve" smooth="yes"/>
	  <point x="68" y="410"/>
	  <point x="32" y="309"/>
	  <point x="32" y="200" type="curve" smooth="yes"/>
	  <point x="32" y="92"/>
	  <point x="68" y="-10"/>
	  <point x="223" y="-10" type="curve" smooth="yes"/>
	</contour>
	<contour>
	  <point x="170" y="54"/>
	  <point x="161" y="105"/>
	  <point x="161" y="200" type="curve" smooth="yes"/>
	  <point x="161" y="296"/>
	  <point x="170" y="346"/>
	  <point x="223" y="346" type="curve" smooth="yes"/>
	  <point x="276" y="346"/>
	  <point x="285" y="296"/>
	  <point x="285" y="200" type="curve" smooth="yes"/>
	  <point x="285" y="105"/>
	  <point x="276" y="54"/>
	  <point x="223" y="54" type="curve" smooth="yes"/>
	</contour>
	<contour>
	  <point x="223" y="400" type="move" name="top"/>
	</contour>
  </outline>
</glyph>
<glyph name="s" format="1">
  <advance width="391"/>
  <unicode hex="0073"/>
  <outline>
	<contour>
	  <point x="217" y="257" type="line" smooth="yes"/>
	  <point x="172" y="271"/>
	  <point x="139" y="284"/>
	  <point x="139" y="313" type="curve" smooth="yes"/>
	  <point x="139" y="336"/>
	  <point x="160" y="346"/>
	  <point x="186" y="346" type="curve" smooth="yes"/>
	  <point x="226" y="346"/>
	  <point x="251" y="322"/>
	  <point x="256" y="275" type="curve"/>
	  <point x="364" y="281" type="line"/>
	  <point x="351" y="363"/>
	  <point x="303" y="410"/>
	  <point x="186" y="410" type="curve" smooth="yes"/>
	  <point x="101" y="410"/>
	  <point x="30" y="371"/>
	  <point x="30" y="286" type="curve" smooth="yes"/>
	  <point x="30" y="213"/>
	  <point x="69" y="178"/>
	  <point x="140" y="158" type="curve" smooth="yes"/>
	  <point x="175" y="147" type="line" smooth="yes"/>
	  <point x="238" y="130"/>
	  <point x="259" y="114"/>
	  <point x="259" y="93" type="curve" smooth="yes"/>
	  <point x="259" y="69"/>
	  <point x="235" y="54"/>
	  <point x="209" y="54" type="curve" smooth="yes"/>
	  <point x="162" y="54"/>
	  <point x="134" y="81"/>
	  <point x="130" y="129" type="curve"/>
	  <point x="23" y="121" type="line"/>
	  <point x="36" y="39"/>
	  <point x="83" y="-10"/>
	  <point x="209" y="-10" type="curve" smooth="yes"/>
	  <point x="294" y="-10"/>
	  <point x="368" y="32"/>
	  <point x="368" y="120" type="curve" smooth="yes"/>
	  <point x="368" y="192"/>
	  <point x="320" y="224"/>
	  <point x="250" y="245" type="curve" smooth="yes"/>
	</contour>
	<contour>
	  <point x="195" y="400" type="move" name="top"/>
	</contour>
	<contour>
	  <point x="204" y="0" type="move" name="bottom"/>
	</contour>
  </outline>
</glyph>
<glyph name="t" format="1">
  <advance width="276"/>
  <unicode hex="0074"/>
  <outline>
	<contour>
	  <point x="8" y="335" type="line"/>
	  <point x="271" y="335" type="line"/>
	  <point x="271" y="400" type="line"/>
	  <point x="8" y="400" type="line"/>
	</contour>
	<contour>
	  <point x="270" y="73" type="line"/>
	  <point x="257" y="66"/>
	  <point x="242" y="61"/>
	  <point x="225" y="61" type="curve" smooth="yes"/>
	  <point x="209" y="61"/>
	  <point x="197" y="68"/>
	  <point x="197" y="99" type="curve" smooth="yes"/>
	  <point x="197" y="497" type="line"/>
	  <point x="68" y="453" type="line"/>
	  <point x="68" y="124" type="line" smooth="yes"/>
	  <point x="68" y="71"/>
	  <point x="69" y="-10"/>
	  <point x="189" y="-10" type="curve" smooth="yes"/>
	  <point x="211" y="-10"/>
	  <point x="251" y="-4"/>
	  <point x="286" y="14" type="curve"/>
	</contour>
	<contour>
	  <point x="142" y="200" type="move" name="center"/>
	</contour>
	<contour>
	  <point x="142" y="0" type="move" name="bottom"/>
	</contour>
	<contour>
	  <point x="258" y="400" type="move" name="topright"/>
	</contour>
  </outline>
</glyph>
<glyph name="w" format="1">
  <advance width="555"/>
  <unicode hex="0077"/>
  <outline>
	<contour>
	  <point x="227" y="0" type="line"/>
	  <point x="320" y="400" type="line"/>
	  <point x="248" y="400" type="line"/>
	  <point x="163" y="0" type="line"/>
	</contour>
	<contour>
	  <point x="203" y="0" type="line"/>
	  <point x="132" y="400" type="line"/>
	  <point x="2" y="400" type="line"/>
	  <point x="83" y="0" type="line"/>
	</contour>
	<contour>
	  <point x="457" y="0" type="line"/>
	  <point x="552" y="400" type="line"/>
	  <point x="479" y="400" type="line"/>
	  <point x="395" y="0" type="line"/>
	</contour>
	<contour>
	  <point x="433" y="0" type="line"/>
	  <point x="362" y="400" type="line"/>
	  <point x="320" y="400" type="line"/>
	  <point x="250" y="318" type="line"/>
	  <point x="312" y="0" type="line"/>
	</contour>
	<contour>
	  <point x="280" y="400" type="move" name="top"/>
	</contour>
  </outline>
</glyph>
<glyph name="y" format="1">
  <advance width="387"/>
  <unicode hex="0079"/>
  <outline>
	<contour>
	  <point x="255" y="89" type="line"/>
	  <point x="128" y="400" type="line"/>
	  <point x="-1" y="400" type="line"/>
	  <point x="185" y="-30" type="line"/>
	</contour>
	<contour>
	  <point x="200" y="-169" type="line"/>
	  <point x="389" y="400" type="line"/>
	  <point x="316" y="400" type="line"/>
	  <point x="194" y="4" type="line"/>
	  <point x="105" y="-159" type="line"/>
	</contour>
	<contour>
	  <point x="221" y="400" type="move" name="top"/>
	</contour>
  </outline>
</glyph>
<glyph name="z" format="1">
  <advance width="349"/>
  <unicode hex="007A"/>
  <outline>
	<contour>
	  <point x="21" y="335" type="line"/>
	  <point x="237" y="335" type="line"/>
	  <point x="212" y="362" type="line"/>
	  <point x="17" y="75" type="line"/>
	  <point x="17" y="0" type="line"/>
	  <point x="332" y="0" type="line"/>
	  <point x="332" y="65" type="line"/>
	  <point x="112" y="65" type="line"/>
	  <point x="137" y="40" type="line"/>
	  <point x="328" y="325" type="line"/>
	  <point x="328" y="400" type="line"/>
	  <point x="21" y="400" type="line"/>
	</contour>
	<contour>
	  <point x="174" y="400" type="move" name="top"/>
	</contour>
  </outline>
</glyph>
<glyph name="braceleft" format="1">
  <advance width="256"/>
  <unicode hex="007B"/>
  <outline>
	<contour>
	  <point x="131" y="264" type="line"/>
	  <point x="161" y="264"/>
	  <point x="187" y="281"/>
	  <point x="187" y="314" type="curve" smooth="yes"/>
	  <point x="187" y="342"/>
	  <point x="180" y="358"/>
	  <point x="180" y="392" type="curve" smooth="yes"/>
	  <point x="180" y="445"/>
	  <point x="198" y="485"/>
	  <point x="249" y="485" type="curve"/>
	  <point x="249" y="536" type="line"/>
	  <point x="101" y="536"/>
	  <point x="48" y="473"/>
	  <point x="48" y="394" type="curve" smooth="yes"/>
	  <point x="48" y="366"/>
	  <point x="55" y="345"/>
	  <point x="55" y="321" type="curve" smooth="yes"/>
	  <point x="55" y="291"/>
	  <point x="23" y="282"/>
	  <point x="7" y="282" type="curve"/>
	  <point x="7" y="229" type="line"/>
	  <point x="23" y="229"/>
	  <point x="55" y="220"/>
	  <point x="55" y="190" type="curve" smooth="yes"/>
	  <point x="55" y="166"/>
	  <point x="48" y="145"/>
	  <point x="48" y="117" type="curve" smooth="yes"/>
	  <point x="48" y="38"/>
	  <point x="101" y="-25"/>
	  <point x="249" y="-25" type="curve"/>
	  <point x="249" y="26" type="line"/>
	  <point x="198" y="26"/>
	  <point x="180" y="69"/>
	  <point x="180" y="126" type="curve" smooth="yes"/>
	  <point x="180" y="163"/>
	  <point x="187" y="182"/>
	  <point x="187" y="211" type="curve" smooth="yes"/>
	  <point x="187" y="243"/>
	  <point x="161" y="260"/>
	  <point x="131" y="260" type="curve"/>
	</contour>
  </outline>
</glyph>
<glyph name="asciitilde" format="1">
  <advance width="406"/>
  <unicode hex="007E"/>
  <outline>
	<contour>
	  <point x="56" y="182" type="line"/>
	  <point x="75" y="170"/>
	  <point x="104" y="166"/>
	  <point x="123" y="166" type="curve" smooth="yes"/>
	  <point x="176" y="166"/>
	  <point x="230" y="196"/>
	  <point x="283" y="196" type="curve" smooth="yes"/>
	  <point x="302" y="196"/>
	  <point x="331" y="192"/>
	  <point x="350" y="182" type="curve"/>
	  <point x="350" y="264" type="line"/>
	  <point x="331" y="273"/>
	  <point x="302" y="277"/>
	  <point x="283" y="277" type="curve" smooth="yes"/>
	  <point x="230" y="277"/>
	  <point x="176" y="247"/>
	  <point x="123" y="247" type="curve" smooth="yes"/>
	  <point x="104" y="247"/>
	  <point x="75" y="250"/>
	  <point x="56" y="264" type="curve"/>
	</contour>
  </outline>
</glyph>
<glyph name="yen" format="1">
  <advance width="441"/>
  <unicode hex="00A5"/>
  <outline>
	<contour>
	  <point x="33" y="143" type="line"/>
	  <point x="409" y="143" type="line"/>
	  <point x="409" y="220" type="line"/>
	  <point x="33" y="220" type="line"/>
	</contour>
	<contour>
	  <point x="33" y="262" type="line"/>
	  <point x="175" y="262" type="line"/>
	  <point x="175" y="338" type="line"/>
	  <point x="33" y="338" type="line"/>
	</contour>
	<contour>
	  <point x="301" y="262" type="line"/>
	  <point x="409" y="262" type="line"/>
	  <point x="409" y="338" type="line"/>
	  <point x="301" y="338" type="line"/>
	</contour>
	<contour>
	  <point x="155" y="214" type="line"/>
	  <point x="155" y="0" type="line"/>
	  <point x="286" y="0" type="line"/>
	  <point x="286" y="214" type="line"/>
	</contour>
	<contour>
	  <point x="275" y="176" type="line"/>
	  <point x="127" y="511" type="line"/>
	  <point x="-2" y="511" type="line"/>
	  <point x="156" y="175" type="line"/>
	</contour>
	<contour>
	  <point x="284" y="175" type="line"/>
	  <point x="443" y="511" type="line"/>
	  <point x="367" y="511" type="line"/>
	  <point x="210" y="176" type="line"/>
	</contour>
  </outline>
</glyph>
<glyph name="brokenbar" format="1">
  <advance width="245"/>
  <unicode hex="00A6"/>
  <outline>
	<contour>
	  <point x="54" y="282" type="line"/>
	  <point x="191" y="282" type="line"/>
	  <point x="191" y="543" type="line"/>
	  <point x="54" y="543" type="line"/>
	</contour>
	<contour>
	  <point x="54" y="-74" type="line"/>
	  <point x="191" y="-74" type="line"/>
	  <point x="191" y="187" type="line"/>
	  <point x="54" y="187" type="line"/>
	</contour>
  </outline>
</glyph>
<glyph name="section" format="1">
  <advance width="362"/>
  <unicode hex="00A7"/>
  <outline>
	<contour>
	  <point x="208" y="393" type="line"/>
	  <point x="198" y="406"/>
	  <point x="196" y="410"/>
	  <point x="196" y="435" type="curve" smooth="yes"/>
	  <point x="196" y="466"/>
	  <point x="240" y="483"/>
	  <point x="272" y="489" type="curve"/>
	  <point x="240" y="580" type="line"/>
	  <point x="128" y="554"/>
	  <point x="67" y="500"/>
	  <point x="67" y="418" type="curve" smooth="yes"/>
	  <point x="67" y="381"/>
	  <point x="81" y="341"/>
	  <point x="117" y="300" type="curve" smooth="yes"/>
	  <point x="202" y="199" type="line" smooth="yes"/>
	  <point x="224" y="174"/>
	  <point x="226" y="168"/>
	  <point x="226" y="147" type="curve" smooth="yes"/>
	  <point x="226" y="113"/>
	  <point x="180" y="97"/>
	  <point x="150" y="91" type="curve"/>
	  <point x="180" y="0" type="line"/>
	  <point x="290" y="25"/>
	  <point x="354" y="85"/>
	  <point x="354" y="161" type="curve" smooth="yes"/>
	  <point x="354" y="198"/>
	  <point x="345" y="241"/>
	  <point x="301" y="282" type="curve" smooth="yes"/>
	</contour>
	<contour>
	  <point x="149" y="173" type="line" smooth="yes"/>
	  <point x="139" y="186"/>
	  <point x="137" y="191"/>
	  <point x="137" y="213" type="curve" smooth="yes"/>
	  <point x="137" y="244"/>
	  <point x="181" y="262"/>
	  <point x="213" y="268" type="curve"/>
	  <point x="181" y="360" type="line"/>
	  <point x="72" y="334"/>
	  <point x="8" y="274"/>
	  <point x="8" y="198" type="curve" smooth="yes"/>
	  <point x="8" y="161"/>
	  <point x="22" y="121"/>
	  <point x="58" y="80" type="curve" smooth="yes"/>
	  <point x="143" y="-21" type="line" smooth="yes"/>
	  <point x="165" y="-46"/>
	  <point x="167" y="-51"/>
	  <point x="167" y="-76" type="curve" smooth="yes"/>
	  <point x="167" y="-107"/>
	  <point x="121" y="-124"/>
	  <point x="91" y="-130" type="curve"/>
	  <point x="121" y="-220" type="line"/>
	  <point x="234" y="-195"/>
	  <point x="295" y="-141"/>
	  <point x="295" y="-59" type="curve" smooth="yes"/>
	  <point x="295" y="-22"/>
	  <point x="286" y="23"/>
	  <point x="242" y="62" type="curve" smooth="yes"/>
	</contour>
  </outline>
</glyph>
<glyph name="dieresis" format="1">
  <advance width="318"/>
  <unicode hex="00A8"/>
  <outline>
	<contour>
	  <point x="106" y="441"/>
	  <point x="137" y="473"/>
	  <point x="137" y="510" type="curve" smooth="yes"/>
	  <point x="137" y="548"/>
	  <point x="106" y="579"/>
	  <point x="69" y="579" type="curve" smooth="yes"/>
	  <point x="31" y="579"/>
	  <point x="1" y="548"/>
	  <point x="1" y="510" type="curve" smooth="yes"/>
	  <point x="1" y="474"/>
	  <point x="31" y="441"/>
	  <point x="69" y="441" type="curve" smooth="yes"/>
	</contour>
	<contour>
	  <point x="287" y="441"/>
	  <point x="318" y="473"/>
	  <point x="318" y="510" type="curve" smooth="yes"/>
	  <point x="318" y="548"/>
	  <point x="287" y="579"/>
	  <point x="249" y="579" type="curve" smooth="yes"/>
	  <point x="212" y="579"/>
	  <point x="181" y="548"/>
	  <point x="181" y="510" type="curve" smooth="yes"/>
	  <point x="181" y="474"/>
	  <point x="212" y="441"/>
	  <point x="249" y="441" type="curve" smooth="yes"/>
	</contour>
	<contour>
	  <point x="159" y="400" type="move" name="_top"/>
	</contour>
  </outline>
</glyph>
<glyph name="copyright" format="1">
  <advance width="519"/>
  <unicode hex="00A9"/>
  <outline>
	<contour>
	  <point x="369" y="442" type="line"/>
	  <point x="364" y="504"/>
	  <point x="331" y="538"/>
	  <point x="260" y="538" type="curve" smooth="yes"/>
	  <point x="181" y="538"/>
	  <point x="151" y="485"/>
	  <point x="151" y="393" type="curve" smooth="yes"/>
	  <point x="151" y="301"/>
	  <point x="176" y="246"/>
	  <point x="260" y="246" type="curve" smooth="yes"/>
	  <point x="338" y="246"/>
	  <point x="367" y="290"/>
	  <point x="370" y="357" type="curve"/>
	  <point x="311" y="359" type="line"/>
	  <point x="309" y="323"/>
	  <point x="300" y="297"/>
	  <point x="264" y="297" type="curve" smooth="yes"/>
	  <point x="231" y="297"/>
	  <point x="218" y="339"/>
	  <point x="218" y="393" type="curve" smooth="yes"/>
	  <point x="218" y="447"/>
	  <point x="234" y="489"/>
	  <point x="263" y="489" type="curve" smooth="yes"/>
	  <point x="297" y="489"/>
	  <point x="306" y="471"/>
	  <point x="309" y="437" type="curve"/>
	</contour>
	<contour>
	  <point x="23" y="239"/>
	  <point x="106" y="157"/>
	  <point x="259" y="157" type="curve" smooth="yes"/>
	  <point x="412" y="157"/>
	  <point x="494" y="239"/>
	  <point x="494" y="392" type="curve" smooth="yes"/>
	  <point x="494" y="545"/>
	  <point x="412" y="628"/>
	  <point x="259" y="628" type="curve" smooth="yes"/>
	  <point x="106" y="628"/>
	  <point x="23" y="545"/>
	  <point x="23" y="392" type="curve" smooth="yes"/>
	</contour>
	<contour>
	  <point x="87" y="505"/>
	  <point x="142" y="568"/>
	  <point x="259" y="568" type="curve" smooth="yes"/>
	  <point x="375" y="568"/>
	  <point x="431" y="505"/>
	  <point x="431" y="392" type="curve" smooth="yes"/>
	  <point x="431" y="279"/>
	  <point x="375" y="217"/>
	  <point x="259" y="217" type="curve" smooth="yes"/>
	  <point x="142" y="217"/>
	  <point x="87" y="279"/>
	  <point x="87" y="392" type="curve" smooth="yes"/>
	</contour>
  </outline>
</glyph>
<glyph name="ordfeminine" format="1">
  <advance width="301"/>
  <unicode hex="00AA"/>
  <outline>
	<contour>
	  <point x="120" y="423" type="line"/>
	  <point x="123" y="486"/>
	  <point x="135" y="489"/>
	  <point x="151" y="489" type="curve" smooth="yes"/>
	  <point x="166" y="489"/>
	  <point x="172" y="474"/>
	  <point x="172" y="434" type="curve" smooth="yes"/>
	  <point x="172" y="407" type="line"/>
	  <point x="119" y="402" type="line" smooth="yes"/>
	  <point x="51" y="394"/>
	  <point x="20" y="361"/>
	  <point x="20" y="318" type="curve" smooth="yes"/>
	  <point x="20" y="270"/>
	  <point x="46" y="238"/>
	  <point x="103" y="238" type="curve" smooth="yes"/>
	  <point x="145" y="238"/>
	  <point x="168" y="252"/>
	  <point x="190" y="269" type="curve"/>
	  <point x="221" y="245" type="line"/>
	  <point x="279" y="245" type="line"/>
	  <point x="279" y="435" type="line" smooth="yes"/>
	  <point x="279" y="515"/>
	  <point x="209" y="532"/>
	  <point x="151" y="532" type="curve" smooth="yes"/>
	  <point x="88" y="532"/>
	  <point x="40" y="503"/>
	  <point x="34" y="444" type="curve"/>
	</contour>
	<contour>
	  <point x="131" y="289"/>
	  <point x="117" y="300"/>
	  <point x="117" y="321" type="curve" smooth="yes"/>
	  <point x="117" y="332"/>
	  <point x="120" y="370"/>
	  <point x="161" y="374" type="curve" smooth="yes"/>
	  <point x="172" y="374" type="line"/>
	  <point x="172" y="289" type="line"/>
	  <point x="173" y="291"/>
	  <point x="165" y="289"/>
	  <point x="151" y="289" type="curve" smooth="yes"/>
	</contour>
	<contour>
	  <point x="15" y="125" type="line"/>
	  <point x="282" y="125" type="line"/>
	  <point x="282" y="198" type="line"/>
	  <point x="15" y="198" type="line"/>
	</contour>
  </outline>
</glyph>
<glyph name="guillemotleft" format="1">
  <advance width="377"/>
  <unicode hex="00AB"/>
  <outline>
	<contour>
	  <point x="188" y="326" type="line"/>
	  <point x="149" y="367" type="line"/>
	  <point x="15" y="242" type="line"/>
	  <point x="15" y="199" type="line"/>
	  <point x="149" y="74" type="line"/>
	  <point x="188" y="115" type="line"/>
	  <point x="114" y="221" type="line"/>
	</contour>
	<contour>
	  <point x="362" y="326" type="line"/>
	  <point x="322" y="367" type="line"/>
	  <point x="189" y="242" type="line"/>
	  <point x="189" y="199" type="line"/>
	  <point x="322" y="74" type="line"/>
	  <point x="362" y="115" type="line"/>
	  <point x="286" y="221" type="line"/>
	</contour>
  </outline>
</glyph>
<glyph name="registered" format="1">
  <advance width="519"/>
  <unicode hex="00AE"/>
  <outline>
	<contour>
	  <point x="23" y="239"/>
	  <point x="106" y="157"/>
	  <point x="259" y="157" type="curve" smooth="yes"/>
	  <point x="412" y="157"/>
	  <point x="494" y="239"/>
	  <point x="494" y="392" type="curve" smooth="yes"/>
	  <point x="494" y="545"/>
	  <point x="412" y="628"/>
	  <point x="259" y="628" type="curve" smooth="yes"/>
	  <point x="106" y="628"/>
	  <point x="23" y="545"/>
	  <point x="23" y="392" type="curve" smooth="yes"/>
	</contour>
	<contour>
	  <point x="87" y="505"/>
	  <point x="142" y="568"/>
	  <point x="259" y="568" type="curve" smooth="yes"/>
	  <point x="375" y="568"/>
	  <point x="431" y="505"/>
	  <point x="431" y="392" type="curve" smooth="yes"/>
	  <point x="431" y="279"/>
	  <point x="375" y="217"/>
	  <point x="259" y="217" type="curve" smooth="yes"/>
	  <point x="142" y="217"/>
	  <point x="87" y="279"/>
	  <point x="87" y="392" type="curve" smooth="yes"/>
	</contour>
	<contour>
	  <point x="168" y="533" type="line"/>
	  <point x="168" y="252" type="line"/>
	  <point x="234" y="252" type="line"/>
	  <point x="234" y="358" type="line"/>
	  <point x="248" y="358" type="line" smooth="yes"/>
	  <point x="256" y="358"/>
	  <point x="260" y="354"/>
	  <point x="264" y="343" type="curve" smooth="yes"/>
	  <point x="303" y="252" type="line"/>
	  <point x="373" y="252" type="line"/>
	  <point x="332" y="344" type="line" smooth="yes"/>
	  <point x="327" y="355"/>
	  <point x="321" y="363"/>
	  <point x="315" y="369" type="curve"/>
	  <point x="356" y="381"/>
	  <point x="361" y="422"/>
	  <point x="361" y="450" type="curve" smooth="yes"/>
	  <point x="361" y="484"/>
	  <point x="352" y="533"/>
	  <point x="264" y="533" type="curve" smooth="yes"/>
	</contour>
	<contour>
	  <point x="233" y="406" type="line"/>
	  <point x="233" y="484" type="line"/>
	  <point x="262" y="484" type="line" smooth="yes"/>
	  <point x="290" y="484"/>
	  <point x="293" y="462"/>
	  <point x="293" y="446" type="curve" smooth="yes"/>
	  <point x="293" y="429"/>
	  <point x="290" y="406"/>
	  <point x="262" y="406" type="curve" smooth="yes"/>
	</contour>
  </outline>
</glyph>
<glyph name="twosuperior" format="1">
  <advance width="321"/>
  <unicode hex="00B2"/>
  <outline>
	<contour>
	  <point x="127" y="457" type="line"/>
	  <point x="129" y="508"/>
	  <point x="137" y="529"/>
	  <point x="159" y="529" type="curve" smooth="yes"/>
	  <point x="175" y="529"/>
	  <point x="182" y="515"/>
	  <point x="182" y="491" type="curve" smooth="yes"/>
	  <point x="182" y="456"/>
	  <point x="179" y="433"/>
	  <point x="142" y="407" type="curve" smooth="yes"/>
	  <point x="44" y="339" type="line"/>
	  <point x="44" y="280" type="line"/>
	  <point x="276" y="280" type="line"/>
	  <point x="276" y="351" type="line"/>
	  <point x="145" y="351" type="line"/>
	  <point x="228" y="407" type="line" smooth="yes"/>
	  <point x="271" y="437"/>
	  <point x="277" y="464"/>
	  <point x="277" y="491" type="curve" smooth="yes"/>
	  <point x="277" y="538"/>
	  <point x="234" y="566"/>
	  <point x="159" y="566" type="curve" smooth="yes"/>
	  <point x="86" y="566"/>
	  <point x="50" y="537"/>
	  <point x="45" y="469" type="curve"/>
	</contour>
  </outline>
</glyph>
<glyph name="acute" format="1">
  <advance width="200"/>
  <unicode hex="00B4"/>
  <outline>
	<contour>
	  <point x="75" y="438" type="line"/>
	  <point x="218" y="533" type="line"/>
	  <point x="144" y="618" type="line"/>
	  <point x="50" y="467" type="line"/>
	</contour>
	<contour>
	  <point x="107" y="400" type="move" name="_top"/>
	</contour>
  </outline>
</glyph>
<glyph name="mu" format="1">
  <advance width="468"/>
  <unicode hex="00B5"/>
  <outline>
	<contour>
	  <point x="154" y="59"/>
	  <point x="188" y="-10"/>
	  <point x="286" y="-10" type="curve" smooth="yes"/>
	  <point x="391" y="-10"/>
	  <point x="418" y="52"/>
	  <point x="418" y="117" type="curve" smooth="yes"/>
	  <point x="418" y="400" type="line"/>
	  <point x="289" y="400" type="line"/>
	  <point x="289" y="133" type="line" smooth="yes"/>
	  <point x="289" y="89"/>
	  <point x="281" y="57"/>
	  <point x="240" y="57" type="curve" smooth="yes"/>
	  <point x="196" y="57"/>
	  <point x="166" y="96"/>
	  <point x="127" y="190" type="curve"/>
	  <point x="123" y="111" type="line"/>
	</contour>
	<contour>
	  <point x="186" y="400" type="line"/>
	  <point x="57" y="400" type="line"/>
	  <point x="57" y="-169" type="line"/>
	  <point x="140" y="-169" type="line"/>
	  <point x="186" y="56" type="line"/>
	</contour>
  </outline>
</glyph>
<glyph name="cedilla" format="1">
  <advance width="187"/>
  <unicode hex="00B8"/>
  <outline>
	<contour>
	  <point x="116" y="4" type="line"/>
	  <point x="64" y="4" type="line"/>
	  <point x="46" y="-62" type="line"/>
	  <point x="98" y="-71"/>
	  <point x="108" y="-88"/>
	  <point x="108" y="-109" type="curve" smooth="yes"/>
	  <point x="108" y="-122"/>
	  <point x="103" y="-133"/>
	  <point x="91" y="-133" type="curve" smooth="yes"/>
	  <point x="82" y="-133"/>
	  <point x="72" y="-119"/>
	  <point x="72" y="-93" type="curve"/>
	  <point x="5" y="-101" type="line"/>
	  <point x="5" y="-152"/>
	  <point x="35" y="-176"/>
	  <point x="92" y="-176" type="curve" smooth="yes"/>
	  <point x="159" y="-176"/>
	  <point x="180" y="-137"/>
	  <point x="180" y="-96" type="curve" smooth="yes"/>
	  <point x="180" y="-54"/>
	  <point x="148" y="-32"/>
	  <point x="106" y="-26" type="curve"/>
	</contour>
	<contour>
	  <point x="86" y="0" type="move" name="_bottom"/>
	</contour>
  </outline>
</glyph>
<glyph name="ordmasculine" format="1">
  <advance width="311"/>
  <unicode hex="00BA"/>
  <outline>
	<contour>
	  <point x="22" y="125" type="line"/>
	  <point x="289" y="125" type="line"/>
	  <point x="289" y="198" type="line"/>
	  <point x="22" y="198" type="line"/>
	</contour>
	<contour>
	  <point x="128" y="280"/>
	  <point x="121" y="304"/>
	  <point x="121" y="385" type="curve" smooth="yes"/>
	  <point x="121" y="466"/>
	  <point x="128" y="490"/>
	  <point x="154" y="490" type="curve" smooth="yes"/>
	  <point x="183" y="490"/>
	  <point x="188" y="466"/>
	  <point x="188" y="385" type="curve" smooth="yes"/>
	  <point x="188" y="304"/>
	  <point x="183" y="280"/>
	  <point x="154" y="280" type="curve" smooth="yes"/>
	</contour>
	<contour>
	  <point x="269" y="238"/>
	  <point x="296" y="309"/>
	  <point x="296" y="385" type="curve" smooth="yes"/>
	  <point x="296" y="461"/>
	  <point x="269" y="532"/>
	  <point x="154" y="532" type="curve" smooth="yes"/>
	  <point x="42" y="532"/>
	  <point x="15" y="461"/>
	  <point x="15" y="385" type="curve" smooth="yes"/>
	  <point x="15" y="309"/>
	  <point x="42" y="238"/>
	  <point x="154" y="238" type="curve" smooth="yes"/>
	</contour>
  </outline>
</glyph>
<glyph name="AE" format="1">
  <advance width="672"/>
  <unicode hex="00C6"/>
  <outline>
	<contour>
	  <point x="224" y="511" type="line"/>
	  <point x="11" y="0" type="line"/>
	  <point x="85" y="0" type="line"/>
	  <point x="295" y="511" type="line"/>
	</contour>
	<contour>
	  <point x="137" y="215" type="line"/>
	  <point x="623" y="215" type="line"/>
	  <point x="623" y="277" type="line"/>
	  <point x="137" y="277" type="line"/>
	</contour>
	<contour>
	  <point x="337" y="448" type="line"/>
	  <point x="643" y="448" type="line"/>
	  <point x="643" y="511" type="line"/>
	  <point x="337" y="511" type="line"/>
	  <point x="337" y="0" type="line"/>
	  <point x="468" y="0" type="line"/>
	  <point x="468" y="448" type="line"/>
	</contour>
	<contour>
	  <point x="337" y="0" type="line"/>
	  <point x="657" y="0" type="line"/>
	  <point x="657" y="63" type="line"/>
	  <point x="337" y="63" type="line"/>
	</contour>
	<contour>
	  <point x="250" y="449" type="line"/>
	  <point x="337" y="449" type="line"/>
	  <point x="337" y="511" type="line"/>
	  <point x="250" y="511" type="line"/>
	</contour>
	<contour>
	  <point x="420" y="511" type="move" name="top"/>
	</contour>
  </outline>
</glyph>
<glyph name="multiply" format="1">
  <advance width="406"/>
  <unicode hex="00D7"/>
  <outline>
	<contour>
	  <point x="115" y="76" type="line"/>
	  <point x="203" y="164" type="line"/>
	  <point x="291" y="76" type="line"/>
	  <point x="349" y="135" type="line"/>
	  <point x="262" y="223" type="line"/>
	  <point x="349" y="310" type="line"/>
	  <point x="291" y="368" type="line"/>
	  <point x="203" y="281" type="line"/>
	  <point x="115" y="368" type="line"/>
	  <point x="58" y="310" type="line"/>
	  <point x="144" y="223" type="line"/>
	  <point x="58" y="135" type="line"/>
	</contour>
  </outline>
</glyph>
<glyph name="Thorn" format="1">
  <advance width="424"/>
  <unicode hex="00DE"/>
  <outline>
	<contour>
	  <point x="57" y="520" type="line"/>
	  <point x="57" y="0" type="line"/>
	  <point x="187" y="0" type="line"/>
	  <point x="187" y="520" type="line"/>
	</contour>
	<contour>
	  <point x="260" y="92" type="line" smooth="yes"/>
	  <point x="390" y="92"/>
	  <point x="429" y="173"/>
	  <point x="429" y="259" type="curve" smooth="yes"/>
	  <point x="429" y="347"/>
	  <point x="390" y="428"/>
	  <point x="260" y="428" type="curve" smooth="yes"/>
	  <point x="57" y="428" type="line"/>
	  <point x="57" y="92" type="line"/>
	</contour>
	<contour>
	  <point x="187" y="139" type="line"/>
	  <point x="187" y="381" type="line"/>
	  <point x="235" y="381" type="line" smooth="yes"/>
	  <point x="276" y="381"/>
	  <point x="299" y="341"/>
	  <point x="299" y="259" type="curve" smooth="yes"/>
	  <point x="299" y="179"/>
	  <point x="276" y="139"/>
	  <point x="235" y="139" type="curve" smooth="yes"/>
	</contour>
  </outline>
</glyph>
<glyph name="ae" format="1">
  <advance width="639"/>
  <unicode hex="00E6"/>
  <outline>
	<contour>
	  <point x="558" y="-10"/>
	  <point x="596" y="44"/>
	  <point x="603" y="114" type="curve"/>
	  <point x="497" y="117" type="line"/>
	  <point x="497" y="84"/>
	  <point x="483" y="54"/>
	  <point x="440" y="54" type="curve" smooth="yes"/>
	  <point x="398" y="54"/>
	  <point x="374" y="78"/>
	  <point x="374" y="184" type="curve" smooth="yes"/>
	  <point x="374" y="323"/>
	  <point x="393" y="346"/>
	  <point x="430" y="346" type="curve" smooth="yes"/>
	  <point x="472" y="346"/>
	  <point x="484" y="298"/>
	  <point x="484" y="196" type="curve"/>
	  <point x="607" y="196" type="line"/>
	  <point x="607" y="302"/>
	  <point x="579" y="410"/>
	  <point x="430" y="410" type="curve" smooth="yes"/>
	  <point x="281" y="410"/>
	  <point x="245" y="309"/>
	  <point x="245" y="200" type="curve" smooth="yes"/>
	  <point x="245" y="64"/>
	  <point x="295" y="-10"/>
	  <point x="433" y="-10" type="curve" smooth="yes"/>
	</contour>
	<contour>
	  <point x="165" y="57"/>
	  <point x="148" y="76"/>
	  <point x="148" y="106" type="curve" smooth="yes"/>
	  <point x="148" y="146"/>
	  <point x="170" y="169"/>
	  <point x="216" y="178" type="curve" smooth="yes"/>
	  <point x="262" y="187" type="line"/>
	  <point x="262" y="90" type="line"/>
	  <point x="247" y="74"/>
	  <point x="223" y="57"/>
	  <point x="195" y="57" type="curve" smooth="yes"/>
	</contour>
	<contour>
	  <point x="195" y="-10"/>
	  <point x="248" y="4"/>
	  <point x="288" y="63" type="curve"/>
	  <point x="367" y="63" type="line"/>
	  <point x="367" y="271" type="line"/>
	  <point x="262" y="270" type="line"/>
	  <point x="262" y="239" type="line"/>
	  <point x="197" y="227" type="line" smooth="yes"/>
	  <point x="91" y="208"/>
	  <point x="32" y="176"/>
	  <point x="32" y="99" type="curve" smooth="yes"/>
	  <point x="32" y="33"/>
	  <point x="77" y="-10"/>
	  <point x="147" y="-10" type="curve" smooth="yes"/>
	</contour>
	<contour>
	  <point x="160" y="321"/>
	  <point x="180" y="346"/>
	  <point x="216" y="346" type="curve"/>
	  <point x="243" y="346"/>
	  <point x="259" y="321"/>
	  <point x="262" y="280" type="curve"/>
	  <point x="372" y="331" type="line"/>
	  <point x="346" y="384"/>
	  <point x="294" y="410"/>
	  <point x="217" y="410" type="curve"/>
	  <point x="98" y="410"/>
	  <point x="57" y="361"/>
	  <point x="50" y="270" type="curve"/>
	  <point x="157" y="258" type="line"/>
	</contour>
	<contour>
	  <point x="607" y="181" type="line"/>
	  <point x="607" y="196" type="line"/>
	  <point x="603" y="245" type="line"/>
	  <point x="291" y="245" type="line"/>
	  <point x="291" y="181" type="line"/>
	</contour>
	<contour>
	  <point x="578" y="7" type="move" name="ogonek"/>
	</contour>
	<contour>
	  <point x="425" y="0" type="move" name="bottom"/>
	</contour>
	<contour>
	  <point x="425" y="400" type="move" name="top"/>
	</contour>
  </outline>
</glyph>
<glyph name="thorn" format="1">
  <advance width="461"/>
  <unicode hex="00FE"/>
  <outline>
	<contour>
	  <point x="186" y="539" type="line"/>
	  <point x="57" y="522" type="line"/>
	  <point x="57" y="-169" type="line"/>
	  <point x="186" y="-152" type="line"/>
	</contour>
	<contour>
	  <point x="277" y="337"/>
	  <point x="300" y="284"/>
	  <point x="300" y="200" type="curve" smooth="yes"/>
	  <point x="300" y="102"/>
	  <point x="277" y="54"/>
	  <point x="221" y="54" type="curve" smooth="yes"/>
	  <point x="189" y="54"/>
	  <point x="160" y="51"/>
	  <point x="115" y="85" type="curve"/>
	  <point x="98" y="35" type="line"/>
	  <point x="142" y="-4"/>
	  <point x="215" y="-10"/>
	  <point x="258" y="-10" type="curve" smooth="yes"/>
	  <point x="397" y="-10"/>
	  <point x="429" y="92"/>
	  <point x="429" y="200" type="curve" smooth="yes"/>
	  <point x="429" y="309"/>
	  <point x="397" y="410"/>
	  <point x="256" y="410" type="curve" smooth="yes"/>
	  <point x="190" y="410"/>
	  <point x="127" y="362"/>
	  <point x="105" y="333" type="curve"/>
	  <point x="118" y="283" type="line"/>
	  <point x="149" y="315"/>
	  <point x="179" y="337"/>
	  <point x="216" y="337" type="curve" smooth="yes"/>
	</contour>
  </outline>
</glyph>
<glyph name="dotlessi" format="1">
  <advance width="243"/>
  <unicode hex="0131"/>
  <outline>
	<contour>
	  <point x="57" y="400" type="line"/>
	  <point x="57" y="0" type="line"/>
	  <point x="186" y="0" type="line"/>
	  <point x="186" y="400" type="line"/>
	</contour>
	<contour>
	  <point x="211" y="7" type="move" name="ogonek"/>
	</contour>
	<contour>
	  <point x="121" y="400" type="move" name="top"/>
	</contour>
  </outline>
</glyph>
<glyph name="eng" format="1">
  <advance width="470"/>
  <unicode hex="014B"/>
  <outline>
	<contour>
	  <point x="155" y="-145" type="line"/>
	  <point x="194" y="-161"/>
	  <point x="231" y="-169"/>
	  <point x="263" y="-169" type="curve" smooth="yes"/>
	  <point x="372" y="-169"/>
	  <point x="420" y="-118"/>
	  <point x="420" y="-22" type="curve" smooth="yes"/>
	  <point x="420" y="1" type="line"/>
	  <point x="291" y="1" type="line"/>
	  <point x="291" y="-48" type="line" smooth="yes"/>
	  <point x="291" y="-73"/>
	  <point x="278" y="-93"/>
	  <point x="249" y="-93" type="curve" smooth="yes"/>
	  <point x="227" y="-93"/>
	  <point x="207" y="-78"/>
	  <point x="193" y="-52" type="curve"/>
	</contour>
	<component base="n"/>
  </outline>
</glyph>
<glyph name="florin" format="1">
  <advance width="441"/>
  <unicode hex="0192"/>
  <outline>
	<contour>
	  <point x="236" y="-153"/>
	  <point x="264" y="-101"/>
	  <point x="264" y="32" type="curve" smooth="yes"/>
	  <point x="264" y="400" type="line"/>
	  <point x="264" y="425"/>
	  <point x="277" y="444"/>
	  <point x="304" y="444" type="curve" smooth="yes"/>
	  <point x="333" y="444"/>
	  <point x="349" y="429"/>
	  <point x="363" y="404" type="curve"/>
	  <point x="400" y="496" type="line"/>
	  <point x="362" y="513"/>
	  <point x="324" y="521"/>
	  <point x="294" y="521" type="curve" smooth="yes"/>
	  <point x="183" y="521"/>
	  <point x="135" y="470"/>
	  <point x="135" y="374" type="curve"/>
	  <point x="135" y="33" type="line" smooth="yes"/>
	  <point x="135" y="-67"/>
	  <point x="129" y="-102"/>
	  <point x="55" y="-102" type="curve"/>
	  <point x="64" y="-153" type="line"/>
	</contour>
	<contour>
	  <point x="365" y="197" type="line"/>
	  <point x="365" y="284" type="line"/>
	  <point x="72" y="284" type="line"/>
	  <point x="72" y="197" type="line"/>
	</contour>
  </outline>
</glyph>
<glyph name="caron" format="1">
  <advance width="265"/>
  <unicode hex="02C7"/>
  <outline>
	<contour>
	  <point x="103" y="434" type="line"/>
	  <point x="163" y="434" type="line"/>
	  <point x="243" y="567" type="line"/>
	  <point x="209" y="597" type="line"/>
	  <point x="132" y="530" type="line"/>
	  <point x="57" y="597" type="line"/>
	  <point x="22" y="567" type="line"/>
	</contour>
	<contour>
	  <point x="132" y="400" type="move" name="_top"/>
	</contour>
  </outline>
</glyph>
<glyph name="dotaccent" format="1">
  <advance width="242"/>
  <unicode hex="02D9"/>
  <outline>
	<contour>
	  <point x="163" y="435"/>
	  <point x="197" y="467"/>
	  <point x="197" y="510" type="curve" smooth="yes"/>
	  <point x="197" y="553"/>
	  <point x="163" y="587"/>
	  <point x="121" y="587" type="curve" smooth="yes"/>
	  <point x="79" y="587"/>
	  <point x="45" y="553"/>
	  <point x="45" y="510" type="curve" smooth="yes"/>
	  <point x="45" y="469"/>
	  <point x="79" y="435"/>
	  <point x="121" y="435" type="curve" smooth="yes"/>
	</contour>
	<contour>
	  <point x="121" y="400" type="move" name="_top"/>
	</contour>
  </outline>
</glyph>
<glyph name="ring" format="1">
  <advance width="197"/>
  <unicode hex="02DA"/>
  <outline>
	<contour>
	  <point x="171" y="428"/>
	  <point x="186" y="476"/>
	  <point x="186" y="514" type="curve" smooth="yes"/>
	  <point x="186" y="549"/>
	  <point x="171" y="599"/>
	  <point x="97" y="599" type="curve" smooth="yes"/>
	  <point x="24" y="599"/>
	  <point x="11" y="549"/>
	  <point x="11" y="514" type="curve" smooth="yes"/>
	  <point x="11" y="476"/>
	  <point x="24" y="428"/>
	  <point x="97" y="428" type="curve" smooth="yes"/>
	</contour>
	<contour>
	  <point x="73" y="497"/>
	  <point x="73" y="514" type="curve" smooth="yes"/>
	  <point x="73" y="532"/>
	  <point x="77" y="559"/>
	  <point x="98" y="559" type="curve" smooth="yes"/>
	  <point x="121" y="559"/>
	  <point x="125" y="532"/>
	  <point x="125" y="514" type="curve" smooth="yes"/>
	  <point x="125" y="497"/>
	  <point x="121" y="470"/>
	  <point x="98" y="470" type="curve" smooth="yes"/>
	  <point x="77" y="470"/>
	</contour>
	<contour>
	  <point x="99" y="400" type="move" name="_top"/>
	</contour>
  </outline>
</glyph>
<glyph name="tilde" format="1">
  <advance width="267"/>
  <unicode hex="02DC"/>
  <outline>
	<contour>
	  <point x="220" y="457"/>
	  <point x="256" y="482"/>
	  <point x="264" y="558" type="curve"/>
	  <point x="224" y="572" type="line"/>
	  <point x="218" y="552"/>
	  <point x="206" y="541"/>
	  <point x="184" y="541" type="curve" smooth="yes"/>
	  <point x="149" y="541"/>
	  <point x="128" y="567"/>
	  <point x="79" y="567" type="curve" smooth="yes"/>
	  <point x="46" y="567"/>
	  <point x="11" y="544"/>
	  <point x="2" y="464" type="curve"/>
	  <point x="42" y="450" type="line"/>
	  <point x="49" y="472"/>
	  <point x="63" y="484"/>
	  <point x="83" y="484" type="curve" smooth="yes"/>
	  <point x="117" y="484"/>
	  <point x="138" y="457"/>
	  <point x="188" y="457" type="curve" smooth="yes"/>
	</contour>
	<contour>
	  <point x="134" y="400" type="move" name="_top"/>
	</contour>
  </outline>
</glyph>
<glyph name="hungarumlaut" format="1">
  <advance width="364"/>
  <unicode hex="02DD"/>
  <outline>
	<contour>
	  <point x="65" y="438" type="line"/>
	  <point x="208" y="533" type="line"/>
	  <point x="134" y="618" type="line"/>
	  <point x="40" y="467" type="line"/>
	</contour>
	<contour>
	  <point x="222" y="438" type="line"/>
	  <point x="365" y="533" type="line"/>
	  <point x="291" y="618" type="line"/>
	  <point x="197" y="467" type="line"/>
	</contour>
	<contour>
	  <point x="182" y="400" type="move" name="_top"/>
	</contour>
  </outline>
</glyph>
<glyph name="pi" format="1">
  <advance width="465"/>
  <unicode hex="03C0"/>
  <outline>
	<contour>
	  <point x="275" y="400" type="line"/>
	  <point x="275" y="0" type="line"/>
	  <point x="404" y="0" type="line"/>
	  <point x="404" y="400" type="line"/>
	</contour>
	<contour>
	  <point x="61" y="400" type="line"/>
	  <point x="61" y="0" type="line"/>
	  <point x="190" y="0" type="line"/>
	  <point x="190" y="400" type="line"/>
	</contour>
	<contour>
	  <point x="19" y="335" type="line"/>
	  <point x="446" y="335" type="line"/>
	  <point x="446" y="400" type="line"/>
	  <point x="19" y="400" type="line"/>
	</contour>
  </outline>
</glyph>
<glyph name="candraBindu-deva" format="1">
  <advance width="0"/>
  <unicode hex="0901"/>
  <outline>
	<component base="anusvara-deva" xOffset="38" yOffset="38"/>
	<component base="eCandraMatra-deva"/>
	<contour>
	  <point x="-135" y="483" type="move" name="_top"/>
	</contour>
  </outline>
</glyph>
<glyph name="rVocalic-deva" format="1">
  <advance width="914"/>
  <unicode hex="090B"/>
  <outline>
	<contour>
	  <point x="-10" y="500" type="line"/>
	  <point x="-10" y="470" type="line"/>
	  <point x="431" y="470" type="line"/>
	  <point x="431" y="205" type="line"/>
	  <point x="340" y="157" type="line"/>
	  <point x="376" y="200"/>
	  <point x="387" y="225"/>
	  <point x="387" y="250" type="curve" smooth="yes"/>
	  <point x="387" y="350"/>
	  <point x="305" y="415"/>
	  <point x="181" y="415" type="curve" smooth="yes"/>
	  <point x="102" y="415"/>
	  <point x="36" y="380"/>
	  <point x="11" y="325" type="curve"/>
	  <point x="101" y="250" type="line"/>
	  <point x="101" y="317"/>
	  <point x="139" y="370"/>
	  <point x="186" y="370" type="curve" smooth="yes"/>
	  <point x="222" y="370"/>
	  <point x="251" y="307"/>
	  <point x="251" y="230" type="curve" smooth="yes"/>
	  <point x="251" y="157"/>
	  <point x="224" y="97"/>
	  <point x="174" y="70" type="curve" smooth="yes"/>
	  <point x="99" y="30" type="line"/>
	  <point x="116" y="-10" type="line"/>
	  <point x="431" y="155" type="line"/>
	  <point x="431" y="0" type="line"/>
	  <point x="561" y="0" type="line"/>
	  <point x="561" y="223" type="line"/>
	  <point x="641" y="264" type="line"/>
	  <point x="712" y="218"/>
	  <point x="756" y="160"/>
	  <point x="756" y="120" type="curve" smooth="yes"/>
	  <point x="756" y="71"/>
	  <point x="708" y="30"/>
	  <point x="651" y="30" type="curve"/>
	  <point x="671" y="0" type="line"/>
	  <point x="794" y="0"/>
	  <point x="892" y="58"/>
	  <point x="892" y="130" type="curve" smooth="yes"/>
	  <point x="892" y="185"/>
	  <point x="842" y="248"/>
	  <point x="761" y="295" type="curve"/>
	  <point x="786" y="310"/>
	  <point x="801" y="330"/>
	  <point x="801" y="350" type="curve" smooth="yes"/>
	  <point x="801" y="386"/>
	  <point x="763" y="415"/>
	  <point x="716" y="415" type="curve" smooth="yes"/>
	  <point x="654" y="415"/>
	  <point x="599" y="382"/>
	  <point x="599" y="337" type="curve" smooth="yes"/>
	  <point x="599" y="325"/>
	  <point x="603" y="313"/>
	  <point x="611" y="300" type="curve"/>
	  <point x="561" y="273" type="line"/>
	  <point x="561" y="470" type="line"/>
	  <point x="924" y="470" type="line"/>
	  <point x="924" y="500" type="line"/>
	</contour>
	<contour>
	  <point x="496" y="500" type="move" name="top"/>
	</contour>
	<contour>
	  <point x="496" y="0" type="move" name="bottom"/>
	</contour>
  </outline>
</glyph>
<glyph name="lVocalic-deva" format="1">
  <advance width="692"/>
  <unicode hex="090C"/>
  <outline>
	<contour>
	  <point x="659" y="299"/>
	  <point x="626" y="358"/>
	  <point x="573" y="385" type="curve"/>
	  <point x="573" y="470" type="line"/>
	  <point x="702" y="470" type="line"/>
	  <point x="702" y="500" type="line"/>
	  <point x="-10" y="500" type="line"/>
	  <point x="-10" y="470" type="line"/>
	  <point x="443" y="470" type="line"/>
	  <point x="443" y="400" type="line"/>
	  <point x="406" y="393"/>
	  <point x="373" y="370"/>
	  <point x="353" y="335" type="curve"/>
	  <point x="330" y="375"/>
	  <point x="278" y="400"/>
	  <point x="218" y="400" type="curve" smooth="yes"/>
	  <point x="115" y="400"/>
	  <point x="33" y="313"/>
	  <point x="33" y="205" type="curve" smooth="yes"/>
	  <point x="33" y="92"/>
	  <point x="122" y="0"/>
	  <point x="233" y="0" type="curve"/>
	  <point x="298" y="50" type="line"/>
	  <point x="221" y="50"/>
	  <point x="158" y="135"/>
	  <point x="158" y="240" type="curve" smooth="yes"/>
	  <point x="158" y="304"/>
	  <point x="185" y="355"/>
	  <point x="218" y="355" type="curve" smooth="yes"/>
	  <point x="257" y="355"/>
	  <point x="301" y="295"/>
	  <point x="301" y="220" type="curve"/>
	  <point x="391" y="220" type="line"/>
	  <point x="391" y="295"/>
	  <point x="427" y="355"/>
	  <point x="458" y="355" type="curve" smooth="yes"/>
	  <point x="499" y="355"/>
	  <point x="532" y="292"/>
	  <point x="533" y="215" type="curve"/>
	  <point x="532" y="34"/>
	  <point x="392" y="46"/>
	  <point x="392" y="-53" type="curve" smooth="yes"/>
	  <point x="392" y="-111"/>
	  <point x="461" y="-155"/>
	  <point x="557" y="-155" type="curve" smooth="yes"/>
	  <point x="632" y="-155"/>
	  <point x="699" y="-131"/>
	  <point x="732" y="-94" type="curve"/>
	  <point x="682" y="-44" type="line"/>
	  <point x="659" y="-79"/>
	  <point x="620" y="-105"/>
	  <point x="587" y="-105" type="curve" smooth="yes"/>
	  <point x="533" y="-105"/>
	  <point x="510" y="-70"/>
	  <point x="510" y="-34" type="curve" smooth="yes"/>
	  <point x="510" y="79"/>
	  <point x="659" y="86"/>
	  <point x="659" y="230" type="curve"/>
	</contour>
	<contour>
	  <point x="508" y="500" type="move" name="top"/>
	</contour>
	<contour>
	  <point x="391" y="0" type="move" name="bottom"/>
	</contour>
  </outline>
</glyph>
<glyph name="eCandra-deva" format="1">
  <advance width="510"/>
  <unicode hex="090D"/>
  <outline>
	<component base="e-deva"/>
	<component base="eCandraMatra-deva" xOffset="445"/>
	<contour>
	  <point x="310" y="500" type="move" name="top"/>
	</contour>
  </outline>
</glyph>
<glyph name="ka-deva" format="1">
  <advance width="854"/>
  <unicode hex="0915"/>
  <outline>
	<contour>
	  <point x="-10" y="500" type="line"/>
	  <point x="-10" y="470" type="line"/>
	  <point x="362" y="470" type="line"/>
	  <point x="362" y="330" type="line"/>
	  <point x="345" y="383"/>
	  <point x="286" y="420"/>
	  <point x="217" y="420" type="curve" smooth="yes"/>
	  <point x="114" y="420"/>
	  <point x="32" y="334"/>
	  <point x="32" y="227" type="curve" smooth="yes"/>
	  <point x="32" y="120"/>
	  <point x="114" y="35"/>
	  <point x="217" y="35" type="curve" smooth="yes"/>
	  <point x="274" y="35"/>
	  <point x="330" y="69"/>
	  <point x="362" y="125" type="curve"/>
	  <point x="362" y="0" type="line"/>
	  <point x="492" y="0" type="line"/>
	  <point x="492" y="205" type="line" smooth="yes"/>
	  <point x="492" y="282"/>
	  <point x="533" y="345"/>
	  <point x="582" y="345" type="curve" smooth="yes"/>
	  <point x="639" y="345"/>
	  <point x="687" y="282"/>
	  <point x="687" y="205" type="curve" smooth="yes"/>
	  <point x="687" y="137"/>
	  <point x="639" y="80"/>
	  <point x="575" y="80" type="curve" smooth="yes"/>
	  <point x="550" y="80"/>
	  <point x="528" y="86"/>
	  <point x="515" y="95" type="curve"/>
	  <point x="528" y="65"/>
	  <point x="572" y="35"/>
	  <point x="632" y="35" type="curve" smooth="yes"/>
	  <point x="735" y="36"/>
	  <point x="817" y="118"/>
	  <point x="817" y="220" type="curve" smooth="yes"/>
	  <point x="817" y="328"/>
	  <point x="732" y="415"/>
	  <point x="627" y="415" type="curve" smooth="yes"/>
	  <point x="572" y="415"/>
	  <point x="519" y="377"/>
	  <point x="492" y="320" type="curve"/>
	  <point x="492" y="470" type="line"/>
	  <point x="864" y="470" type="line"/>
	  <point x="864" y="500" type="line"/>
	</contour>
	<contour>
	  <point x="240" y="375"/>
	  <point x="247" y="303"/>
	  <point x="247" y="260" type="curve"/>
	  <point x="362" y="308" type="line"/>
	  <point x="362" y="205" type="line"/>
	  <point x="346" y="144"/>
	  <point x="300" y="100"/>
	  <point x="252" y="100" type="curve" smooth="yes"/>
	  <point x="203" y="100"/>
	  <point x="162" y="172"/>
	  <point x="162" y="260" type="curve" smooth="yes"/>
	  <point x="162" y="324"/>
	  <point x="186" y="375"/>
	  <point x="217" y="375" type="curve" smooth="yes"/>
	</contour>
	<contour>
	  <point x="189" y="-83" type="move" name="nukta"/>
	</contour>
	<contour>
	  <point x="427" y="0" type="move" name="bottom"/>
	</contour>
	<contour>
	  <point x="427" y="500" type="move" name="top"/>
	</contour>
  </outline>
</glyph>
<glyph name="kha-deva" format="1">
  <advance width="945"/>
  <unicode hex="0916"/>
  <outline>
	<contour>
	  <point x="405" y="-15"/>
	  <point x="462" y="17"/>
	  <point x="492" y="70" type="curve"/>
	  <point x="520" y="57"/>
	  <point x="552" y="50"/>
	  <point x="590" y="50" type="curve" smooth="yes"/>
	  <point x="659" y="50"/>
	  <point x="720" y="85"/>
	  <point x="745" y="140" type="curve"/>
	  <point x="745" y="0" type="line"/>
	  <point x="875" y="0" type="line"/>
	  <point x="875" y="470" type="line"/>
	  <point x="955" y="470" type="line"/>
	  <point x="955" y="500" type="line"/>
	  <point x="-8" y="500" type="line"/>
	  <point x="-8" y="470" type="line"/>
	  <point x="745" y="470" type="line"/>
	  <point x="745" y="225" type="line"/>
	  <point x="726" y="154"/>
	  <point x="677" y="105"/>
	  <point x="625" y="105" type="curve" smooth="yes"/>
	  <point x="573" y="105"/>
	  <point x="531" y="170"/>
	  <point x="531" y="250" type="curve" smooth="yes"/>
	  <point x="531" y="319"/>
	  <point x="559" y="375"/>
	  <point x="595" y="375" type="curve" smooth="yes"/>
	  <point x="617" y="375"/>
	  <point x="632" y="329"/>
	  <point x="640" y="290" type="curve"/>
	  <point x="740" y="330" type="line"/>
	  <point x="720" y="385"/>
	  <point x="661" y="420"/>
	  <point x="590" y="420" type="curve" smooth="yes"/>
	  <point x="482" y="420"/>
	  <point x="395" y="335"/>
	  <point x="395" y="230" type="curve" smooth="yes"/>
	  <point x="395" y="174"/>
	  <point x="418" y="122"/>
	  <point x="456" y="94" type="curve"/>
	  <point x="433" y="63"/>
	  <point x="408" y="50"/>
	  <point x="382" y="50" type="curve"/>
	  <point x="359" y="50"/>
	  <point x="340" y="57"/>
	  <point x="301" y="104" type="curve" smooth="yes"/>
	  <point x="208" y="215" type="line"/>
	  <point x="220" y="212"/>
	  <point x="230" y="210"/>
	  <point x="241" y="210" type="curve" smooth="yes"/>
	  <point x="312" y="210"/>
	  <point x="381" y="249"/>
	  <point x="381" y="345" type="curve" smooth="yes"/>
	  <point x="381" y="394"/>
	  <point x="356" y="443"/>
	  <point x="319" y="470" type="curve"/>
	  <point x="413" y="470" type="line"/>
	  <point x="413" y="500" type="line"/>
	  <point x="-8" y="500" type="line"/>
	  <point x="-8" y="470" type="line"/>
	  <point x="196" y="470" type="line"/>
	  <point x="231" y="446"/>
	  <point x="253" y="400"/>
	  <point x="253" y="355" type="curve" smooth="yes"/>
	  <point x="253" y="295"/>
	  <point x="228" y="260"/>
	  <point x="177" y="260" type="curve" smooth="yes"/>
	  <point x="142" y="260"/>
	  <point x="122" y="290"/>
	  <point x="84" y="290" type="curve" smooth="yes"/>
	  <point x="42" y="290"/>
	  <point x="10" y="273"/>
	  <point x="-10" y="245" type="curve"/>
	  <point x="98" y="202"/>
	  <point x="154" y="-15"/>
	  <point x="320" y="-15" type="curve"/>
	</contour>
	<contour>
	  <point x="810" y="500" type="move" name="top"/>
	</contour>
	<contour>
	  <point x="810" y="0" type="move" name="bottom"/>
	</contour>
  </outline>
</glyph>
<glyph name="ga-deva" format="1">
  <advance width="693"/>
  <unicode hex="0917"/>
  <outline>
	<contour>
	  <point x="-10" y="500" type="line"/>
	  <point x="-10" y="470" type="line"/>
	  <point x="493" y="470" type="line"/>
	  <point x="493" y="0" type="line"/>
	  <point x="623" y="0" type="line"/>
	  <point x="623" y="470" type="line"/>
	  <point x="703" y="470" type="line"/>
	  <point x="703" y="500" type="line"/>
	</contour>
	<contour>
	  <point x="163" y="470" type="line"/>
	  <point x="223" y="443"/>
	  <point x="264" y="413"/>
	  <point x="273" y="360" type="curve"/>
	  <point x="259" y="369"/>
	  <point x="234" y="375"/>
	  <point x="198" y="375" type="curve" smooth="yes"/>
	  <point x="100" y="375"/>
	  <point x="23" y="306"/>
	  <point x="23" y="220" type="curve" smooth="yes"/>
	  <point x="23" y="131"/>
	  <point x="98" y="80"/>
	  <point x="193" y="80" type="curve" smooth="yes"/>
	  <point x="315" y="80"/>
	  <point x="413" y="162"/>
	  <point x="413" y="265" type="curve" smooth="yes"/>
	  <point x="413" y="348"/>
	  <point x="374" y="417"/>
	  <point x="303" y="470" type="curve"/>
	</contour>
	<contour>
	  <point x="246" y="335"/>
	  <point x="261" y="330"/>
	  <point x="278" y="320" type="curve"/>
	  <point x="281" y="293"/>
	  <point x="283" y="276"/>
	  <point x="283" y="265" type="curve" smooth="yes"/>
	  <point x="283" y="175"/>
	  <point x="254" y="120"/>
	  <point x="218" y="120" type="curve" smooth="yes"/>
	  <point x="182" y="120"/>
	  <point x="153" y="158"/>
	  <point x="153" y="225" type="curve" smooth="yes"/>
	  <point x="153" y="285"/>
	  <point x="189" y="335"/>
	  <point x="233" y="335" type="curve" smooth="yes"/>
	</contour>
	<contour>
	  <point x="218" y="-64" type="move" name="nukta"/>
	</contour>
	<contour>
	  <point x="558" y="0" type="move" name="bottom"/>
	</contour>
	<contour>
	  <point x="558" y="500" type="move" name="top"/>
	</contour>
  </outline>
</glyph>
<glyph name="gha-deva" format="1">
  <advance width="569"/>
  <unicode hex="0918"/>
  <outline>
	<contour>
	  <point x="-10" y="500" type="line"/>
	  <point x="-10" y="470" type="line"/>
	  <point x="102" y="470" type="line"/>
	  <point x="78" y="461"/>
	  <point x="59" y="439"/>
	  <point x="59" y="410" type="curve" smooth="yes"/>
	  <point x="59" y="359"/>
	  <point x="98" y="333"/>
	  <point x="154" y="325" type="curve"/>
	  <point x="86" y="309"/>
	  <point x="34" y="261"/>
	  <point x="34" y="190" type="curve" smooth="yes"/>
	  <point x="34" y="110"/>
	  <point x="111" y="45"/>
	  <point x="204" y="45" type="curve" smooth="yes"/>
	  <point x="277" y="45"/>
	  <point x="341" y="82"/>
	  <point x="369" y="125" type="curve"/>
	  <point x="369" y="0" type="line"/>
	  <point x="499" y="0" type="line"/>
	  <point x="499" y="470" type="line"/>
	  <point x="579" y="470" type="line"/>
	  <point x="579" y="500" type="line"/>
	</contour>
	<contour>
	  <point x="369" y="225" type="line"/>
	  <point x="361" y="159"/>
	  <point x="306" y="106"/>
	  <point x="251" y="106" type="curve" smooth="yes"/>
	  <point x="198" y="106"/>
	  <point x="170" y="141"/>
	  <point x="170" y="191" type="curve" smooth="yes"/>
	  <point x="170" y="256"/>
	  <point x="212" y="305"/>
	  <point x="264" y="305" type="curve" smooth="yes"/>
	  <point x="304" y="305" type="line"/>
	  <point x="304" y="340" type="line"/>
	  <point x="263" y="340" type="line" smooth="yes"/>
	  <point x="215" y="340"/>
	  <point x="195" y="371"/>
	  <point x="195" y="410" type="curve" smooth="yes"/>
	  <point x="195" y="441"/>
	  <point x="217" y="470"/>
	  <point x="248" y="470" type="curve"/>
	  <point x="369" y="470" type="line"/>
	</contour>
	<contour>
	  <point x="177" y="-65" type="move" name="nukta"/>
	</contour>
	<contour>
	  <point x="434" y="0" type="move" name="bottom"/>
	</contour>
	<contour>
	  <point x="434" y="500" type="move" name="top"/>
	</contour>
  </outline>
</glyph>
<glyph name="ca-deva" format="1">
  <advance width="598"/>
  <unicode hex="091A"/>
  <outline>
	<contour>
	  <point x="-10" y="500" type="line"/>
	  <point x="-10" y="470" type="line"/>
	  <point x="398" y="470" type="line"/>
	  <point x="398" y="230" type="line"/>
	  <point x="385" y="158"/>
	  <point x="333" y="105"/>
	  <point x="273" y="105" type="curve" smooth="yes"/>
	  <point x="232" y="105"/>
	  <point x="199" y="150"/>
	  <point x="199" y="205" type="curve" smooth="yes"/>
	  <point x="199" y="285"/>
	  <point x="270" y="350"/>
	  <point x="358" y="350" type="curve"/>
	  <point x="358" y="385" type="line"/>
	  <point x="8" y="385" type="line"/>
	  <point x="8" y="350" type="line"/>
	  <point x="198" y="350" type="line"/>
	  <point x="119" y="337"/>
	  <point x="63" y="271"/>
	  <point x="63" y="195" type="curve" smooth="yes"/>
	  <point x="63" y="107"/>
	  <point x="136" y="50"/>
	  <point x="248" y="50" type="curve" smooth="yes"/>
	  <point x="308" y="50"/>
	  <point x="366" y="84"/>
	  <point x="398" y="140" type="curve"/>
	  <point x="398" y="0" type="line"/>
	  <point x="528" y="0" type="line"/>
	  <point x="528" y="470" type="line"/>
	  <point x="608" y="470" type="line"/>
	  <point x="608" y="500" type="line"/>
	</contour>
	<contour>
	  <point x="199" y="-65" type="move" name="nukta"/>
	</contour>
	<contour>
	  <point x="463" y="0" type="move" name="bottom"/>
	</contour>
	<contour>
	  <point x="463" y="500" type="move" name="top"/>
	</contour>
  </outline>
</glyph>
<glyph name="ja-deva" format="1">
  <advance width="735"/>
  <unicode hex="091C"/>
  <outline>
	<contour>
	  <point x="-10" y="500" type="line"/>
	  <point x="-10" y="470" type="line"/>
	  <point x="535" y="470" type="line"/>
	  <point x="535" y="390" type="line"/>
	  <point x="210" y="390" type="line"/>
	  <point x="190" y="360" type="line"/>
	  <point x="273" y="337"/>
	  <point x="330" y="259"/>
	  <point x="330" y="170" type="curve" smooth="yes"/>
	  <point x="330" y="119"/>
	  <point x="293" y="87"/>
	  <point x="254" y="87" type="curve" smooth="yes"/>
	  <point x="207" y="87"/>
	  <point x="156" y="131"/>
	  <point x="156" y="240" type="curve" smooth="yes"/>
	  <point x="156" y="263"/>
	  <point x="159" y="283"/>
	  <point x="165" y="300" type="curve"/>
	  <point x="85" y="300"/>
	  <point x="20" y="270"/>
	  <point x="20" y="180" type="curve" smooth="yes"/>
	  <point x="20" y="99"/>
	  <point x="116" y="35"/>
	  <point x="235" y="35" type="curve" smooth="yes"/>
	  <point x="357" y="35"/>
	  <point x="455" y="104"/>
	  <point x="455" y="210" type="curve" smooth="yes"/>
	  <point x="455" y="265"/>
	  <point x="420" y="317"/>
	  <point x="360" y="350" type="curve"/>
	  <point x="535" y="350" type="line"/>
	  <point x="535" y="0" type="line"/>
	  <point x="665" y="0" type="line"/>
	  <point x="665" y="470" type="line"/>
	  <point x="745" y="470" type="line"/>
	  <point x="745" y="500" type="line"/>
	</contour>
	<contour>
	  <point x="260" y="-65" type="move" name="nukta"/>
	</contour>
	<contour>
	  <point x="600" y="0" type="move" name="bottom"/>
	</contour>
	<contour>
	  <point x="600" y="500" type="move" name="top"/>
	</contour>
  </outline>
</glyph>
<glyph name="ttha-deva" format="1">
  <advance width="589"/>
  <unicode hex="0920"/>
  <outline>
	<contour>
	  <point x="-10" y="500" type="line"/>
	  <point x="-10" y="470" type="line"/>
	  <point x="331" y="470" type="line"/>
	  <point x="331" y="395" type="line"/>
	  <point x="317" y="402"/>
	  <point x="295" y="405"/>
	  <point x="266" y="405" type="curve" smooth="yes"/>
	  <point x="137" y="405"/>
	  <point x="31" y="313"/>
	  <point x="31" y="200" type="curve" smooth="yes"/>
	  <point x="31" y="79"/>
	  <point x="134" y="0"/>
	  <point x="291" y="0" type="curve" smooth="yes"/>
	  <point x="455" y="0"/>
	  <point x="562" y="75"/>
	  <point x="562" y="190" type="curve" smooth="yes"/>
	  <point x="562" y="265"/>
	  <point x="493" y="325"/>
	  <point x="406" y="325" type="curve" smooth="yes"/>
	  <point x="367" y="325"/>
	  <point x="334" y="315"/>
	  <point x="311" y="295" type="curve"/>
	  <point x="378" y="283"/>
	  <point x="426" y="237"/>
	  <point x="426" y="185" type="curve" smooth="yes"/>
	  <point x="426" y="105"/>
	  <point x="373" y="40"/>
	  <point x="306" y="40" type="curve" smooth="yes"/>
	  <point x="229" y="40"/>
	  <point x="167" y="112"/>
	  <point x="167" y="200" type="curve" smooth="yes"/>
	  <point x="167" y="291"/>
	  <point x="225" y="365"/>
	  <point x="296" y="365" type="curve" smooth="yes"/>
	  <point x="315" y="365"/>
	  <point x="333" y="354"/>
	  <point x="341" y="335" type="curve"/>
	  <point x="461" y="365" type="line"/>
	  <point x="461" y="470" type="line"/>
	  <point x="599" y="470" type="line"/>
	  <point x="599" y="500" type="line"/>
	</contour>
	<contour>
	  <point x="291" y="-100" type="move" name="nukta"/>
	</contour>
	<contour>
	  <point x="396" y="0" type="move" name="bottom"/>
	</contour>
	<contour>
	  <point x="396" y="500" type="move" name="top"/>
	</contour>
  </outline>
</glyph>
<glyph name="nna-deva" format="1">
  <advance width="723"/>
  <unicode hex="0923"/>
  <outline>
	<contour>
	  <point x="-10" y="500" type="line"/>
	  <point x="-10" y="470" type="line"/>
	  <point x="113" y="470" type="line"/>
	  <point x="62" y="419"/>
	  <point x="33" y="351"/>
	  <point x="33" y="280" type="curve" smooth="yes"/>
	  <point x="33" y="180"/>
	  <point x="129" y="100"/>
	  <point x="248" y="100" type="curve" smooth="yes"/>
	  <point x="373" y="100"/>
	  <point x="474" y="180"/>
	  <point x="474" y="280" type="curve" smooth="yes"/>
	  <point x="474" y="336"/>
	  <point x="444" y="403"/>
	  <point x="388" y="470" type="curve"/>
	  <point x="523" y="470" type="line"/>
	  <point x="523" y="0" type="line"/>
	  <point x="653" y="0" type="line"/>
	  <point x="653" y="470" type="line"/>
	  <point x="733" y="470" type="line"/>
	  <point x="733" y="500" type="line"/>
	</contour>
	<contour>
	  <point x="314" y="435"/>
	  <point x="338" y="377"/>
	  <point x="338" y="310" type="curve" smooth="yes"/>
	  <point x="338" y="217"/>
	  <point x="300" y="140"/>
	  <point x="253" y="140" type="curve" smooth="yes"/>
	  <point x="206" y="140"/>
	  <point x="169" y="214"/>
	  <point x="169" y="305" type="curve" smooth="yes"/>
	  <point x="169" y="370"/>
	  <point x="188" y="429"/>
	  <point x="223" y="470" type="curve"/>
	  <point x="273" y="470" type="line"/>
	</contour>
	<contour>
	  <point x="248" y="-65" type="move" name="nukta"/>
	</contour>
	<contour>
	  <point x="588" y="0" type="move" name="bottom"/>
	</contour>
	<contour>
	  <point x="588" y="500" type="move" name="top"/>
	</contour>
  </outline>
</glyph>
<glyph name="ta-deva" format="1">
  <advance width="563"/>
  <unicode hex="0924"/>
  <outline>
	<contour>
	  <point x="-10" y="500" type="line"/>
	  <point x="-10" y="470" type="line"/>
	  <point x="363" y="470" type="line"/>
	  <point x="363" y="360" type="line"/>
	  <point x="340" y="377"/>
	  <point x="294" y="396"/>
	  <point x="238" y="396" type="curve" smooth="yes"/>
	  <point x="98" y="396"/>
	  <point x="28" y="319"/>
	  <point x="28" y="225" type="curve" smooth="yes"/>
	  <point x="28" y="151"/>
	  <point x="75" y="66"/>
	  <point x="168" y="0" type="curve"/>
	  <point x="228" y="25" type="line"/>
	  <point x="187" y="74"/>
	  <point x="164" y="147"/>
	  <point x="164" y="211" type="curve" smooth="yes"/>
	  <point x="164" y="286"/>
	  <point x="194" y="351"/>
	  <point x="263" y="351" type="curve" smooth="yes"/>
	  <point x="305" y="351"/>
	  <point x="340" y="330"/>
	  <point x="363" y="305" type="curve"/>
	  <point x="363" y="0" type="line"/>
	  <point x="493" y="0" type="line"/>
	  <point x="493" y="470" type="line"/>
	  <point x="573" y="470" type="line"/>
	  <point x="573" y="500" type="line"/>
	</contour>
	<contour>
	  <point x="168" y="-100" type="move" name="nukta"/>
	</contour>
	<contour>
	  <point x="428" y="0" type="move" name="bottom"/>
	</contour>
	<contour>
	  <point x="428" y="500" type="move" name="top"/>
	</contour>
  </outline>
</glyph>
<glyph name="tha-deva" format="1">
  <advance width="641"/>
  <unicode hex="0925"/>
  <outline>
	<contour>
	  <point x="140" y="530"/>
	  <point x="66" y="481"/>
	  <point x="66" y="420" type="curve" smooth="yes"/>
	  <point x="66" y="369"/>
	  <point x="119" y="313"/>
	  <point x="191" y="310" type="curve"/>
	  <point x="172" y="297"/>
	  <point x="129" y="290"/>
	  <point x="66" y="290" type="curve"/>
	  <point x="43" y="290"/>
	  <point x="26" y="271"/>
	  <point x="26" y="255" type="curve" smooth="yes"/>
	  <point x="26" y="136"/>
	  <point x="134" y="40"/>
	  <point x="266" y="40" type="curve" smooth="yes"/>
	  <point x="331" y="40"/>
	  <point x="396" y="72"/>
	  <point x="441" y="125" type="curve"/>
	  <point x="441" y="0" type="line"/>
	  <point x="571" y="0" type="line"/>
	  <point x="571" y="470" type="line"/>
	  <point x="651" y="470" type="line"/>
	  <point x="651" y="500" type="line"/>
	  <point x="416" y="500" type="line"/>
	  <point x="416" y="470" type="line"/>
	  <point x="441" y="470" type="line"/>
	  <point x="441" y="195" type="line"/>
	  <point x="425" y="134"/>
	  <point x="365" y="90"/>
	  <point x="296" y="90" type="curve" smooth="yes"/>
	  <point x="219" y="90"/>
	  <point x="156" y="169"/>
	  <point x="156" y="265" type="curve"/>
	  <point x="292" y="265"/>
	  <point x="402" y="335"/>
	  <point x="402" y="420" type="curve" smooth="yes"/>
	  <point x="402" y="481"/>
	  <point x="326" y="530"/>
	  <point x="231" y="530" type="curve" smooth="yes"/>
	</contour>
	<contour>
	  <point x="255" y="495"/>
	  <point x="266" y="455"/>
	  <point x="266" y="420" type="curve" smooth="yes"/>
	  <point x="266" y="379"/>
	  <point x="254" y="347"/>
	  <point x="234" y="335" type="curve"/>
	  <point x="215" y="338"/>
	  <point x="202" y="376"/>
	  <point x="202" y="425" type="curve" smooth="yes"/>
	  <point x="202" y="464"/>
	  <point x="217" y="495"/>
	  <point x="236" y="495" type="curve" smooth="yes"/>
	</contour>
	<contour>
	  <point x="234" y="-80" type="move" name="nukta"/>
	</contour>
	<contour>
	  <point x="506" y="0" type="move" name="bottom"/>
	</contour>
	<contour>
	  <point x="506" y="500" type="move" name="top"/>
	</contour>
  </outline>
</glyph>
<glyph name="da-deva" format="1">
  <advance width="537"/>
  <unicode hex="0926"/>
  <outline>
	<contour>
	  <point x="-10" y="500" type="line"/>
	  <point x="-10" y="470" type="line"/>
	  <point x="311" y="470" type="line"/>
	  <point x="311" y="390" type="line"/>
	  <point x="291" y="398"/>
	  <point x="268" y="402"/>
	  <point x="243" y="402" type="curve" smooth="yes"/>
	  <point x="147" y="402"/>
	  <point x="31" y="342"/>
	  <point x="31" y="220" type="curve" smooth="yes"/>
	  <point x="31" y="105"/>
	  <point x="114" y="30"/>
	  <point x="241" y="30" type="curve" smooth="yes"/>
	  <point x="286" y="30" type="line"/>
	  <point x="301" y="-1"/>
	  <point x="326" y="-35"/>
	  <point x="361" y="-70" type="curve"/>
	  <point x="476" y="-30" type="line"/>
	  <point x="452" y="-9"/>
	  <point x="430" y="17"/>
	  <point x="411" y="50" type="curve"/>
	  <point x="474" y="73"/>
	  <point x="516" y="123"/>
	  <point x="516" y="175" type="curve" smooth="yes"/>
	  <point x="516" y="230"/>
	  <point x="453" y="275"/>
	  <point x="376" y="275" type="curve" smooth="yes"/>
	  <point x="296" y="275"/>
	  <point x="231" y="226"/>
	  <point x="231" y="165" type="curve" smooth="yes"/>
	  <point x="231" y="132"/>
	  <point x="243" y="98"/>
	  <point x="266" y="65" type="curve"/>
	  <point x="211" y="65"/>
	  <point x="167" y="135"/>
	  <point x="167" y="220" type="curve" smooth="yes"/>
	  <point x="167" y="297"/>
	  <point x="218" y="360"/>
	  <point x="281" y="360" type="curve" smooth="yes"/>
	  <point x="304" y="360"/>
	  <point x="323" y="353"/>
	  <point x="336" y="340" type="curve"/>
	  <point x="441" y="365" type="line"/>
	  <point x="441" y="470" type="line"/>
	  <point x="547" y="470" type="line"/>
	  <point x="547" y="500" type="line"/>
	</contour>
	<contour>
	  <point x="389" y="225"/>
	  <point x="401" y="201"/>
	  <point x="401" y="170" type="curve" smooth="yes"/>
	  <point x="401" y="127"/>
	  <point x="393" y="107"/>
	  <point x="381" y="90" type="curve"/>
	  <point x="372" y="106"/>
	  <point x="357" y="127"/>
	  <point x="357" y="170" type="curve" smooth="yes"/>
	  <point x="357" y="210"/>
	  <point x="368" y="225"/>
	  <point x="376" y="225" type="curve" smooth="yes"/>
	</contour>
	<contour>
	  <point x="112" y="-80" type="move" name="nukta"/>
	</contour>
	<contour>
	  <point x="376" y="-65" type="move" name="bottom"/>
	</contour>
	<contour>
	  <point x="376" y="500" type="move" name="top"/>
	</contour>
  </outline>
</glyph>
<glyph name="na-deva" format="1">
  <advance width="667"/>
  <unicode hex="0928"/>
  <outline>
	<contour>
	  <point x="-10" y="500" type="line"/>
	  <point x="-10" y="470" type="line"/>
	  <point x="467" y="470" type="line"/>
	  <point x="467" y="360" type="line"/>
	  <point x="425" y="384"/>
	  <point x="367" y="397"/>
	  <point x="307" y="397" type="curve" smooth="yes"/>
	  <point x="172" y="397"/>
	  <point x="27" y="334"/>
	  <point x="27" y="190" type="curve" smooth="yes"/>
	  <point x="27" y="105"/>
	  <point x="109" y="35"/>
	  <point x="212" y="35" type="curve" smooth="yes"/>
	  <point x="315" y="35"/>
	  <point x="398" y="107"/>
	  <point x="398" y="195" type="curve" smooth="yes"/>
	  <point x="398" y="259"/>
	  <point x="344" y="310"/>
	  <point x="277" y="310" type="curve" smooth="yes"/>
	  <point x="244" y="310"/>
	  <point x="215" y="299"/>
	  <point x="197" y="280" type="curve"/>
	  <point x="234" y="273"/>
	  <point x="262" y="227"/>
	  <point x="262" y="170" type="curve" smooth="yes"/>
	  <point x="262" y="115"/>
	  <point x="240" y="70"/>
	  <point x="212" y="70" type="curve" smooth="yes"/>
	  <point x="185" y="70"/>
	  <point x="163" y="119"/>
	  <point x="163" y="180" type="curve" smooth="yes"/>
	  <point x="163" y="315"/>
	  <point x="242" y="355"/>
	  <point x="325" y="355" type="curve" smooth="yes"/>
	  <point x="377" y="355"/>
	  <point x="431" y="339"/>
	  <point x="467" y="320" type="curve"/>
	  <point x="467" y="0" type="line"/>
	  <point x="597" y="0" type="line"/>
	  <point x="597" y="470" type="line"/>
	  <point x="677" y="470" type="line"/>
	  <point x="677" y="500" type="line"/>
	</contour>
	<contour>
	  <point x="212" y="-65" type="move" name="nukta"/>
	</contour>
	<contour>
	  <point x="532" y="0" type="move" name="bottom"/>
	</contour>
	<contour>
	  <point x="532" y="500" type="move" name="top"/>
	</contour>
  </outline>
</glyph>
<glyph name="nnna-deva" format="1">
  <advance width="667"/>
  <unicode hex="0929"/>
  <outline>
	<component base="na-deva"/>
	<component base="nukta-deva" xOffset="347" yOffset="-65"/>
	<contour>
	  <point x="532" y="500" type="move" name="top"/>
	</contour>
	<contour>
	  <point x="532" y="0" type="move" name="bottom"/>
	</contour>
  </outline>
</glyph>
<glyph name="pa-deva" format="1">
  <advance width="561"/>
  <unicode hex="092A"/>
  <outline>
	<contour>
	  <point x="-10" y="500" type="line"/>
	  <point x="-10" y="470" type="line"/>
	  <point x="51" y="470" type="line"/>
	  <point x="51" y="240" type="line" smooth="yes"/>
	  <point x="51" y="133"/>
	  <point x="125" y="85"/>
	  <point x="216" y="85" type="curve" smooth="yes"/>
	  <point x="284" y="85"/>
	  <point x="341" y="129"/>
	  <point x="361" y="175" type="curve"/>
	  <point x="361" y="0" type="line"/>
	  <point x="491" y="0" type="line"/>
	  <point x="491" y="470" type="line"/>
	  <point x="571" y="470" type="line"/>
	  <point x="571" y="500" type="line"/>
	</contour>
	<contour>
	  <point x="361" y="260" type="line"/>
	  <point x="345" y="191"/>
	  <point x="302" y="145"/>
	  <point x="256" y="145" type="curve" smooth="yes"/>
	  <point x="214" y="145"/>
	  <point x="181" y="176"/>
	  <point x="181" y="240" type="curve" smooth="yes"/>
	  <point x="181" y="470" type="line"/>
	  <point x="361" y="470" type="line"/>
	</contour>
	<contour>
	  <point x="181" y="-65" type="move" name="nukta"/>
	</contour>
	<contour>
	  <point x="426" y="0" type="move" name="bottom"/>
	</contour>
	<contour>
	  <point x="426" y="500" type="move" name="top"/>
	</contour>
  </outline>
</glyph>
<glyph name="pha-deva" format="1">
  <advance width="858"/>
  <unicode hex="092B"/>
  <outline>
	<contour>
	  <point x="-10" y="500" type="line"/>
	  <point x="-10" y="470" type="line"/>
	  <point x="51" y="470" type="line"/>
	  <point x="51" y="240" type="line" smooth="yes"/>
	  <point x="51" y="133"/>
	  <point x="125" y="85"/>
	  <point x="216" y="85" type="curve" smooth="yes"/>
	  <point x="284" y="85"/>
	  <point x="341" y="129"/>
	  <point x="361" y="175" type="curve"/>
	  <point x="361" y="0" type="line"/>
	  <point x="491" y="0" type="line"/>
	  <point x="491" y="470" type="line"/>
	  <point x="868" y="470" type="line"/>
	  <point x="868" y="500" type="line"/>
	</contour>
	<contour>
	  <point x="361" y="260" type="line"/>
	  <point x="345" y="191"/>
	  <point x="302" y="145"/>
	  <point x="256" y="145" type="curve" smooth="yes"/>
	  <point x="214" y="145"/>
	  <point x="181" y="176"/>
	  <point x="181" y="240" type="curve" smooth="yes"/>
	  <point x="181" y="470" type="line"/>
	  <point x="361" y="470" type="line"/>
	</contour>
	<contour>
	  <point x="491" y="312"/>
	  <point x="529" y="365"/>
	  <point x="576" y="365" type="curve" smooth="yes"/>
	  <point x="631" y="365"/>
	  <point x="676" y="302"/>
	  <point x="676" y="225" type="curve" smooth="yes"/>
	  <point x="676" y="153"/>
	  <point x="652" y="95"/>
	  <point x="621" y="95" type="curve" smooth="yes"/>
	  <point x="604" y="95"/>
	  <point x="586" y="118"/>
	  <point x="581" y="150" type="curve"/>
	  <point x="526" y="95" type="line"/>
	  <point x="547" y="70"/>
	  <point x="586" y="55"/>
	  <point x="631" y="55" type="curve" smooth="yes"/>
	  <point x="740" y="55"/>
	  <point x="812" y="128"/>
	  <point x="812" y="240" type="curve" smooth="yes"/>
	  <point x="812" y="349"/>
	  <point x="738" y="420"/>
	  <point x="626" y="420" type="curve" smooth="yes"/>
	  <point x="566" y="420"/>
	  <point x="514" y="395"/>
	  <point x="491" y="355" type="curve"/>
	  <point x="491" y="245" type="line"/>
	</contour>
	<contour>
	  <point x="181" y="-65" type="move" name="nukta"/>
	</contour>
	<contour>
	  <point x="426" y="0" type="move" name="bottom"/>
	</contour>
	<contour>
	  <point x="426" y="500" type="move" name="top"/>
	</contour>
  </outline>
</glyph>
<glyph name="ma-deva" format="1">
  <advance width="627"/>
  <unicode hex="092E"/>
  <outline>
	<contour>
	  <point x="-10" y="500" type="line"/>
	  <point x="-10" y="470" type="line"/>
	  <point x="167" y="470" type="line"/>
	  <point x="194" y="435"/>
	  <point x="217" y="363"/>
	  <point x="217" y="310" type="curve"/>
	  <point x="93" y="310"/>
	  <point x="22" y="259"/>
	  <point x="22" y="190" type="curve" smooth="yes"/>
	  <point x="22" y="118"/>
	  <point x="94" y="60"/>
	  <point x="182" y="60" type="curve" smooth="yes"/>
	  <point x="270" y="60"/>
	  <point x="341" y="127"/>
	  <point x="341" y="210" type="curve" smooth="yes"/>
	  <point x="341" y="270" type="line"/>
	  <point x="427" y="270" type="line"/>
	  <point x="427" y="0" type="line"/>
	  <point x="557" y="0" type="line"/>
	  <point x="557" y="470" type="line"/>
	  <point x="637" y="470" type="line"/>
	  <point x="637" y="500" type="line"/>
	</contour>
	<contour>
	  <point x="217" y="175"/>
	  <point x="214" y="105"/>
	  <point x="187" y="105" type="curve" smooth="yes"/>
	  <point x="167" y="105"/>
	  <point x="158" y="153"/>
	  <point x="158" y="190" type="curve" smooth="yes"/>
	  <point x="158" y="231"/>
	  <point x="179" y="270"/>
	  <point x="217" y="270" type="curve"/>
	</contour>
	<contour>
	  <point x="427" y="310" type="line"/>
	  <point x="341" y="310" type="line"/>
	  <point x="341" y="363"/>
	  <point x="328" y="435"/>
	  <point x="301" y="470" type="curve"/>
	  <point x="427" y="470" type="line"/>
	</contour>
	<contour>
	  <point x="182" y="-65" type="move" name="nukta"/>
	</contour>
	<contour>
	  <point x="492" y="0" type="move" name="bottom"/>
	</contour>
	<contour>
	  <point x="492" y="500" type="move" name="top"/>
	</contour>
  </outline>
</glyph>
<glyph name="va-deva" format="1">
  <advance width="581"/>
  <unicode hex="0935"/>
  <outline>
	<contour>
	  <point x="-10" y="500" type="line"/>
	  <point x="-10" y="470" type="line"/>
	  <point x="381" y="470" type="line"/>
	  <point x="381" y="225" type="line"/>
	  <point x="362" y="154"/>
	  <point x="313" y="105"/>
	  <point x="261" y="105" type="curve" smooth="yes"/>
	  <point x="209" y="105"/>
	  <point x="167" y="170"/>
	  <point x="167" y="250" type="curve" smooth="yes"/>
	  <point x="167" y="317"/>
	  <point x="193" y="375"/>
	  <point x="226" y="375" type="curve" smooth="yes"/>
	  <point x="251" y="375"/>
	  <point x="270" y="327"/>
	  <point x="276" y="290" type="curve"/>
	  <point x="376" y="330" type="line"/>
	  <point x="356" y="385"/>
	  <point x="297" y="420"/>
	  <point x="226" y="420" type="curve" smooth="yes"/>
	  <point x="118" y="420"/>
	  <point x="31" y="335"/>
	  <point x="31" y="230" type="curve" smooth="yes"/>
	  <point x="31" y="121"/>
	  <point x="109" y="50"/>
	  <point x="226" y="50" type="curve" smooth="yes"/>
	  <point x="295" y="50"/>
	  <point x="356" y="85"/>
	  <point x="381" y="140" type="curve"/>
	  <point x="381" y="0" type="line"/>
	  <point x="511" y="0" type="line"/>
	  <point x="511" y="470" type="line"/>
	  <point x="591" y="470" type="line"/>
	  <point x="591" y="500" type="line"/>
	</contour>
	<contour>
	  <point x="101" y="-65" type="move" name="nukta"/>
	</contour>
	<contour>
	  <point x="446" y="0" type="move" name="bottom"/>
	</contour>
	<contour>
	  <point x="446" y="500" type="move" name="top"/>
	</contour>
  </outline>
</glyph>
<glyph name="avagraha-deva" format="1">
  <advance width="496"/>
  <unicode hex="093D"/>
  <outline>
	<contour>
	  <point x="250" y="500"/>
	  <point x="47" y="478"/>
	  <point x="47" y="367" type="curve" smooth="yes"/>
	  <point x="47" y="249"/>
	  <point x="337" y="225"/>
	  <point x="337" y="125" type="curve" smooth="yes"/>
	  <point x="337" y="83"/>
	  <point x="286" y="50"/>
	  <point x="222" y="50" type="curve" smooth="yes"/>
	  <point x="142" y="50"/>
	  <point x="70" y="86"/>
	  <point x="37" y="145" type="curve"/>
	  <point x="17" y="95" type="line"/>
	  <point x="70" y="31"/>
	  <point x="150" y="-5"/>
	  <point x="237" y="-5" type="curve" smooth="yes"/>
	  <point x="368" y="-5"/>
	  <point x="473" y="55"/>
	  <point x="473" y="150" type="curve" smooth="yes"/>
	  <point x="473" y="306"/>
	  <point x="183" y="335"/>
	  <point x="183" y="405" type="curve" smooth="yes"/>
	  <point x="183" y="445"/>
	  <point x="316" y="455"/>
	  <point x="397" y="455" type="curve"/>
	  <point x="377" y="500" type="line"/>
	</contour>
  </outline>
</glyph>
<glyph name="aaMatra-deva" format="1">
  <advance width="270"/>
  <unicode hex="093E"/>
  <outline>
	<contour>
	  <point x="-10" y="500" type="line"/>
	  <point x="-10" y="470" type="line"/>
	  <point x="70" y="470" type="line"/>
	  <point x="70" y="0" type="line"/>
	  <point x="200" y="0" type="line"/>
	  <point x="200" y="470" type="line"/>
	  <point x="280" y="470" type="line"/>
	  <point x="280" y="500" type="line"/>
	</contour>
	<contour>
	  <point x="135" y="500" type="move" name="top"/>
	</contour>
	<contour>
	  <point x="135" y="0" type="move" name="bottom"/>
	</contour>
  </outline>
</glyph>
<glyph name="iMatra-deva" format="1">
  <advance width="270"/>
  <unicode hex="093F"/>
  <outline>
	<contour>
	  <point x="125" y="740"/>
	  <point x="25" y="677"/>
	  <point x="25" y="600" type="curve" smooth="yes"/>
	  <point x="25" y="563"/>
	  <point x="38" y="527"/>
	  <point x="70" y="500" type="curve"/>
	  <point x="180" y="500" type="line"/>
	  <point x="220" y="520" type="line"/>
	  <point x="184" y="535"/>
	  <point x="161" y="566"/>
	  <point x="161" y="600" type="curve" smooth="yes"/>
	  <point x="161" y="642"/>
	  <point x="216" y="675"/>
	  <point x="281" y="675" type="curve" smooth="yes"/>
	  <point x="414" y="675"/>
	  <point x="524" y="615"/>
	  <point x="605" y="515" type="curve"/>
	  <point x="651" y="550" type="line"/>
	  <point x="554" y="672"/>
	  <point x="401" y="740"/>
	  <point x="250" y="740" type="curve" smooth="yes"/>
	</contour>
	<contour>
	  <point x="-10" y="500" type="line"/>
	  <point x="-10" y="470" type="line"/>
	  <point x="70" y="470" type="line"/>
	  <point x="70" y="0" type="line"/>
	  <point x="200" y="0" type="line"/>
	  <point x="200" y="470" type="line"/>
	  <point x="280" y="470" type="line"/>
	  <point x="280" y="500" type="line"/>
	</contour>
	<contour>
	  <point x="605" y="500" type="move" name="iimatra"/>
	</contour>
	<contour>
	  <point x="635" y="500" type="move" name="top"/>
	</contour>
  </outline>
</glyph>
<glyph name="rVocalicMatra-deva" format="1">
  <advance width="0"/>
  <unicode hex="0943"/>
  <outline>
	<contour>
	  <point x="-170" y="0" type="line" smooth="yes"/>
	  <point x="-266" y="0"/>
	  <point x="-345" y="-58"/>
	  <point x="-345" y="-130" type="curve" smooth="yes"/>
	  <point x="-345" y="-197"/>
	  <point x="-253" y="-250"/>
	  <point x="-140" y="-250" type="curve" smooth="yes"/>
	  <point x="-75" y="-250"/>
	  <point x="-22" y="-232"/>
	  <point x="5" y="-200" type="curve"/>
	  <point x="-45" y="-150" type="line"/>
	  <point x="-66" y="-180"/>
	  <point x="-103" y="-200"/>
	  <point x="-140" y="-200" type="curve" smooth="yes"/>
	  <point x="-194" y="-200"/>
	  <point x="-227" y="-159"/>
	  <point x="-227" y="-120" type="curve" smooth="yes"/>
	  <point x="-227" y="-74"/>
	  <point x="-193" y="-30"/>
	  <point x="-115" y="-30" type="curve" smooth="yes"/>
	  <point x="-80" y="-30" type="line"/>
	  <point x="-80" y="0" type="line"/>
	</contour>
	<contour>
	  <point x="-135" y="0" type="move" name="_bottom"/>
	</contour>
  </outline>
</glyph>
<glyph name="rrVocalicMatra-deva" format="1">
  <advance width="0"/>
  <unicode hex="0944"/>
  <outline>
	<contour>
	  <point x="-267" y="-139" type="line"/>
	  <point x="-321" y="-152"/>
	  <point x="-365" y="-179"/>
	  <point x="-365" y="-205" type="curve" smooth="yes"/>
	  <point x="-365" y="-257"/>
	  <point x="-273" y="-285"/>
	  <point x="-205" y="-285" type="curve" smooth="yes"/>
	  <point x="-105" y="-285"/>
	  <point x="-53" y="-261"/>
	  <point x="-10" y="-225" type="curve"/>
	  <point x="-65" y="-170" type="line"/>
	  <point x="-101" y="-210"/>
	  <point x="-133" y="-235"/>
	  <point x="-185" y="-235" type="curve" smooth="yes"/>
	  <point x="-211" y="-235"/>
	  <point x="-230" y="-224"/>
	  <point x="-230" y="-203" type="curve" smooth="yes"/>
	  <point x="-230" y="-175"/>
	  <point x="-168" y="-153"/>
	  <point x="-120" y="-145" type="curve"/>
	  <point x="-140" y="-115" type="line"/>
	  <point x="-212" y="-115"/>
	  <point x="-233" y="-100"/>
	  <point x="-233" y="-85" type="curve" smooth="yes"/>
	  <point x="-233" y="-63"/>
	  <point x="-187" y="-39"/>
	  <point x="-30" y="0" type="curve"/>
	  <point x="-130" y="0" type="line"/>
	  <point x="-232" y="-16"/>
	  <point x="-365" y="-39"/>
	  <point x="-365" y="-85" type="curve" smooth="yes"/>
	  <point x="-365" y="-110"/>
	  <point x="-318" y="-134"/>
	  <point x="-267" y="-134" type="curve"/>
	</contour>
	<contour>
	  <point x="-135" y="0" type="move" name="_bottom"/>
	</contour>
  </outline>
</glyph>
<glyph name="eCandraMatra-deva" format="1">
  <advance width="0"/>
  <unicode hex="0945"/>
  <outline>
	<contour>
	  <point x="-7" y="648"/>
	  <point x="-48" y="600"/>
	  <point x="-106" y="600" type="curve" smooth="yes"/>
	  <point x="-163" y="600"/>
	  <point x="-196" y="649"/>
	  <point x="-210" y="720" type="curve"/>
	  <point x="-321" y="680" type="line"/>
	  <point x="-300" y="608"/>
	  <point x="-226" y="560"/>
	  <point x="-135" y="560" type="curve" smooth="yes"/>
	  <point x="-39" y="560"/>
	  <point x="19" y="618"/>
	  <point x="42" y="707" type="curve"/>
	  <point x="15" y="720" type="line"/>
	</contour>
	<contour>
	  <point x="-135" y="500" type="move" name="_top"/>
	</contour>
  </outline>
</glyph>
<glyph name="eShortMatra-deva" format="1">
  <advance width="0"/>
  <unicode hex="0946"/>
  <outline>
	<contour>
	  <point x="-570" y="710" type="line"/>
	  <point x="-493" y="520"/>
	  <point x="-190" y="654"/>
	  <point x="-190" y="500" type="curve"/>
	  <point x="-80" y="500" type="line"/>
	  <point x="-80" y="690"/>
	  <point x="-369" y="548"/>
	  <point x="-450" y="750" type="curve"/>
	</contour>
	<contour>
	  <point x="-135" y="500" type="move" name="_top"/>
	</contour>
  </outline>
</glyph>
<glyph name="eMatra-deva" format="1">
  <advance width="0"/>
  <unicode hex="0947"/>
  <outline>
	<contour>
	  <point x="-457" y="695" type="line"/>
	  <point x="-327" y="695"/>
	  <point x="-261" y="500"/>
	  <point x="-135" y="500" type="curve" smooth="yes"/>
	  <point x="-84" y="500"/>
	  <point x="-61" y="513"/>
	  <point x="-40" y="540" type="curve"/>
	  <point x="-156" y="540"/>
	  <point x="-255" y="750"/>
	  <point x="-373" y="750" type="curve"/>
	</contour>
	<contour>
	  <point x="-135" y="500" type="move" name="_top"/>
	</contour>
  </outline>
</glyph>
<glyph name="aiMatra-deva" format="1">
  <advance width="0"/>
  <unicode hex="0948"/>
  <outline>
	<contour>
	  <point x="-294" y="695" type="line"/>
	  <point x="-180" y="695"/>
	  <point x="-130" y="593"/>
	  <point x="-119" y="528" type="curve"/>
	  <point x="-123" y="528" type="line"/>
	  <point x="-179" y="621"/>
	  <point x="-221" y="667"/>
	  <point x="-308" y="667" type="curve"/>
	  <point x="-389" y="604" type="line"/>
	  <point x="-242" y="604"/>
	  <point x="-228" y="500"/>
	  <point x="-131" y="500" type="curve" smooth="yes"/>
	  <point x="-87" y="500"/>
	  <point x="-66" y="516"/>
	  <point x="-42" y="540" type="curve"/>
	  <point x="-81" y="572"/>
	  <point x="-95" y="748"/>
	  <point x="-213" y="758" type="curve"/>
	</contour>
	<contour>
	  <point x="-141" y="500" type="move" name="_top"/>
	</contour>
  </outline>
</glyph>
<glyph name="halant-deva" format="1">
  <advance width="0"/>
  <unicode hex="094D"/>
  <outline>
	<contour>
	  <point x="-282" y="-111" type="line"/>
	  <point x="-249" y="-155" type="line"/>
	  <point x="-171" y="-110" type="line"/>
	  <point x="-15" y="-259" type="line"/>
	  <point x="56" y="-211" type="line"/>
	  <point x="-135" y="-25" type="line"/>
	</contour>
	<contour>
	  <point x="-135" y="0" type="move" name="_bottom"/>
	</contour>
  </outline>
</glyph>
<glyph name="om-deva" format="1">
  <advance width="938"/>
  <unicode hex="0950"/>
  <outline>
	<contour>
	  <point x="451" y="220" type="line"/>
	  <point x="602" y="220"/>
	  <point x="611" y="405"/>
	  <point x="686" y="405" type="curve" smooth="yes"/>
	  <point x="733" y="405"/>
	  <point x="771" y="345"/>
	  <point x="771" y="270" type="curve" smooth="yes"/>
	  <point x="771" y="170"/>
	  <point x="737" y="90"/>
	  <point x="696" y="90" type="curve" smooth="yes"/>
	  <point x="642" y="90"/>
	  <point x="630" y="222"/>
	  <point x="651" y="275" type="curve"/>
	  <point x="521" y="210" type="line"/>
	  <point x="521" y="122"/>
	  <point x="595" y="50"/>
	  <point x="686" y="50" type="curve" smooth="yes"/>
	  <point x="809" y="50"/>
	  <point x="907" y="149"/>
	  <point x="907" y="270" type="curve" smooth="yes"/>
	  <point x="907" y="370"/>
	  <point x="817" y="450"/>
	  <point x="706" y="450" type="curve" smooth="yes"/>
	  <point x="481" y="450"/>
	  <point x="509" y="220"/>
	  <point x="411" y="260" type="curve"/>
	</contour>
	<contour>
	  <point x="132" y="510"/>
	  <point x="38" y="461"/>
	  <point x="38" y="400" type="curve" smooth="yes"/>
	  <point x="38" y="367"/>
	  <point x="76" y="340"/>
	  <point x="123" y="340" type="curve" smooth="yes"/>
	  <point x="144" y="340"/>
	  <point x="170" y="350"/>
	  <point x="198" y="370" type="curve"/>
	  <point x="183" y="383"/>
	  <point x="174" y="399"/>
	  <point x="174" y="415" type="curve" smooth="yes"/>
	  <point x="174" y="446"/>
	  <point x="204" y="470"/>
	  <point x="243" y="470" type="curve" smooth="yes"/>
	  <point x="279" y="470"/>
	  <point x="308" y="443"/>
	  <point x="308" y="410" type="curve" smooth="yes"/>
	  <point x="308" y="344"/>
	  <point x="277" y="310"/>
	  <point x="183" y="310" type="curve"/>
	  <point x="148" y="250" type="line"/>
	  <point x="166" y="257"/>
	  <point x="188" y="260"/>
	  <point x="213" y="260" type="curve" smooth="yes"/>
	  <point x="285" y="260"/>
	  <point x="343" y="207"/>
	  <point x="343" y="140" type="curve" smooth="yes"/>
	  <point x="343" y="83"/>
	  <point x="302" y="35"/>
	  <point x="253" y="35" type="curve" smooth="yes"/>
	  <point x="204" y="35"/>
	  <point x="164" y="78"/>
	  <point x="164" y="130" type="curve" smooth="yes"/>
	  <point x="164" y="153"/>
	  <point x="167" y="169"/>
	  <point x="173" y="180" type="curve"/>
	  <point x="93" y="180"/>
	  <point x="28" y="149"/>
	  <point x="28" y="110" type="curve" smooth="yes"/>
	  <point x="28" y="43"/>
	  <point x="129" y="-10"/>
	  <point x="253" y="-10" type="curve" smooth="yes"/>
	  <point x="378" y="-10"/>
	  <point x="479" y="57"/>
	  <point x="479" y="140" type="curve" smooth="yes"/>
	  <point x="479" y="228"/>
	  <point x="419" y="275"/>
	  <point x="323" y="300" type="curve"/>
	  <point x="395" y="319"/>
	  <point x="444" y="365"/>
	  <point x="444" y="410" type="curve" smooth="yes"/>
	  <point x="444" y="465"/>
	  <point x="356" y="510"/>
	  <point x="248" y="510" type="curve" smooth="yes"/>
	</contour>
	<component base="candraBindu-deva" xOffset="732" yOffset="-59"/>
  </outline>
</glyph>
<glyph name="udatta-deva" format="1">
  <advance width="0"/>
  <unicode hex="0951"/>
  <outline>
	<contour>
	  <point x="-180" y="820" type="line"/>
	  <point x="-180" y="590" type="line"/>
	  <point x="-90" y="590" type="line"/>
	  <point x="-90" y="820" type="line"/>
	</contour>
	<contour>
	  <point x="-135" y="550" type="move" name="_top"/>
	</contour>
  </outline>
</glyph>
<glyph name="uni0956" format="1">
  <advance width="0"/>
  <unicode hex="0956"/>
  <outline>
	<contour>
	  <point x="-22" y="-79"/>
	  <point x="-62" y="-109"/>
	  <point x="-123" y="-109" type="curve" smooth="yes"/>
	  <point x="-185" y="-109"/>
	  <point x="-222" y="-74"/>
	  <point x="-235" y="-42" type="curve"/>
	  <point x="-333" y="-81" type="line"/>
	  <point x="-314" y="-122"/>
	  <point x="-242" y="-167"/>
	  <point x="-153" y="-167" type="curve" smooth="yes"/>
	  <point x="-47" y="-167"/>
	  <point x="4" y="-109"/>
	  <point x="27" y="-52" type="curve"/>
	  <point x="2" y="-42" type="line"/>
	</contour>
	<contour>
	  <point x="-151" y="0" type="move" name="_bottom"/>
	</contour>
  </outline>
</glyph>
<glyph name="uni0957" format="1">
  <advance width="0"/>
  <unicode hex="0957"/>
  <outline>
	<contour>
	  <point x="-22" y="-79"/>
	  <point x="-62" y="-109"/>
	  <point x="-123" y="-109" type="curve" smooth="yes"/>
	  <point x="-185" y="-109"/>
	  <point x="-222" y="-74"/>
	  <point x="-235" y="-42" type="curve"/>
	  <point x="-333" y="-81" type="line"/>
	  <point x="-314" y="-122"/>
	  <point x="-242" y="-167"/>
	  <point x="-153" y="-167" type="curve" smooth="yes"/>
	  <point x="-47" y="-167"/>
	  <point x="4" y="-109"/>
	  <point x="27" y="-52" type="curve"/>
	  <point x="2" y="-42" type="line"/>
	</contour>
	<contour>
	  <point x="-22" y="-219"/>
	  <point x="-62" y="-249"/>
	  <point x="-123" y="-249" type="curve" smooth="yes"/>
	  <point x="-185" y="-249"/>
	  <point x="-222" y="-214"/>
	  <point x="-235" y="-182" type="curve"/>
	  <point x="-333" y="-221" type="line"/>
	  <point x="-314" y="-262"/>
	  <point x="-242" y="-307"/>
	  <point x="-153" y="-307" type="curve" smooth="yes"/>
	  <point x="-47" y="-307"/>
	  <point x="4" y="-249"/>
	  <point x="27" y="-192" type="curve"/>
	  <point x="2" y="-182" type="line"/>
	</contour>
	<contour>
	  <point x="-151" y="0" type="move" name="_bottom"/>
	</contour>
  </outline>
</glyph>
<glyph name="dddha-deva" format="1">
  <advance width="532"/>
  <unicode hex="095C"/>
  <outline>
	<component base="dda-deva"/>
	<component base="nukta-deva" xOffset="404" yOffset="-100"/>
	<contour>
	  <point x="364" y="500" type="move" name="top"/>
	</contour>
	<contour>
	  <point x="364" y="0" type="move" name="bottom"/>
	</contour>
  </outline>
</glyph>
<glyph name="rha-deva" format="1">
  <advance width="584"/>
  <unicode hex="095D"/>
  <outline>
	<component base="ddha-deva"/>
	<component base="nukta-deva" xOffset="427" yOffset="-100"/>
	<contour>
	  <point x="292" y="-100" type="move" name="nukta"/>
	</contour>
	<contour>
	  <point x="392" y="0" type="move" name="bottom"/>
	</contour>
	<contour>
	  <point x="392" y="500" type="move" name="top"/>
	</contour>
  </outline>
</glyph>
<glyph name="fa-deva" format="1">
  <advance width="858"/>
  <unicode hex="095E"/>
  <outline>
	<component base="pha-deva"/>
	<component base="nukta-deva" xOffset="316" yOffset="-65"/>
	<contour>
	  <point x="426" y="500" type="move" name="top"/>
	</contour>
	<contour>
	  <point x="426" y="0" type="move" name="bottom"/>
	</contour>
  </outline>
</glyph>
<glyph name="rrVocalic-deva" format="1">
  <advance width="837"/>
  <unicode hex="0960"/>
  <outline>
	<contour>
	  <point x="-10" y="500" type="line"/>
	  <point x="-10" y="470" type="line"/>
	  <point x="378" y="470" type="line"/>
	  <point x="378" y="211" type="line"/>
	  <point x="293" y="170" type="line"/>
	  <point x="332" y="202"/>
	  <point x="354" y="243"/>
	  <point x="354" y="280" type="curve" smooth="yes"/>
	  <point x="354" y="352"/>
	  <point x="278" y="410"/>
	  <point x="183" y="410" type="curve" smooth="yes"/>
	  <point x="111" y="410"/>
	  <point x="49" y="377"/>
	  <point x="18" y="325" type="curve"/>
	  <point x="33" y="270" type="line"/>
	  <point x="60" y="317"/>
	  <point x="99" y="345"/>
	  <point x="138" y="345" type="curve" smooth="yes"/>
	  <point x="195" y="345"/>
	  <point x="223" y="307"/>
	  <point x="223" y="262" type="curve" smooth="yes"/>
	  <point x="223" y="198"/>
	  <point x="190" y="134"/>
	  <point x="29" y="38" type="curve"/>
	  <point x="48" y="1" type="line"/>
	  <point x="378" y="161" type="line"/>
	  <point x="378" y="0" type="line"/>
	  <point x="508" y="0" type="line"/>
	  <point x="508" y="224" type="line"/>
	  <point x="608" y="272" type="line"/>
	  <point x="628" y="235" type="line"/>
	  <point x="587" y="207"/>
	  <point x="563" y="165"/>
	  <point x="563" y="125" type="curve" smooth="yes"/>
	  <point x="563" y="64"/>
	  <point x="621" y="15"/>
	  <point x="693" y="15" type="curve" smooth="yes"/>
	  <point x="746" y="15"/>
	  <point x="796" y="36"/>
	  <point x="828" y="75" type="curve"/>
	  <point x="803" y="115" type="line"/>
	  <point x="786" y="92"/>
	  <point x="759" y="79"/>
	  <point x="734" y="79" type="curve" smooth="yes"/>
	  <point x="700" y="79"/>
	  <point x="673" y="99"/>
	  <point x="673" y="150" type="curve" smooth="yes"/>
	  <point x="673" y="195"/>
	  <point x="699" y="235"/>
	  <point x="738" y="250" type="curve"/>
	  <point x="701" y="317" type="line"/>
	  <point x="722" y="327"/>
	  <point x="732" y="351"/>
	  <point x="732" y="370" type="curve" smooth="yes"/>
	  <point x="732" y="399"/>
	  <point x="699" y="425"/>
	  <point x="648" y="425" type="curve" smooth="yes"/>
	  <point x="594" y="425"/>
	  <point x="562" y="405"/>
	  <point x="562" y="371" type="curve" smooth="yes"/>
	  <point x="562" y="354"/>
	  <point x="570" y="335"/>
	  <point x="586" y="312" type="curve"/>
	  <point x="508" y="274" type="line"/>
	  <point x="508" y="470" type="line"/>
	  <point x="847" y="470" type="line"/>
	  <point x="847" y="500" type="line"/>
	</contour>
	<contour>
	  <point x="443" y="500" type="move" name="top"/>
	</contour>
	<contour>
	  <point x="443" y="0" type="move" name="bottom"/>
	</contour>
  </outline>
</glyph>
<glyph name="llVocalicMatra-deva" format="1">
  <advance width="0"/>
  <unicode hex="0963"/>
  <outline>
	<contour>
	  <point x="24" y="-356"/>
	  <point x="73" y="-340"/>
	  <point x="93" y="-320" type="curve"/>
	  <point x="59" y="-267" type="line"/>
	  <point x="49" y="-283"/>
	  <point x="29" y="-292"/>
	  <point x="13" y="-292" type="curve" smooth="yes"/>
	  <point x="-2" y="-292"/>
	  <point x="-14" y="-284"/>
	  <point x="-14" y="-267" type="curve"/>
	  <point x="-14" y="-245"/>
	  <point x="14" y="-227"/>
	  <point x="57" y="-221" type="curve"/>
	  <point x="42" y="-198" type="line"/>
	  <point x="1" y="-198"/>
	  <point x="-14" y="-191"/>
	  <point x="-14" y="-175" type="curve"/>
	  <point x="-14" y="-132"/>
	  <point x="73" y="-122"/>
	  <point x="73" y="-64" type="curve"/>
	  <point x="73" y="-15"/>
	  <point x="33" y="13"/>
	  <point x="-30" y="13" type="curve"/>
	  <point x="-81" y="13"/>
	  <point x="-114" y="-8"/>
	  <point x="-135" y="-34" type="curve"/>
	  <point x="-147" y="-5"/>
	  <point x="-183" y="13"/>
	  <point x="-229" y="13" type="curve" smooth="yes"/>
	  <point x="-296" y="13"/>
	  <point x="-354" y="-34"/>
	  <point x="-354" y="-92" type="curve" smooth="yes"/>
	  <point x="-354" y="-159"/>
	  <point x="-294" y="-213"/>
	  <point x="-222" y="-213" type="curve"/>
	  <point x="-167" y="-177" type="line"/>
	  <point x="-212" y="-177"/>
	  <point x="-249" y="-133"/>
	  <point x="-249" y="-77" type="curve" smooth="yes"/>
	  <point x="-249" y="-38"/>
	  <point x="-234" y="-27"/>
	  <point x="-220" y="-27" type="curve" smooth="yes"/>
	  <point x="-197" y="-27"/>
	  <point x="-173" y="-58"/>
	  <point x="-173" y="-99" type="curve"/>
	  <point x="-104" y="-99" type="line"/>
	  <point x="-104" y="-58"/>
	  <point x="-79" y="-27"/>
	  <point x="-63" y="-27" type="curve" smooth="yes"/>
	  <point x="-51" y="-27"/>
	  <point x="-33" y="-39"/>
	  <point x="-33" y="-76" type="curve"/>
	  <point x="-33" y="-138"/>
	  <point x="-107" y="-146"/>
	  <point x="-107" y="-185" type="curve"/>
	  <point x="-107" y="-202"/>
	  <point x="-91" y="-217"/>
	  <point x="-50" y="-217" type="curve"/>
	  <point x="-50" y="-220" type="line"/>
	  <point x="-90" y="-231"/>
	  <point x="-117" y="-256"/>
	  <point x="-117" y="-285" type="curve"/>
	  <point x="-117" y="-337"/>
	  <point x="-71" y="-356"/>
	  <point x="-22" y="-356" type="curve" smooth="yes"/>
	</contour>
  </outline>
</glyph>
<glyph name="dbldanda-deva" format="1">
  <advance width="610"/>
  <unicode hex="0965"/>
  <outline>
	<contour>
	  <point x="410" y="540" type="line"/>
	  <point x="410" y="-40" type="line"/>
	  <point x="540" y="-40" type="line"/>
	  <point x="540" y="540" type="line"/>
	</contour>
	<contour>
	  <point x="140" y="540" type="line"/>
	  <point x="140" y="-40" type="line"/>
	  <point x="270" y="-40" type="line"/>
	  <point x="270" y="540" type="line"/>
	</contour>
  </outline>
</glyph>
<glyph name="six-deva" format="1">
  <advance width="550"/>
  <unicode hex="096C"/>
  <outline>
	<contour>
	  <point x="171" y="505"/>
	  <point x="75" y="477"/>
	  <point x="75" y="393" type="curve" smooth="yes"/>
	  <point x="75" y="335"/>
	  <point x="125" y="296"/>
	  <point x="200" y="281" type="curve"/>
	  <point x="113" y="266"/>
	  <point x="50" y="206"/>
	  <point x="50" y="138" type="curve" smooth="yes"/>
	  <point x="50" y="54"/>
	  <point x="151" y="-15"/>
	  <point x="275" y="-15" type="curve" smooth="yes"/>
	  <point x="374" y="-15"/>
	  <point x="460" y="30"/>
	  <point x="500" y="102" type="curve"/>
	  <point x="470" y="128" type="line"/>
	  <point x="437" y="75"/>
	  <point x="366" y="41"/>
	  <point x="295" y="41" type="curve" smooth="yes"/>
	  <point x="226" y="41"/>
	  <point x="180" y="92"/>
	  <point x="180" y="153" type="curve" smooth="yes"/>
	  <point x="180" y="214"/>
	  <point x="243" y="261"/>
	  <point x="370" y="261" type="curve"/>
	  <point x="370" y="301" type="line"/>
	  <point x="278" y="301"/>
	  <point x="205" y="342"/>
	  <point x="205" y="413" type="curve" smooth="yes"/>
	  <point x="205" y="444"/>
	  <point x="231" y="469"/>
	  <point x="264" y="469" type="curve" smooth="yes"/>
	  <point x="303" y="469"/>
	  <point x="336" y="427"/>
	  <point x="345" y="383" type="curve"/>
	  <point x="396" y="383"/>
	  <point x="470" y="396"/>
	  <point x="470" y="429" type="curve" smooth="yes"/>
	  <point x="470" y="474"/>
	  <point x="367" y="505"/>
	  <point x="290" y="505" type="curve" smooth="yes"/>
	</contour>
  </outline>
</glyph>
<glyph name="seven-deva" format="1">
  <advance width="549"/>
  <unicode hex="096D"/>
  <outline>
	<contour>
	  <point x="56" y="453" type="line"/>
	  <point x="45" y="411"/>
	  <point x="39" y="377"/>
	  <point x="39" y="352" type="curve" smooth="yes"/>
	  <point x="39" y="149"/>
	  <point x="165" y="-15"/>
	  <point x="318" y="-15" type="curve" smooth="yes"/>
	  <point x="430" y="-15"/>
	  <point x="520" y="86"/>
	  <point x="520" y="210" type="curve" smooth="yes"/>
	  <point x="520" y="329"/>
	  <point x="436" y="425"/>
	  <point x="334" y="425" type="curve" smooth="yes"/>
	  <point x="266" y="425"/>
	  <point x="201" y="369"/>
	  <point x="201" y="301" type="curve" smooth="yes"/>
	  <point x="201" y="232"/>
	  <point x="252" y="175"/>
	  <point x="315" y="175" type="curve" smooth="yes"/>
	  <point x="345" y="175"/>
	  <point x="372" y="194"/>
	  <point x="384" y="222" type="curve"/>
	  <point x="392" y="200"/>
	  <point x="396" y="176"/>
	  <point x="396" y="148" type="curve" smooth="yes"/>
	  <point x="396" y="81"/>
	  <point x="371" y="26"/>
	  <point x="328" y="26" type="curve" smooth="yes"/>
	  <point x="237" y="26"/>
	  <point x="163" y="174"/>
	  <point x="163" y="355" type="curve" smooth="yes"/>
	  <point x="163" y="394"/>
	  <point x="170" y="440"/>
	  <point x="185" y="495" type="curve"/>
	</contour>
	<contour>
	  <point x="354" y="384"/>
	  <point x="370" y="339"/>
	  <point x="370" y="284" type="curve" smooth="yes"/>
	  <point x="370" y="261"/>
	  <point x="362" y="239"/>
	  <point x="346" y="239" type="curve" smooth="yes"/>
	  <point x="325" y="239"/>
	  <point x="315" y="273"/>
	  <point x="315" y="316" type="curve" smooth="yes"/>
	  <point x="315" y="352"/>
	  <point x="323" y="384"/>
	  <point x="338" y="384" type="curve" smooth="yes"/>
	</contour>
  </outline>
</glyph>
<glyph name="aCandra-deva" format="1">
  <advance width="718"/>
  <unicode hex="0972"/>
  <outline>
	<component base="a-deva"/>
	<component base="eCandraMatra-deva" xOffset="718"/>
	<contour>
	  <point x="253" y="-110" type="move" name="nukta"/>
	</contour>
	<contour>
	  <point x="583" y="0" type="move" name="bottom"/>
	</contour>
	<contour>
	  <point x="583" y="500" type="move" name="top"/>
	</contour>
  </outline>
</glyph>
<glyph name="zha-deva" format="1">
  <advance width="735"/>
  <unicode hex="0979"/>
  <outline>
	<component base="ja-deva"/>
	<component base="nukta-deva" xOffset="245" yOffset="-65"/>
	<component base="nukta-deva" xOffset="485" yOffset="-65"/>
	<component base="nukta-deva" xOffset="365" yOffset="-175"/>
	<contour>
	  <point x="260" y="-65" type="move" name="nukta"/>
	</contour>
	<contour>
	  <point x="600" y="0" type="move" name="bottom"/>
	</contour>
	<contour>
	  <point x="600" y="500" type="move" name="top"/>
	</contour>
  </outline>
</glyph>
<glyph name="jjya-deva" format="1">
  <advance width="583"/>
  <unicode hex="097A"/>
  <outline>
	<contour>
	  <point x="200" y="341" type="line"/>
	  <point x="415" y="169" type="line"/>
	  <point x="463" y="207" type="line"/>
	  <point x="248" y="379" type="line"/>
	</contour>
	<component base="ya-deva"/>
	<contour>
	  <point x="113" y="-65" type="move" name="nukta"/>
	</contour>
	<contour>
	  <point x="448" y="0" type="move" name="bottom"/>
	</contour>
	<contour>
	  <point x="448" y="500" type="move" name="top"/>
	</contour>
  </outline>
</glyph>
<glyph name="endash" format="1">
  <advance width="386"/>
  <unicode hex="2013"/>
  <outline>
	<contour>
	  <point x="39" y="182" type="line"/>
	  <point x="347" y="182" type="line"/>
	  <point x="347" y="264" type="line"/>
	  <point x="39" y="264" type="line"/>
	</contour>
  </outline>
</glyph>
<glyph name="dagger" format="1">
  <advance width="348"/>
  <unicode hex="2020"/>
  <outline>
	<contour>
	  <point x="105" y="511" type="line"/>
	  <point x="127" y="0" type="line"/>
	  <point x="221" y="0" type="line"/>
	  <point x="243" y="511" type="line"/>
	</contour>
	<contour>
	  <point x="4" y="311" type="line"/>
	  <point x="122" y="321" type="line"/>
	  <point x="122" y="399" type="line"/>
	  <point x="4" y="407" type="line"/>
	</contour>
	<contour>
	  <point x="344" y="407" type="line"/>
	  <point x="226" y="399" type="line"/>
	  <point x="226" y="321" type="line"/>
	  <point x="344" y="311" type="line"/>
	</contour>
  </outline>
</glyph>
<glyph name="daggerdbl" format="1">
  <advance width="348"/>
  <unicode hex="2021"/>
  <outline>
	<contour>
	  <point x="105" y="511" type="line"/>
	  <point x="127" y="255" type="line"/>
	  <point x="221" y="255" type="line"/>
	  <point x="243" y="511" type="line"/>
	</contour>
	<contour>
	  <point x="243" y="0" type="line"/>
	  <point x="221" y="255" type="line"/>
	  <point x="127" y="255" type="line"/>
	  <point x="105" y="0" type="line"/>
	</contour>
	<contour>
	  <point x="4" y="311" type="line"/>
	  <point x="124" y="321" type="line"/>
	  <point x="124" y="399" type="line"/>
	  <point x="4" y="407" type="line"/>
	</contour>
	<contour>
	  <point x="344" y="407" type="line"/>
	  <point x="224" y="399" type="line"/>
	  <point x="224" y="321" type="line"/>
	  <point x="344" y="311" type="line"/>
	</contour>
	<contour>
	  <point x="4" y="104" type="line"/>
	  <point x="124" y="112" type="line"/>
	  <point x="124" y="190" type="line"/>
	  <point x="4" y="200" type="line"/>
	</contour>
	<contour>
	  <point x="344" y="200" type="line"/>
	  <point x="224" y="190" type="line"/>
	  <point x="224" y="112" type="line"/>
	  <point x="344" y="104" type="line"/>
	</contour>
  </outline>
</glyph>
<glyph name="foursuperior" format="1">
  <advance width="321"/>
  <unicode hex="2074"/>
  <outline>
	<contour>
	  <point x="120" y="561" type="line"/>
	  <point x="26" y="382" type="line"/>
	  <point x="26" y="322" type="line"/>
	  <point x="284" y="322" type="line"/>
	  <point x="284" y="393" type="line"/>
	  <point x="100" y="393" type="line"/>
	  <point x="186" y="561" type="line"/>
	</contour>
	<contour>
	  <point x="261" y="280" type="line"/>
	  <point x="261" y="561" type="line"/>
	  <point x="168" y="561" type="line"/>
	  <point x="168" y="280" type="line"/>
	</contour>
  </outline>
</glyph>
<glyph name="sixsuperior" format="1">
  <advance width="321"/>
  <unicode hex="2076"/>
  <outline>
	<contour>
	  <point x="276" y="475" type="line"/>
	  <point x="273" y="537"/>
	  <point x="235" y="566"/>
	  <point x="163" y="566" type="curve" smooth="yes"/>
	  <point x="59" y="566"/>
	  <point x="35" y="497"/>
	  <point x="35" y="406" type="curve" smooth="yes"/>
	  <point x="35" y="343"/>
	  <point x="67" y="274"/>
	  <point x="162" y="274" type="curve" smooth="yes"/>
	  <point x="244" y="274"/>
	  <point x="283" y="303"/>
	  <point x="283" y="366" type="curve" smooth="yes"/>
	  <point x="283" y="427"/>
	  <point x="251" y="452"/>
	  <point x="181" y="452" type="curve" smooth="yes"/>
	  <point x="162" y="452"/>
	  <point x="136" y="451"/>
	  <point x="104" y="442" type="curve"/>
	  <point x="104" y="403" type="line"/>
	  <point x="120" y="410"/>
	  <point x="137" y="413"/>
	  <point x="149" y="413" type="curve" smooth="yes"/>
	  <point x="182" y="413"/>
	  <point x="191" y="396"/>
	  <point x="191" y="366" type="curve" smooth="yes"/>
	  <point x="191" y="329"/>
	  <point x="182" y="311"/>
	  <point x="162" y="311" type="curve" smooth="yes"/>
	  <point x="137" y="311"/>
	  <point x="127" y="326"/>
	  <point x="127" y="415" type="curve" smooth="yes"/>
	  <point x="127" y="500"/>
	  <point x="131" y="530"/>
	  <point x="163" y="530" type="curve" smooth="yes"/>
	  <point x="184" y="530"/>
	  <point x="194" y="502"/>
	  <point x="193" y="468" type="curve"/>
	</contour>
  </outline>
</glyph>
<glyph name="Euro" format="1">
  <advance width="441"/>
  <unicode hex="20AC"/>
  <outline>
	<contour>
	  <point x="193" y="41"/>
	  <point x="177" y="130"/>
	  <point x="177" y="255" type="curve" smooth="yes"/>
	  <point x="177" y="381"/>
	  <point x="193" y="470"/>
	  <point x="258" y="470" type="curve" smooth="yes"/>
	  <point x="295" y="470"/>
	  <point x="319" y="434"/>
	  <point x="319" y="369" type="curve"/>
	  <point x="432" y="378" type="line"/>
	  <point x="431" y="464"/>
	  <point x="386" y="521"/>
	  <point x="258" y="521" type="curve" smooth="yes"/>
	  <point x="97" y="521"/>
	  <point x="48" y="400"/>
	  <point x="48" y="255" type="curve" smooth="yes"/>
	  <point x="48" y="111"/>
	  <point x="97" y="-10"/>
	  <point x="258" y="-10" type="curve" smooth="yes"/>
	  <point x="387" y="-10"/>
	  <point x="433" y="47"/>
	  <point x="434" y="135" type="curve"/>
	  <point x="320" y="142" type="line"/>
	  <point x="320" y="78"/>
	  <point x="298" y="41"/>
	  <point x="258" y="41" type="curve" smooth="yes"/>
	</contour>
	<contour>
	  <point x="7" y="159" type="line"/>
	  <point x="280" y="159" type="line"/>
	  <point x="280" y="235" type="line"/>
	  <point x="7" y="235" type="line"/>
	</contour>
	<contour>
	  <point x="7" y="276" type="line"/>
	  <point x="280" y="276" type="line"/>
	  <point x="280" y="352" type="line"/>
	  <point x="7" y="352" type="line"/>
	</contour>
  </outline>
</glyph>
<glyph name="trademark" format="1">
  <advance width="699"/>
  <unicode hex="2122"/>
  <outline>
	<contour>
	  <point x="491" y="251" type="line"/>
	  <point x="422" y="558" type="line"/>
	  <point x="339" y="558" type="line"/>
	  <point x="410" y="251" type="line"/>
	</contour>
	<contour>
	  <point x="198" y="251" type="line"/>
	  <point x="198" y="509" type="line"/>
	  <point x="91" y="509" type="line"/>
	  <point x="91" y="251" type="line"/>
	</contour>
	<contour>
	  <point x="270" y="509" type="line"/>
	  <point x="270" y="558" type="line"/>
	  <point x="20" y="558" type="line"/>
	  <point x="20" y="509" type="line"/>
	</contour>
	<contour>
	  <point x="349" y="251" type="line"/>
	  <point x="359" y="558" type="line"/>
	  <point x="298" y="558" type="line"/>
	  <point x="285" y="251" type="line"/>
	</contour>
	<contour>
	  <point x="501" y="251" type="line"/>
	  <point x="574" y="558" type="line"/>
	  <point x="519" y="558" type="line"/>
	  <point x="449" y="251" type="line"/>
	</contour>
	<contour>
	  <point x="667" y="251" type="line"/>
	  <point x="652" y="558" type="line"/>
	  <point x="551" y="558" type="line"/>
	  <point x="561" y="251" type="line"/>
	</contour>
	<contour>
	  <point x="125" y="150" type="move" name="center"/>
	</contour>
  </outline>
</glyph>
<glyph name="Omega" format="1">
  <advance width="549"/>
  <unicode hex="2126"/>
  <outline>
	<contour>
	  <point x="136" y="153" type="line"/>
	  <point x="136" y="0" type="line"/>
	  <point x="231" y="0" type="line"/>
	  <point x="231" y="131" type="line"/>
	</contour>
	<contour>
	  <point x="46" y="0" type="line"/>
	  <point x="136" y="0" type="line"/>
	  <point x="136" y="82" type="line"/>
	  <point x="46" y="82" type="line"/>
	</contour>
	<contour>
	  <point x="371" y="470"/>
	  <point x="404" y="398"/>
	  <point x="404" y="304" type="curve" smooth="yes"/>
	  <point x="404" y="219"/>
	  <point x="372" y="169"/>
	  <point x="318" y="135" type="curve"/>
	  <point x="318" y="88" type="line"/>
	  <point x="473" y="111"/>
	  <point x="525" y="230"/>
	  <point x="525" y="306" type="curve" smooth="yes"/>
	  <point x="525" y="412"/>
	  <point x="466" y="522"/>
	  <point x="274" y="522" type="curve" smooth="yes"/>
	  <point x="83" y="522"/>
	  <point x="25" y="412"/>
	  <point x="25" y="306" type="curve" smooth="yes"/>
	  <point x="25" y="230"/>
	  <point x="76" y="111"/>
	  <point x="231" y="88" type="curve"/>
	  <point x="231" y="135" type="line"/>
	  <point x="177" y="169"/>
	  <point x="145" y="219"/>
	  <point x="145" y="304" type="curve" smooth="yes"/>
	  <point x="145" y="398"/>
	  <point x="178" y="470"/>
	  <point x="274" y="470" type="curve" smooth="yes"/>
	</contour>
	<contour>
	  <point x="318" y="131" type="line"/>
	  <point x="318" y="0" type="line"/>
	  <point x="413" y="0" type="line"/>
	  <point x="413" y="153" type="line"/>
	</contour>
	<contour>
	  <point x="503" y="82" type="line"/>
	  <point x="413" y="82" type="line"/>
	  <point x="413" y="0" type="line"/>
	  <point x="503" y="0" type="line"/>
	</contour>
	<contour>
	  <point x="14" y="511" type="move" name="topleft"/>
	</contour>
  </outline>
</glyph>
<glyph name="product" format="1">
  <advance width="541"/>
  <unicode hex="220F"/>
  <outline>
	<contour>
	  <point x="341" y="511" type="line"/>
	  <point x="341" y="-110" type="line"/>
	  <point x="470" y="-110" type="line"/>
	  <point x="470" y="511" type="line"/>
	</contour>
	<contour>
	  <point x="70" y="511" type="line"/>
	  <point x="70" y="-110" type="line"/>
	  <point x="199" y="-110" type="line"/>
	  <point x="199" y="511" type="line"/>
	</contour>
	<contour>
	  <point x="25" y="429" type="line"/>
	  <point x="516" y="429" type="line"/>
	  <point x="516" y="511" type="line"/>
	  <point x="25" y="511" type="line"/>
	</contour>
  </outline>
</glyph>
<glyph name="minus" format="1">
  <advance width="406"/>
  <unicode hex="2212"/>
  <outline>
	<contour>
	  <point x="56" y="182" type="line"/>
	  <point x="350" y="182" type="line"/>
	  <point x="350" y="264" type="line"/>
	  <point x="56" y="264" type="line"/>
	</contour>
  </outline>
</glyph>
<glyph name="infinity" format="1">
  <advance width="407"/>
  <unicode hex="221E"/>
  <outline>
	<contour>
	  <point x="165" y="232" type="line" smooth="yes"/>
	  <point x="159" y="204"/>
	  <point x="152" y="174"/>
	  <point x="132" y="174" type="curve" smooth="yes"/>
	  <point x="111" y="174"/>
	  <point x="100" y="182"/>
	  <point x="100" y="223" type="curve" smooth="yes"/>
	  <point x="100" y="264"/>
	  <point x="111" y="271"/>
	  <point x="132" y="271" type="curve" smooth="yes"/>
	  <point x="152" y="271"/>
	  <point x="168" y="244"/>
	  <point x="172" y="234" type="curve"/>
	  <point x="238" y="237" type="line"/>
	  <point x="225" y="326"/>
	  <point x="202" y="370"/>
	  <point x="116" y="370" type="curve" smooth="yes"/>
	  <point x="51" y="370"/>
	  <point x="8" y="339"/>
	  <point x="8" y="223" type="curve" smooth="yes"/>
	  <point x="8" y="107"/>
	  <point x="51" y="76"/>
	  <point x="116" y="76" type="curve" smooth="yes"/>
	  <point x="202" y="76"/>
	  <point x="218" y="115"/>
	  <point x="238" y="202" type="curve" smooth="yes"/>
	  <point x="243" y="219" type="line" smooth="yes"/>
	  <point x="249" y="243"/>
	  <point x="254" y="271"/>
	  <point x="275" y="271" type="curve" smooth="yes"/>
	  <point x="297" y="271"/>
	  <point x="308" y="264"/>
	  <point x="308" y="223" type="curve" smooth="yes"/>
	  <point x="308" y="182"/>
	  <point x="297" y="174"/>
	  <point x="275" y="174" type="curve" smooth="yes"/>
	  <point x="254" y="174"/>
	  <point x="238" y="202"/>
	  <point x="234" y="212" type="curve"/>
	  <point x="169" y="209" type="line"/>
	  <point x="181" y="120"/>
	  <point x="206" y="76"/>
	  <point x="290" y="76" type="curve" smooth="yes"/>
	  <point x="356" y="76"/>
	  <point x="399" y="107"/>
	  <point x="399" y="223" type="curve" smooth="yes"/>
	  <point x="399" y="339"/>
	  <point x="356" y="370"/>
	  <point x="290" y="370" type="curve" smooth="yes"/>
	  <point x="206" y="370"/>
	  <point x="186" y="331"/>
	  <point x="169" y="244" type="curve"/>
	</contour>
  </outline>
</glyph>
<glyph name="lozenge" format="1">
  <advance width="380"/>
  <unicode hex="25CA"/>
  <outline>
	<contour>
	  <point x="261" y="-70" type="line"/>
	  <point x="385" y="234" type="line"/>
	  <point x="256" y="234" type="line"/>
	  <point x="141" y="-70" type="line"/>
	</contour>
	<contour>
	  <point x="238" y="-70" type="line"/>
	  <point x="125" y="234" type="line"/>
	  <point x="-5" y="234" type="line"/>
	  <point x="118" y="-70" type="line"/>
	</contour>
	<contour>
	  <point x="141" y="539" type="line"/>
	  <point x="256" y="234" type="line"/>
	  <point x="385" y="234" type="line"/>
	  <point x="261" y="539" type="line"/>
	</contour>
	<contour>
	  <point x="118" y="539" type="line"/>
	  <point x="-5" y="234" type="line"/>
	  <point x="125" y="234" type="line"/>
	  <point x="238" y="539" type="line"/>
	</contour>
  </outline>
</glyph>
<glyph name="_216" format="1">
  <advance width="695"/>
  <outline>
	<contour>
	  <point x="241" y="429"/>
	  <point x="261" y="460"/>
	  <point x="285" y="460" type="curve" smooth="yes"/>
	  <point x="310" y="460"/>
	  <point x="330" y="429"/>
	  <point x="330" y="390" type="curve" smooth="yes"/>
	  <point x="330" y="343"/>
	  <point x="313" y="250"/>
	  <point x="5" y="250" type="curve"/>
	  <point x="40" y="210" type="line"/>
	  <point x="302" y="210"/>
	  <point x="466" y="304"/>
	  <point x="466" y="390" type="curve" smooth="yes"/>
	  <point x="466" y="451"/>
	  <point x="385" y="500"/>
	  <point x="285" y="500" type="curve" smooth="yes"/>
	  <point x="185" y="500"/>
	  <point x="105" y="451"/>
	  <point x="105" y="390" type="curve"/>
	  <point x="105" y="238"/>
	  <point x="422" y="169"/>
	  <point x="495" y="160" type="curve"/>
	  <point x="495" y="0" type="line"/>
	  <point x="625" y="0" type="line"/>
	  <point x="625" y="470" type="line"/>
	  <point x="705" y="470" type="line"/>
	  <point x="705" y="500" type="line"/>
	  <point x="445" y="500" type="line"/>
	  <point x="445" y="470" type="line"/>
	  <point x="495" y="470" type="line"/>
	  <point x="495" y="205" type="line"/>
	  <point x="423" y="211"/>
	  <point x="241" y="248"/>
	  <point x="241" y="390" type="curve"/>
	</contour>
	<contour>
	  <point x="251" y="0" type="move" name="nukta"/>
	</contour>
	<contour>
	  <point x="560" y="0" type="move" name="bottom"/>
	</contour>
	<contour>
	  <point x="560" y="500" type="move" name="top"/>
	</contour>
  </outline>
</glyph>
<glyph name="acute.case" format="1">
  <advance width="200"/>
  <outline>
	<contour>
	  <point x="75" y="550" type="line"/>
	  <point x="218" y="645" type="line"/>
	  <point x="144" y="730" type="line"/>
	  <point x="50" y="578" type="line"/>
	</contour>
	<contour>
	  <point x="107" y="512" type="move" name="_top"/>
	</contour>
  </outline>
</glyph>
<glyph name="b-deva" format="1">
  <advance width="361"/>
  <outline>
	<contour>
	  <point x="119" y="355" type="line"/>
	  <point x="305" y="78" type="line"/>
	  <point x="356" y="112" type="line"/>
	  <point x="170" y="389" type="line"/>
	</contour>
	<component base="v-deva"/>
  </outline>
</glyph>
<glyph name="barra" format="1">
  <advance width="307"/>
  <outline>
	<contour>
	  <point x="307" y="199" type="line"/>
	  <point x="307" y="280" type="line"/>
	  <point x="0" y="280" type="line"/>
	  <point x="0" y="199" type="line"/>
	</contour>
  </outline>
</glyph>
<glyph name="c_ca-deva" format="1">
  <advance width="851"/>
  <outline>
	<contour>
	  <point x="-10" y="500" type="line"/>
	  <point x="-10" y="470" type="line"/>
	  <point x="651" y="470" type="line"/>
	  <point x="651" y="210" type="line"/>
	  <point x="635" y="149"/>
	  <point x="594" y="105"/>
	  <point x="551" y="105" type="curve" smooth="yes"/>
	  <point x="504" y="105"/>
	  <point x="467" y="153"/>
	  <point x="467" y="210" type="curve" smooth="yes"/>
	  <point x="467" y="298"/>
	  <point x="526" y="370"/>
	  <point x="601" y="370" type="curve" smooth="yes"/>
	  <point x="641" y="370" type="line"/>
	  <point x="641" y="410" type="line"/>
	  <point x="11" y="410" type="line"/>
	  <point x="11" y="370" type="line"/>
	  <point x="176" y="370" type="line"/>
	  <point x="107" y="345"/>
	  <point x="61" y="281"/>
	  <point x="61" y="210" type="curve" smooth="yes"/>
	  <point x="61" y="122"/>
	  <point x="143" y="50"/>
	  <point x="246" y="50" type="curve" smooth="yes"/>
	  <point x="301" y="50"/>
	  <point x="347" y="66"/>
	  <point x="376" y="95" type="curve"/>
	  <point x="400" y="67"/>
	  <point x="451" y="50"/>
	  <point x="516" y="50" type="curve" smooth="yes"/>
	  <point x="579" y="50"/>
	  <point x="631" y="77"/>
	  <point x="651" y="120" type="curve"/>
	  <point x="651" y="0" type="line"/>
	  <point x="781" y="0" type="line"/>
	  <point x="781" y="470" type="line"/>
	  <point x="861" y="470" type="line"/>
	  <point x="861" y="500" type="line"/>
	</contour>
	<contour>
	  <point x="379" y="343"/>
	  <point x="331" y="276"/>
	  <point x="331" y="200" type="curve" smooth="yes"/>
	  <point x="331" y="177"/>
	  <point x="338" y="153"/>
	  <point x="351" y="130" type="curve"/>
	  <point x="338" y="114"/>
	  <point x="311" y="105"/>
	  <point x="276" y="105" type="curve" smooth="yes"/>
	  <point x="232" y="105"/>
	  <point x="197" y="156"/>
	  <point x="197" y="220" type="curve" smooth="yes"/>
	  <point x="197" y="303"/>
	  <point x="253" y="370"/>
	  <point x="321" y="370" type="curve" smooth="yes"/>
	  <point x="451" y="370" type="line"/>
	</contour>
	<contour>
	  <point x="246" y="-80" type="move" name="nukta"/>
	</contour>
	<contour>
	  <point x="716" y="0" type="move" name="bottom"/>
	</contour>
	<contour>
	  <point x="716" y="500" type="move" name="top"/>
	</contour>
  </outline>
</glyph>
<glyph name="caron.alt" format="1">
  <advance width="177"/>
  <outline>
	<component base="quoteright" yOffset="98"/>
	<contour>
	  <point x="69" y="400" type="move" name="_topright"/>
	</contour>
  </outline>
</glyph>
<glyph name="caron.case" format="1">
  <advance width="265"/>
  <outline>
	<contour>
	  <point x="103" y="546" type="line"/>
	  <point x="163" y="546" type="line"/>
	  <point x="243" y="679" type="line"/>
	  <point x="209" y="709" type="line"/>
	  <point x="132" y="642" type="line"/>
	  <point x="57" y="709" type="line"/>
	  <point x="22" y="679" type="line"/>
	</contour>
	<contour>
	  <point x="132" y="512" type="move" name="_top"/>
	</contour>
  </outline>
</glyph>
<glyph name="ch_va-deva" format="1">
  <advance width="602"/>
  <outline>
	<contour>
	  <point x="-10" y="500" type="line"/>
	  <point x="-10" y="470" type="line"/>
	  <point x="87" y="470" type="line"/>
	  <point x="75" y="463"/>
	  <point x="67" y="447"/>
	  <point x="67" y="428" type="curve" smooth="yes"/>
	  <point x="67" y="396"/>
	  <point x="104" y="364"/>
	  <point x="157" y="349" type="curve"/>
	  <point x="85" y="349"/>
	  <point x="27" y="308"/>
	  <point x="27" y="256" type="curve" smooth="yes"/>
	  <point x="27" y="188"/>
	  <point x="140" y="127"/>
	  <point x="280" y="127" type="curve" smooth="yes"/>
	  <point x="303" y="127"/>
	  <point x="335" y="132"/>
	  <point x="347" y="137" type="curve"/>
	  <point x="347" y="3" type="line"/>
	  <point x="333" y="-32"/>
	  <point x="286" y="-54"/>
	  <point x="242" y="-54" type="curve" smooth="yes"/>
	  <point x="203" y="-54"/>
	  <point x="182" y="-22"/>
	  <point x="182" y="18" type="curve" smooth="yes"/>
	  <point x="182" y="51"/>
	  <point x="202" y="78"/>
	  <point x="227" y="78" type="curve" smooth="yes"/>
	  <point x="238" y="78"/>
	  <point x="247" y="60"/>
	  <point x="247" y="39" type="curve"/>
	  <point x="342" y="62" type="line"/>
	  <point x="329" y="91"/>
	  <point x="277" y="111"/>
	  <point x="212" y="111" type="curve" smooth="yes"/>
	  <point x="127" y="111"/>
	  <point x="57" y="65"/>
	  <point x="57" y="8" type="curve" smooth="yes"/>
	  <point x="57" y="-49"/>
	  <point x="116" y="-95"/>
	  <point x="212" y="-95" type="curve" smooth="yes"/>
	  <point x="255" y="-95"/>
	  <point x="309" y="-78"/>
	  <point x="347" y="-46" type="curve"/>
	  <point x="347" y="-120" type="line"/>
	  <point x="467" y="-120" type="line"/>
	  <point x="467" y="160" type="line"/>
	  <point x="534" y="188"/>
	  <point x="577" y="244"/>
	  <point x="577" y="301" type="curve" smooth="yes"/>
	  <point x="577" y="353"/>
	  <point x="550" y="397"/>
	  <point x="507" y="412" type="curve"/>
	  <point x="507" y="470" type="line"/>
	  <point x="612" y="470" type="line"/>
	  <point x="612" y="500" type="line"/>
	</contour>
	<contour>
	  <point x="377" y="416" type="line"/>
	  <point x="320" y="405"/>
	  <point x="277" y="363"/>
	  <point x="277" y="314" type="curve" smooth="yes"/>
	  <point x="277" y="265"/>
	  <point x="328" y="208"/>
	  <point x="402" y="199" type="curve"/>
	  <point x="385" y="183"/>
	  <point x="340" y="164"/>
	  <point x="282" y="164" type="curve" smooth="yes"/>
	  <point x="212" y="164"/>
	  <point x="157" y="205"/>
	  <point x="157" y="256" type="curve" smooth="yes"/>
	  <point x="157" y="300"/>
	  <point x="200" y="335"/>
	  <point x="252" y="335" type="curve"/>
	  <point x="252" y="363" type="line"/>
	  <point x="221" y="363"/>
	  <point x="197" y="388"/>
	  <point x="197" y="417" type="curve" smooth="yes"/>
	  <point x="197" y="438"/>
	  <point x="213" y="458"/>
	  <point x="237" y="470" type="curve"/>
	  <point x="377" y="470" type="line"/>
	</contour>
	<contour>
	  <point x="436" y="384"/>
	  <point x="447" y="350"/>
	  <point x="447" y="316" type="curve" smooth="yes"/>
	  <point x="447" y="279"/>
	  <point x="442" y="253"/>
	  <point x="427" y="230" type="curve"/>
	  <point x="409" y="240"/>
	  <point x="387" y="271"/>
	  <point x="387" y="315" type="curve" smooth="yes"/>
	  <point x="387" y="347"/>
	  <point x="397" y="384"/>
	  <point x="417" y="384" type="curve" smooth="yes"/>
	</contour>
	<contour>
	  <point x="90" y="-178" type="move" name="nukta"/>
	</contour>
	<contour>
	  <point x="407" y="-120" type="move" name="bottom"/>
	</contour>
	<contour>
	  <point x="442" y="500" type="move" name="top"/>
	</contour>
  </outline>
</glyph>
<glyph name="commaaccent" format="1">
  <advance width="181"/>
  <outline>
	<component base="comma" xOffset="6" yOffset="-165"/>
	<contour>
	  <point x="91" y="0" type="move" name="_bottom"/>
	</contour>
  </outline>
</glyph>
<glyph name="d_ba-deva" format="1">
  <advance width="537"/>
  <outline>
	<contour>
	  <point x="76" y="44"/>
	  <point x="40" y="7"/>
	  <point x="40" y="-30" type="curve" smooth="yes"/>
	  <point x="40" y="-90"/>
	  <point x="98" y="-130"/>
	  <point x="184" y="-130" type="curve" smooth="yes"/>
	  <point x="247" y="-130"/>
	  <point x="306" y="-91"/>
	  <point x="334" y="-30" type="curve"/>
	  <point x="326" y="51" type="line"/>
	  <point x="124" y="60" type="line"/>
	</contour>
	<contour>
	  <point x="309" y="0" type="line"/>
	  <point x="290" y="-51"/>
	  <point x="248" y="-85"/>
	  <point x="204" y="-85" type="curve" smooth="yes"/>
	  <point x="184" y="-85"/>
	  <point x="164" y="-68"/>
	  <point x="164" y="-45" type="curve" smooth="yes"/>
	  <point x="164" y="-9"/>
	  <point x="191" y="22"/>
	  <point x="224" y="30" type="curve"/>
	  <point x="289" y="30" type="line"/>
	</contour>
	<contour>
	  <point x="163" y="29" type="line"/>
	  <point x="250" y="-100" type="line"/>
	  <point x="301" y="-66" type="line"/>
	  <point x="227" y="45" type="line"/>
	</contour>
	<component base="da-deva"/>
	<contour>
	  <point x="112" y="-80" type="move" name="nukta"/>
	</contour>
	<contour>
	  <point x="376" y="-65" type="move" name="bottom"/>
	</contour>
	<contour>
	  <point x="376" y="500" type="move" name="top"/>
	</contour>
  </outline>
</glyph>
<glyph name="d_da-deva" format="1">
  <advance width="547"/>
  <outline>
	<contour>
	  <point x="-10" y="500" type="line"/>
	  <point x="-10" y="470" type="line"/>
	  <point x="324" y="470" type="line"/>
	  <point x="324" y="385" type="line"/>
	  <point x="297" y="395"/>
	  <point x="260" y="400"/>
	  <point x="214" y="400" type="curve" smooth="yes"/>
	  <point x="114" y="400"/>
	  <point x="34" y="357"/>
	  <point x="34" y="305" type="curve" smooth="yes"/>
	  <point x="34" y="268"/>
	  <point x="72" y="234"/>
	  <point x="124" y="225" type="curve"/>
	  <point x="72" y="199"/>
	  <point x="39" y="167"/>
	  <point x="39" y="120" type="curve" smooth="yes"/>
	  <point x="39" y="34"/>
	  <point x="147" y="-14"/>
	  <point x="264" y="-14" type="curve"/>
	  <point x="465" y="-14"/>
	  <point x="529" y="65"/>
	  <point x="529" y="125" type="curve" smooth="yes"/>
	  <point x="529" y="175"/>
	  <point x="469" y="215"/>
	  <point x="394" y="215" type="curve" smooth="yes"/>
	  <point x="319" y="215"/>
	  <point x="249" y="178"/>
	  <point x="249" y="105" type="curve"/>
	  <point x="249" y="12"/>
	  <point x="331" y="-68"/>
	  <point x="364" y="-90" type="curve"/>
	  <point x="464" y="-55" type="line"/>
	  <point x="427" y="-24"/>
	  <point x="364" y="45"/>
	  <point x="364" y="120" type="curve"/>
	  <point x="364" y="147"/>
	  <point x="371" y="175"/>
	  <point x="389" y="175" type="curve" smooth="yes"/>
	  <point x="402" y="175"/>
	  <point x="414" y="151"/>
	  <point x="414" y="120" type="curve" smooth="yes"/>
	  <point x="414" y="73"/>
	  <point x="363" y="29"/>
	  <point x="288" y="29" type="curve"/>
	  <point x="248" y="29"/>
	  <point x="175" y="43"/>
	  <point x="175" y="125" type="curve" smooth="yes"/>
	  <point x="175" y="176"/>
	  <point x="224" y="217"/>
	  <point x="284" y="217" type="curve"/>
	  <point x="284" y="252" type="line"/>
	  <point x="270" y="250"/>
	  <point x="257" y="249"/>
	  <point x="245" y="249" type="curve" smooth="yes"/>
	  <point x="195" y="249"/>
	  <point x="170" y="271"/>
	  <point x="170" y="306" type="curve" smooth="yes"/>
	  <point x="170" y="337"/>
	  <point x="200" y="357"/>
	  <point x="239" y="357" type="curve" smooth="yes"/>
	  <point x="274" y="357"/>
	  <point x="306" y="347"/>
	  <point x="329" y="327" type="curve"/>
	  <point x="454" y="375" type="line"/>
	  <point x="454" y="470" type="line"/>
	  <point x="557" y="470" type="line"/>
	  <point x="557" y="500" type="line"/>
	</contour>
  </outline>
</glyph>
<glyph name="d_dh_r_ya-deva" format="1">
  <advance width="1293"/>
  <outline>
	<contour>
	  <point x="571" y="500" type="line" smooth="yes"/>
	  <point x="571" y="470" type="line" smooth="yes"/>
	  <point x="1093" y="470" type="line" smooth="yes"/>
	  <point x="1093" y="200" type="line" smooth="yes"/>
	  <point x="1073" y="145"/>
	  <point x="1027" y="110"/>
	  <point x="978" y="110" type="curve"/>
	  <point x="923" y="110"/>
	  <point x="878" y="163"/>
	  <point x="878" y="230" type="curve" smooth="yes"/>
	  <point x="973" y="230"/>
	  <point x="1049" y="275"/>
	  <point x="1049" y="330" type="curve"/>
	  <point x="1049" y="382"/>
	  <point x="973" y="424"/>
	  <point x="833" y="424" type="curve" smooth="yes"/>
	  <point x="703" y="424"/>
	  <point x="592" y="403"/>
	  <point x="531" y="380" type="curve"/>
	  <point x="531" y="340" type="line"/>
	  <point x="617" y="369"/>
	  <point x="705" y="383"/>
	  <point x="803" y="383" type="curve" smooth="yes"/>
	  <point x="886" y="383"/>
	  <point x="913" y="359"/>
	  <point x="913" y="330" type="curve"/>
	  <point x="913" y="289"/>
	  <point x="860" y="255"/>
	  <point x="793" y="255" type="curve"/>
	  <point x="765" y="255"/>
	  <point x="743" y="239"/>
	  <point x="743" y="220" type="curve"/>
	  <point x="743" y="129"/>
	  <point x="828" y="55"/>
	  <point x="933" y="55" type="curve"/>
	  <point x="1002" y="55"/>
	  <point x="1062" y="81"/>
	  <point x="1093" y="125" type="curve" smooth="yes"/>
	  <point x="1093" y="0" type="line" smooth="yes"/>
	  <point x="1223" y="0" type="line" smooth="yes"/>
	  <point x="1223" y="470" type="line" smooth="yes"/>
	  <point x="1303" y="470" type="line" smooth="yes"/>
	  <point x="1303" y="500" type="line" smooth="yes"/>
	</contour>
	<contour>
	  <point x="461" y="65" type="line"/>
	  <point x="466" y="-29"/>
	  <point x="412" y="-80"/>
	  <point x="356" y="-80" type="curve" smooth="yes"/>
	  <point x="325" y="-80"/>
	  <point x="298" y="-64"/>
	  <point x="298" y="-30" type="curve" smooth="yes"/>
	  <point x="298" y="-6"/>
	  <point x="311" y="16"/>
	  <point x="322" y="25" type="curve"/>
	  <point x="253" y="50" type="line"/>
	  <point x="237" y="34"/>
	  <point x="215" y="26"/>
	  <point x="193" y="26" type="curve" smooth="yes"/>
	  <point x="156" y="26"/>
	  <point x="121" y="48"/>
	  <point x="121" y="90" type="curve" smooth="yes"/>
	  <point x="121" y="106"/>
	  <point x="130" y="120"/>
	  <point x="142" y="120" type="curve" smooth="yes"/>
	  <point x="153" y="120"/>
	  <point x="162" y="111"/>
	  <point x="162" y="100" type="curve" smooth="yes"/>
	  <point x="162" y="88"/>
	  <point x="154" y="77"/>
	  <point x="142" y="70" type="curve"/>
	  <point x="199" y="50" type="line"/>
	  <point x="217" y="64"/>
	  <point x="226" y="81"/>
	  <point x="226" y="98" type="curve" smooth="yes"/>
	  <point x="226" y="133"/>
	  <point x="190" y="165"/>
	  <point x="127" y="165" type="curve" smooth="yes"/>
	  <point x="66" y="165"/>
	  <point x="17" y="126"/>
	  <point x="17" y="75" type="curve" smooth="yes"/>
	  <point x="17" y="35"/>
	  <point x="51" y="-14"/>
	  <point x="144" y="-14" type="curve" smooth="yes"/>
	  <point x="159" y="-14"/>
	  <point x="176" y="-13"/>
	  <point x="195" y="-10" type="curve"/>
	  <point x="195" y="-46"/>
	  <point x="229" y="-125"/>
	  <point x="344" y="-125" type="curve" smooth="yes"/>
	  <point x="426" y="-125"/>
	  <point x="510" y="-73"/>
	  <point x="510" y="65" type="curve"/>
	</contour>
	<contour>
	  <point x="-10" y="500" type="line"/>
	  <point x="-10" y="470" type="line"/>
	  <point x="506" y="470" type="line"/>
	  <point x="506" y="390" type="line"/>
	  <point x="486" y="398"/>
	  <point x="463" y="402"/>
	  <point x="438" y="402" type="curve" smooth="yes"/>
	  <point x="342" y="402"/>
	  <point x="226" y="342"/>
	  <point x="226" y="220" type="curve" smooth="yes"/>
	  <point x="226" y="105"/>
	  <point x="309" y="30"/>
	  <point x="436" y="30" type="curve" smooth="yes"/>
	  <point x="481" y="30" type="line"/>
	  <point x="496" y="-1"/>
	  <point x="521" y="-35"/>
	  <point x="556" y="-70" type="curve"/>
	  <point x="671" y="-30" type="line"/>
	  <point x="647" y="-9"/>
	  <point x="625" y="17"/>
	  <point x="606" y="50" type="curve"/>
	  <point x="669" y="73"/>
	  <point x="711" y="123"/>
	  <point x="711" y="175" type="curve" smooth="yes"/>
	  <point x="711" y="230"/>
	  <point x="648" y="275"/>
	  <point x="571" y="275" type="curve" smooth="yes"/>
	  <point x="491" y="275"/>
	  <point x="426" y="226"/>
	  <point x="426" y="165" type="curve" smooth="yes"/>
	  <point x="426" y="132"/>
	  <point x="438" y="98"/>
	  <point x="461" y="65" type="curve"/>
	  <point x="406" y="65"/>
	  <point x="362" y="135"/>
	  <point x="362" y="220" type="curve" smooth="yes"/>
	  <point x="362" y="297"/>
	  <point x="413" y="360"/>
	  <point x="476" y="360" type="curve" smooth="yes"/>
	  <point x="499" y="360"/>
	  <point x="518" y="353"/>
	  <point x="531" y="340" type="curve"/>
	  <point x="636" y="392" type="line"/>
	  <point x="636" y="470" type="line"/>
	  <point x="742" y="470" type="line"/>
	  <point x="742" y="500" type="line"/>
	</contour>
	<contour>
	  <point x="584" y="225"/>
	  <point x="596" y="201"/>
	  <point x="596" y="170" type="curve" smooth="yes"/>
	  <point x="596" y="127"/>
	  <point x="588" y="107"/>
	  <point x="576" y="90" type="curve"/>
	  <point x="567" y="106"/>
	  <point x="552" y="127"/>
	  <point x="552" y="170" type="curve" smooth="yes"/>
	  <point x="552" y="210"/>
	  <point x="563" y="225"/>
	  <point x="571" y="225" type="curve" smooth="yes"/>
	</contour>
	<contour>
	  <point x="115" y="-168" type="line"/>
	  <point x="137" y="-222" type="line"/>
	  <point x="409" y="-113" type="line"/>
	  <point x="409" y="-67" type="line"/>
	</contour>
	<contour>
	  <point x="307" y="-80" type="move" name="nukta"/>
	</contour>
	<contour>
	  <point x="1158" y="0" type="move" name="bottom"/>
	</contour>
	<contour>
	  <point x="1158" y="500" type="move" name="top"/>
	</contour>
  </outline>
</glyph>
<glyph name="d_dh_ra-deva" format="1">
  <advance width="732"/>
  <outline>
	<contour>
	  <point x="461" y="65" type="line"/>
	  <point x="466" y="-29"/>
	  <point x="412" y="-80"/>
	  <point x="356" y="-80" type="curve" smooth="yes"/>
	  <point x="325" y="-80"/>
	  <point x="298" y="-64"/>
	  <point x="298" y="-30" type="curve" smooth="yes"/>
	  <point x="298" y="-6"/>
	  <point x="311" y="16"/>
	  <point x="322" y="25" type="curve"/>
	  <point x="253" y="50" type="line"/>
	  <point x="237" y="34"/>
	  <point x="215" y="26"/>
	  <point x="193" y="26" type="curve" smooth="yes"/>
	  <point x="156" y="26"/>
	  <point x="121" y="48"/>
	  <point x="121" y="90" type="curve" smooth="yes"/>
	  <point x="121" y="106"/>
	  <point x="130" y="120"/>
	  <point x="142" y="120" type="curve" smooth="yes"/>
	  <point x="153" y="120"/>
	  <point x="162" y="111"/>
	  <point x="162" y="100" type="curve" smooth="yes"/>
	  <point x="162" y="88"/>
	  <point x="154" y="77"/>
	  <point x="142" y="70" type="curve"/>
	  <point x="199" y="50" type="line"/>
	  <point x="217" y="64"/>
	  <point x="226" y="81"/>
	  <point x="226" y="98" type="curve" smooth="yes"/>
	  <point x="226" y="133"/>
	  <point x="190" y="165"/>
	  <point x="127" y="165" type="curve" smooth="yes"/>
	  <point x="66" y="165"/>
	  <point x="17" y="126"/>
	  <point x="17" y="75" type="curve" smooth="yes"/>
	  <point x="17" y="35"/>
	  <point x="51" y="-14"/>
	  <point x="144" y="-14" type="curve" smooth="yes"/>
	  <point x="159" y="-14"/>
	  <point x="176" y="-13"/>
	  <point x="195" y="-10" type="curve"/>
	  <point x="195" y="-46"/>
	  <point x="229" y="-125"/>
	  <point x="344" y="-125" type="curve" smooth="yes"/>
	  <point x="426" y="-125"/>
	  <point x="510" y="-73"/>
	  <point x="510" y="65" type="curve"/>
	</contour>
	<contour>
	  <point x="-10" y="500" type="line"/>
	  <point x="-10" y="470" type="line"/>
	  <point x="506" y="470" type="line"/>
	  <point x="506" y="390" type="line"/>
	  <point x="486" y="398"/>
	  <point x="463" y="402"/>
	  <point x="438" y="402" type="curve" smooth="yes"/>
	  <point x="342" y="402"/>
	  <point x="226" y="342"/>
	  <point x="226" y="220" type="curve" smooth="yes"/>
	  <point x="226" y="105"/>
	  <point x="309" y="30"/>
	  <point x="436" y="30" type="curve" smooth="yes"/>
	  <point x="481" y="30" type="line"/>
	  <point x="496" y="-1"/>
	  <point x="521" y="-35"/>
	  <point x="556" y="-70" type="curve"/>
	  <point x="671" y="-30" type="line"/>
	  <point x="647" y="-9"/>
	  <point x="625" y="17"/>
	  <point x="606" y="50" type="curve"/>
	  <point x="669" y="73"/>
	  <point x="711" y="123"/>
	  <point x="711" y="175" type="curve" smooth="yes"/>
	  <point x="711" y="230"/>
	  <point x="648" y="275"/>
	  <point x="571" y="275" type="curve" smooth="yes"/>
	  <point x="491" y="275"/>
	  <point x="426" y="226"/>
	  <point x="426" y="165" type="curve" smooth="yes"/>
	  <point x="426" y="132"/>
	  <point x="438" y="98"/>
	  <point x="461" y="65" type="curve"/>
	  <point x="406" y="65"/>
	  <point x="362" y="135"/>
	  <point x="362" y="220" type="curve" smooth="yes"/>
	  <point x="362" y="297"/>
	  <point x="413" y="360"/>
	  <point x="476" y="360" type="curve" smooth="yes"/>
	  <point x="499" y="360"/>
	  <point x="518" y="353"/>
	  <point x="531" y="340" type="curve"/>
	  <point x="636" y="365" type="line"/>
	  <point x="636" y="470" type="line"/>
	  <point x="742" y="470" type="line"/>
	  <point x="742" y="500" type="line"/>
	</contour>
	<contour>
	  <point x="584" y="225"/>
	  <point x="596" y="201"/>
	  <point x="596" y="170" type="curve" smooth="yes"/>
	  <point x="596" y="127"/>
	  <point x="588" y="107"/>
	  <point x="576" y="90" type="curve"/>
	  <point x="567" y="106"/>
	  <point x="552" y="127"/>
	  <point x="552" y="170" type="curve" smooth="yes"/>
	  <point x="552" y="210"/>
	  <point x="563" y="225"/>
	  <point x="571" y="225" type="curve" smooth="yes"/>
	</contour>
	<contour>
	  <point x="115" y="-168" type="line"/>
	  <point x="137" y="-222" type="line"/>
	  <point x="409" y="-113" type="line"/>
	  <point x="409" y="-67" type="line"/>
	</contour>
	<contour>
	  <point x="307" y="-80" type="move" name="nukta"/>
	</contour>
	<contour>
	  <point x="571" y="-65" type="move" name="bottom"/>
	</contour>
	<contour>
	  <point x="571" y="500" type="move" name="top"/>
	</contour>
  </outline>
</glyph>
<glyph name="d_ma-deva" format="1">
  <advance width="594"/>
  <note>
	g251
  </note>
  <outline>
	<contour>
	  <point x="-10" y="500" type="line"/>
	  <point x="-10" y="470" type="line"/>
	  <point x="164" y="470" type="line"/>
	  <point x="164" y="430" type="line"/>
	  <point x="71" y="430"/>
	  <point x="27" y="378"/>
	  <point x="27" y="327" type="curve" smooth="yes"/>
	  <point x="27" y="278"/>
	  <point x="68" y="230"/>
	  <point x="149" y="230" type="curve" smooth="yes"/>
	  <point x="161" y="230"/>
	  <point x="186" y="233"/>
	  <point x="194" y="235" type="curve"/>
	  <point x="194" y="180" type="line"/>
	  <point x="83" y="180"/>
	  <point x="28" y="137"/>
	  <point x="28" y="80" type="curve" smooth="yes"/>
	  <point x="28" y="31"/>
	  <point x="71" y="-15"/>
	  <point x="169" y="-15" type="curve" smooth="yes"/>
	  <point x="265" y="-15"/>
	  <point x="324" y="38"/>
	  <point x="324" y="105" type="curve" smooth="yes"/>
	  <point x="324" y="135" type="line"/>
	  <point x="394" y="135" type="line"/>
	  <point x="394" y="0" type="line"/>
	  <point x="524" y="0" type="line"/>
	  <point x="524" y="470" type="line"/>
	  <point x="604" y="470" type="line"/>
	  <point x="604" y="500" type="line"/>
	</contour>
	<contour>
	  <point x="194" y="60" type="line" smooth="yes"/>
	  <point x="194" y="41"/>
	  <point x="185" y="25"/>
	  <point x="174" y="25" type="curve" smooth="yes"/>
	  <point x="162" y="25"/>
	  <point x="152" y="45"/>
	  <point x="152" y="70" type="curve" smooth="yes"/>
	  <point x="152" y="102"/>
	  <point x="170" y="130"/>
	  <point x="194" y="135" type="curve"/>
	</contour>
	<contour>
	  <point x="394" y="185" type="line"/>
	  <point x="324" y="185" type="line"/>
	  <point x="324" y="240" type="line" smooth="yes"/>
	  <point x="324" y="259"/>
	  <point x="307" y="275"/>
	  <point x="284" y="275" type="curve" smooth="yes"/>
	  <point x="214" y="275" type="line" smooth="yes"/>
	  <point x="182" y="275"/>
	  <point x="163" y="302"/>
	  <point x="163" y="330" type="curve" smooth="yes"/>
	  <point x="163" y="362"/>
	  <point x="186" y="395"/>
	  <point x="239" y="395" type="curve" smooth="yes"/>
	  <point x="266" y="395"/>
	  <point x="285" y="393"/>
	  <point x="294" y="390" type="curve"/>
	  <point x="294" y="470" type="line"/>
	  <point x="394" y="470" type="line"/>
	</contour>
	<contour>
	  <point x="179" y="-100" type="move" name="nukta"/>
	</contour>
	<contour>
	  <point x="459" y="0" type="move" name="bottom"/>
	</contour>
	<contour>
	  <point x="459" y="500" type="move" name="top"/>
	</contour>
  </outline>
</glyph>
<glyph name="d_rVocalicMatra-deva" format="1">
  <advance width="537"/>
  <outline>
	<contour>
	  <point x="306" y="-40" type="line" smooth="yes"/>
	  <point x="210" y="-40"/>
	  <point x="131" y="-98"/>
	  <point x="131" y="-170" type="curve" smooth="yes"/>
	  <point x="131" y="-237"/>
	  <point x="223" y="-290"/>
	  <point x="336" y="-290" type="curve" smooth="yes"/>
	  <point x="401" y="-290"/>
	  <point x="454" y="-272"/>
	  <point x="481" y="-240" type="curve"/>
	  <point x="431" y="-190" type="line"/>
	  <point x="410" y="-220"/>
	  <point x="373" y="-240"/>
	  <point x="336" y="-240" type="curve" smooth="yes"/>
	  <point x="282" y="-240"/>
	  <point x="249" y="-199"/>
	  <point x="249" y="-160" type="curve" smooth="yes"/>
	  <point x="249" y="-114"/>
	  <point x="283" y="-70"/>
	  <point x="361" y="-70" type="curve"/>
	  <point x="361" y="-40" type="line"/>
	</contour>
	<component base="da-deva"/>
	<contour>
	  <point x="112" y="-30" type="move" name="nukta"/>
	</contour>
	<contour>
	  <point x="336" y="-290" type="move" name="bottom"/>
	</contour>
	<contour>
	  <point x="376" y="500" type="move" name="top"/>
	</contour>
  </outline>
</glyph>
<glyph name="dd_dda-deva" format="1">
  <advance width="532"/>
  <outline>
	<contour>
	  <point x="-10" y="500" type="line"/>
	  <point x="-10" y="470" type="line"/>
	  <point x="299" y="470" type="line"/>
	  <point x="299" y="424" type="line"/>
	  <point x="281" y="425"/>
	  <point x="256" y="424"/>
	  <point x="229" y="424" type="curve" smooth="yes"/>
	  <point x="156" y="424"/>
	  <point x="69" y="401"/>
	  <point x="69" y="362" type="curve" smooth="yes"/>
	  <point x="69" y="269"/>
	  <point x="374" y="298"/>
	  <point x="374" y="254" type="curve" smooth="yes"/>
	  <point x="374" y="222"/>
	  <point x="326" y="205"/>
	  <point x="269" y="205" type="curve" smooth="yes"/>
	  <point x="176" y="205"/>
	  <point x="140" y="237"/>
	  <point x="165" y="292" type="curve"/>
	  <point x="101" y="303"/>
	  <point x="40" y="287"/>
	  <point x="40" y="243" type="curve" smooth="yes"/>
	  <point x="40" y="189"/>
	  <point x="138" y="164"/>
	  <point x="269" y="164" type="curve" smooth="yes"/>
	  <point x="396" y="164"/>
	  <point x="500" y="206"/>
	  <point x="500" y="265" type="curve" smooth="yes"/>
	  <point x="500" y="370"/>
	  <point x="205" y="345"/>
	  <point x="205" y="369" type="curve" smooth="yes"/>
	  <point x="205" y="376"/>
	  <point x="229" y="383"/>
	  <point x="258" y="383" type="curve" smooth="yes"/>
	  <point x="287" y="383"/>
	  <point x="322" y="377"/>
	  <point x="344" y="369" type="curve"/>
	  <point x="429" y="414" type="line"/>
	  <point x="429" y="470" type="line"/>
	  <point x="542" y="470" type="line"/>
	  <point x="542" y="500" type="line"/>
	</contour>
	<contour>
	  <point x="299" y="184" type="line"/>
	  <point x="299" y="125" type="line"/>
	  <point x="281" y="126"/>
	  <point x="256" y="125"/>
	  <point x="229" y="125" type="curve" smooth="yes"/>
	  <point x="156" y="125"/>
	  <point x="69" y="102"/>
	  <point x="69" y="63" type="curve" smooth="yes"/>
	  <point x="69" y="-30"/>
	  <point x="374" y="-1"/>
	  <point x="374" y="-45" type="curve" smooth="yes"/>
	  <point x="374" y="-77"/>
	  <point x="326" y="-94"/>
	  <point x="269" y="-94" type="curve" smooth="yes"/>
	  <point x="176" y="-94"/>
	  <point x="140" y="-62"/>
	  <point x="165" y="-7" type="curve"/>
	  <point x="101" y="4"/>
	  <point x="40" y="-12"/>
	  <point x="40" y="-56" type="curve" smooth="yes"/>
	  <point x="40" y="-110"/>
	  <point x="138" y="-135"/>
	  <point x="269" y="-135" type="curve" smooth="yes"/>
	  <point x="396" y="-135"/>
	  <point x="500" y="-93"/>
	  <point x="500" y="-34" type="curve" smooth="yes"/>
	  <point x="500" y="71"/>
	  <point x="205" y="46"/>
	  <point x="205" y="70" type="curve" smooth="yes"/>
	  <point x="205" y="77"/>
	  <point x="229" y="84"/>
	  <point x="258" y="84" type="curve" smooth="yes"/>
	  <point x="287" y="84"/>
	  <point x="322" y="78"/>
	  <point x="344" y="70" type="curve"/>
	  <point x="429" y="115" type="line"/>
	  <point x="429" y="214" type="line"/>
	</contour>
	<contour>
	  <point x="269" y="-200" type="move" name="nukta"/>
	</contour>
	<contour>
	  <point x="364" y="-135" type="move" name="bottom"/>
	</contour>
	<contour>
	  <point x="364" y="500" type="move" name="top"/>
	</contour>
  </outline>
</glyph>
<glyph name="ddh_ya-deva" format="1">
  <advance width="1141"/>
  <outline>
	<contour>
	  <point x="-10" y="500" type="line"/>
	  <point x="-10" y="470" type="line"/>
	  <point x="327" y="470" type="line"/>
	  <point x="327" y="395" type="line"/>
	  <point x="313" y="402"/>
	  <point x="295" y="405"/>
	  <point x="272" y="405" type="curve" smooth="yes"/>
	  <point x="127" y="405"/>
	  <point x="32" y="326"/>
	  <point x="32" y="205" type="curve" smooth="yes"/>
	  <point x="32" y="81"/>
	  <point x="135" y="0"/>
	  <point x="292" y="0" type="curve" smooth="yes"/>
	  <point x="441" y="0"/>
	  <point x="563" y="72"/>
	  <point x="563" y="160" type="curve" smooth="yes"/>
	  <point x="563" y="221"/>
	  <point x="487" y="270"/>
	  <point x="392" y="270" type="curve" smooth="yes"/>
	  <point x="307" y="270"/>
	  <point x="237" y="217"/>
	  <point x="237" y="150" type="curve" smooth="yes"/>
	  <point x="237" y="106"/>
	  <point x="268" y="63"/>
	  <point x="317" y="40" type="curve"/>
	  <point x="307" y="37"/>
	  <point x="296" y="36"/>
	  <point x="285" y="36" type="curve" smooth="yes"/>
	  <point x="228" y="36"/>
	  <point x="168" y="77"/>
	  <point x="168" y="205" type="curve" smooth="yes"/>
	  <point x="168" y="296"/>
	  <point x="224" y="370"/>
	  <point x="292" y="370" type="curve" smooth="yes"/>
	  <point x="312" y="370"/>
	  <point x="337" y="361"/>
	  <point x="347" y="331" type="curve"/>
	  <point x="472" y="371"/>
	  <point x="545" y="383"/>
	  <point x="651" y="383" type="curve" smooth="yes"/>
	  <point x="734" y="383"/>
	  <point x="761" y="359"/>
	  <point x="761" y="330" type="curve" smooth="yes"/>
	  <point x="761" y="289"/>
	  <point x="708" y="255"/>
	  <point x="641" y="255" type="curve" smooth="yes"/>
	  <point x="613" y="255"/>
	  <point x="591" y="239"/>
	  <point x="591" y="220" type="curve" smooth="yes"/>
	  <point x="591" y="129"/>
	  <point x="676" y="55"/>
	  <point x="781" y="55" type="curve" smooth="yes"/>
	  <point x="850" y="55"/>
	  <point x="910" y="81"/>
	  <point x="941" y="125" type="curve"/>
	  <point x="941" y="0" type="line"/>
	  <point x="1071" y="0" type="line"/>
	  <point x="1071" y="470" type="line"/>
	  <point x="1151" y="470" type="line"/>
	  <point x="1151" y="500" type="line"/>
	</contour>
	<contour>
	  <point x="941" y="200" type="line"/>
	  <point x="921" y="145"/>
	  <point x="875" y="110"/>
	  <point x="826" y="110" type="curve" smooth="yes"/>
	  <point x="771" y="110"/>
	  <point x="726" y="163"/>
	  <point x="726" y="230" type="curve"/>
	  <point x="821" y="230"/>
	  <point x="897" y="275"/>
	  <point x="897" y="330" type="curve" smooth="yes"/>
	  <point x="897" y="382"/>
	  <point x="821" y="424"/>
	  <point x="681" y="424" type="curve" smooth="yes"/>
	  <point x="584" y="424"/>
	  <point x="495" y="412"/>
	  <point x="457" y="402" type="curve"/>
	  <point x="457" y="470" type="line"/>
	  <point x="941" y="470" type="line"/>
	</contour>
	<contour>
	  <point x="411" y="230"/>
	  <point x="427" y="192"/>
	  <point x="427" y="147" type="curve" smooth="yes"/>
	  <point x="427" y="102"/>
	  <point x="411" y="65"/>
	  <point x="392" y="65" type="curve" smooth="yes"/>
	  <point x="373" y="65"/>
	  <point x="357" y="102"/>
	  <point x="357" y="147" type="curve" smooth="yes"/>
	  <point x="357" y="192"/>
	  <point x="373" y="230"/>
	  <point x="392" y="230" type="curve" smooth="yes"/>
	</contour>
	<contour>
	  <point x="292" y="-100" type="move" name="nukta"/>
	</contour>
	<contour>
	  <point x="1006" y="0" type="move" name="bottom"/>
	</contour>
	<contour>
	  <point x="1006" y="500" type="move" name="top"/>
	</contour>
  </outline>
</glyph>
<glyph name="dh_ra-deva" format="1">
  <advance width="596"/>
  <outline>
	<component base="dha-deva"/>
	<component base="ra-deva.post" xOffset="571" yOffset="-30"/>
	<contour>
	  <point x="172" y="-65" type="move" name="nukta"/>
	</contour>
	<contour>
	  <point x="461" y="0" type="move" name="bottom"/>
	</contour>
	<contour>
	  <point x="461" y="500" type="move" name="top"/>
	</contour>
  </outline>
</glyph>
<glyph name="eight-deva.loclNEP" format="1">
  <advance width="550"/>
  <outline>
	<contour>
	  <point x="162" y="361"/>
	  <point x="71" y="242"/>
	  <point x="71" y="155" type="curve" smooth="yes"/>
	  <point x="71" y="35"/>
	  <point x="174" y="-15"/>
	  <point x="283" y="-15" type="curve" smooth="yes"/>
	  <point x="356" y="-15"/>
	  <point x="431" y="14"/>
	  <point x="479" y="75" type="curve"/>
	  <point x="383" y="120" type="line"/>
	  <point x="359" y="58"/>
	  <point x="315" y="27"/>
	  <point x="276" y="27" type="curve" smooth="yes"/>
	  <point x="233" y="27"/>
	  <point x="195" y="64"/>
	  <point x="195" y="135" type="curve" smooth="yes"/>
	  <point x="195" y="232"/>
	  <point x="294" y="358"/>
	  <point x="456" y="470" type="curve"/>
	  <point x="312" y="470" type="line"/>
	</contour>
	<contour>
	  <point x="41" y="470" type="line"/>
	  <point x="510" y="470" type="line"/>
	  <point x="510" y="500" type="line"/>
	  <point x="41" y="500" type="line"/>
	</contour>
  </outline>
</glyph>
<glyph name="eslash" format="1">
  <advance width="197"/>
  <outline>
	<contour>
	  <point x="-9" y="184" type="line"/>
	  <point x="206" y="270" type="line"/>
	  <point x="206" y="349" type="line"/>
	  <point x="-9" y="261" type="line"/>
	</contour>
  </outline>
</glyph>
<glyph name="ethbar" format="1">
  <advance width="246"/>
  <outline>
	<contour>
	  <point x="286" y="211" type="line"/>
	  <point x="286" y="292" type="line"/>
	  <point x="4" y="292" type="line"/>
	  <point x="4" y="211" type="line"/>
	</contour>
  </outline>
</glyph>
<glyph name="f_ra-deva" format="1">
  <advance width="858"/>
  <outline>
	<component base="pha-deva"/>
	<component base="ra-deva.post" xOffset="521" yOffset="20"/>
	<component base="nukta-deva" xOffset="404" yOffset="-80"/>
	<contour>
	  <point x="426" y="500" type="move" name="top"/>
	</contour>
	<contour>
	  <point x="426" y="0" type="move" name="bottom"/>
	</contour>
  </outline>
</glyph>
<glyph name="five-deva.loclNEP" format="1">
  <advance width="550"/>
  <outline>
	<contour>
	  <point x="253" y="4" type="line"/>
	  <point x="390" y="24"/>
	  <point x="469" y="116"/>
	  <point x="469" y="215" type="curve" smooth="yes"/>
	  <point x="469" y="253"/>
	  <point x="449" y="290"/>
	  <point x="449" y="340" type="curve" smooth="yes"/>
	  <point x="449" y="363"/>
	  <point x="456" y="387"/>
	  <point x="469" y="410" type="curve"/>
	  <point x="340" y="370" type="line"/>
	  <point x="331" y="358"/>
	  <point x="325" y="336"/>
	  <point x="325" y="305" type="curve" smooth="yes"/>
	  <point x="325" y="261"/>
	  <point x="297" y="225"/>
	  <point x="260" y="225" type="curve" smooth="yes"/>
	  <point x="207" y="225"/>
	  <point x="164" y="276"/>
	  <point x="164" y="340" type="curve" smooth="yes"/>
	  <point x="164" y="415"/>
	  <point x="206" y="459"/>
	  <point x="270" y="500" type="curve"/>
	  <point x="150" y="500" type="line"/>
	  <point x="81" y="441"/>
	  <point x="40" y="368"/>
	  <point x="40" y="300" type="curve" smooth="yes"/>
	  <point x="40" y="207"/>
	  <point x="117" y="150"/>
	  <point x="210" y="150" type="curve" smooth="yes"/>
	  <point x="273" y="150"/>
	  <point x="326" y="184"/>
	  <point x="345" y="235" type="curve"/>
	  <point x="345" y="119"/>
	  <point x="299" y="45"/>
	  <point x="221" y="45" type="curve" smooth="yes"/>
	  <point x="161" y="45"/>
	  <point x="133" y="67"/>
	  <point x="98" y="67" type="curve"/>
	  <point x="30" y="-5" type="line"/>
	  <point x="69" y="-5"/>
	  <point x="97" y="-18"/>
	  <point x="141" y="-45" type="curve" smooth="yes"/>
	  <point x="291" y="-136" type="line" smooth="yes"/>
	  <point x="326" y="-157"/>
	  <point x="359" y="-170"/>
	  <point x="380" y="-170" type="curve" smooth="yes"/>
	  <point x="428" y="-170"/>
	  <point x="470" y="-132"/>
	  <point x="490" y="-85" type="curve"/>
	  <point x="456" y="-112"/>
	  <point x="409" y="-89"/>
	  <point x="360" y="-61" type="curve" smooth="yes"/>
	</contour>
  </outline>
</glyph>
<glyph name="g_ra-deva" format="1">
  <advance width="693"/>
  <outline>
	<component base="ga-deva"/>
	<component base="ra-deva.post" xOffset="693"/>
	<contour>
	  <point x="218" y="-64" type="move" name="nukta"/>
	</contour>
	<contour>
	  <point x="558" y="0" type="move" name="bottom"/>
	</contour>
	<contour>
	  <point x="558" y="500" type="move" name="top"/>
	</contour>
  </outline>
</glyph>
<glyph name="gh-deva" format="1">
  <advance width="349"/>
  <note>
	g142
  </note>
  <outline>
	<contour>
	  <point x="-10" y="500" type="line"/>
	  <point x="-10" y="470" type="line"/>
	  <point x="79" y="470" type="line"/>
	  <point x="67" y="461"/>
	  <point x="59" y="443"/>
	  <point x="59" y="420" type="curve" smooth="yes"/>
	  <point x="59" y="379"/>
	  <point x="98" y="340"/>
	  <point x="154" y="325" type="curve"/>
	  <point x="86" y="309"/>
	  <point x="34" y="261"/>
	  <point x="34" y="190" type="curve"/>
	  <point x="34" y="110"/>
	  <point x="111" y="45"/>
	  <point x="204" y="45" type="curve" smooth="yes"/>
	  <point x="277" y="45"/>
	  <point x="341" y="76"/>
	  <point x="369" y="125" type="curve"/>
	  <point x="369" y="190" type="line"/>
	  <point x="349" y="134"/>
	  <point x="305" y="95"/>
	  <point x="249" y="95" type="curve" smooth="yes"/>
	  <point x="205" y="95"/>
	  <point x="170" y="137"/>
	  <point x="170" y="200" type="curve"/>
	  <point x="170" y="254"/>
	  <point x="212" y="305"/>
	  <point x="264" y="305" type="curve" smooth="yes"/>
	  <point x="304" y="305" type="line"/>
	  <point x="304" y="340" type="line"/>
	  <point x="254" y="340" type="line" smooth="yes"/>
	  <point x="222" y="340"/>
	  <point x="195" y="371"/>
	  <point x="195" y="410" type="curve" smooth="yes"/>
	  <point x="195" y="441"/>
	  <point x="214" y="470"/>
	  <point x="239" y="470" type="curve"/>
	  <point x="359" y="470" type="line"/>
	  <point x="359" y="500" type="line"/>
	</contour>
  </outline>
</glyph>
<glyph name="gh_ra-deva" format="1">
  <advance width="569"/>
  <outline>
	<component base="gha-deva"/>
	<component base="ra-deva.post" xOffset="569"/>
	<contour>
	  <point x="177" y="-65" type="move" name="nukta"/>
	</contour>
	<contour>
	  <point x="434" y="0" type="move" name="bottom"/>
	</contour>
	<contour>
	  <point x="434" y="500" type="move" name="top"/>
	</contour>
  </outline>
</glyph>
<glyph name="h_la-deva" format="1">
  <advance width="637"/>
  <note>
	g265
  </note>
  <outline>
	<contour>
	  <point x="-10" y="500" type="line"/>
	  <point x="-10" y="470" type="line"/>
	  <point x="358" y="470" type="line"/>
	  <point x="358" y="410" type="line"/>
	  <point x="321" y="419"/>
	  <point x="285" y="424"/>
	  <point x="248" y="424" type="curve" smooth="yes"/>
	  <point x="155" y="424"/>
	  <point x="78" y="405"/>
	  <point x="78" y="350" type="curve" smooth="yes"/>
	  <point x="78" y="322"/>
	  <point x="104" y="296"/>
	  <point x="143" y="281" type="curve"/>
	  <point x="74" y="256"/>
	  <point x="28" y="193"/>
	  <point x="28" y="130" type="curve" smooth="yes"/>
	  <point x="28" y="25"/>
	  <point x="144" y="-60"/>
	  <point x="288" y="-60" type="curve"/>
	  <point x="368" y="-20" type="line"/>
	  <point x="256" y="-20"/>
	  <point x="164" y="52"/>
	  <point x="164" y="140" type="curve" smooth="yes"/>
	  <point x="164" y="199"/>
	  <point x="186" y="248"/>
	  <point x="218" y="258" type="curve" smooth="yes"/>
	  <point x="252" y="268"/>
	  <point x="292" y="276"/>
	  <point x="332" y="276" type="curve" smooth="yes"/>
	  <point x="380" y="276"/>
	  <point x="429" y="265"/>
	  <point x="467" y="235" type="curve"/>
	  <point x="467" y="0" type="line"/>
	  <point x="597" y="0" type="line"/>
	  <point x="597" y="240" type="line"/>
	  <point x="529" y="298"/>
	  <point x="430" y="322"/>
	  <point x="345" y="322" type="curve" smooth="yes"/>
	  <point x="309" y="322"/>
	  <point x="276" y="318"/>
	  <point x="248" y="310" type="curve"/>
	  <point x="228" y="315"/>
	  <point x="214" y="330"/>
	  <point x="214" y="345" type="curve" smooth="yes"/>
	  <point x="214" y="368"/>
	  <point x="244" y="383"/>
	  <point x="283" y="383" type="curve" smooth="yes"/>
	  <point x="316" y="383"/>
	  <point x="344" y="377"/>
	  <point x="368" y="360" type="curve"/>
	  <point x="488" y="390" type="line"/>
	  <point x="488" y="470" type="line"/>
	  <point x="647" y="470" type="line"/>
	  <point x="647" y="500" type="line"/>
	</contour>
	<contour>
	  <point x="265" y="210"/>
	  <point x="217" y="174"/>
	  <point x="217" y="130" type="curve" smooth="yes"/>
	  <point x="217" y="93"/>
	  <point x="236" y="61"/>
	  <point x="267" y="50" type="curve"/>
	  <point x="372" y="50" type="line"/>
	  <point x="345" y="59"/>
	  <point x="327" y="90"/>
	  <point x="327" y="125" type="curve" smooth="yes"/>
	  <point x="327" y="144"/>
	  <point x="336" y="160"/>
	  <point x="347" y="160" type="curve" smooth="yes"/>
	  <point x="358" y="160"/>
	  <point x="367" y="143"/>
	  <point x="367" y="120" type="curve"/>
	  <point x="447" y="120" type="line"/>
	  <point x="447" y="141"/>
	  <point x="455" y="158"/>
	  <point x="467" y="165" type="curve"/>
	  <point x="467" y="205" type="line"/>
	  <point x="440" y="201"/>
	  <point x="419" y="189"/>
	  <point x="407" y="170" type="curve"/>
	  <point x="392" y="195"/>
	  <point x="361" y="210"/>
	  <point x="322" y="210" type="curve" smooth="yes"/>
	</contour>
	<contour>
	  <point x="328" y="-160" type="move" name="nukta"/>
	</contour>
	<contour>
	  <point x="532" y="0" type="move" name="bottom"/>
	</contour>
	<contour>
	  <point x="423" y="500" type="move" name="top"/>
	</contour>
  </outline>
</glyph>
